SplineFontDB: 3.0
FontName: Dave
FullName: Dave Italic
FamilyName: Dave
Weight: Book
Copyright: Copyright i-e-b 2018-2020\n"Computer says no" by "CMunk" (https://fontstruct.com/fontstructors/show/25776/cmunk)
Version: 1.0
ItalicAngle: 0
UnderlinePosition: -41
UnderlineWidth: 85
Ascent: 819
Descent: 205
InvalidEm: 0
sfntRevision: 0x00010000
LayerCount: 2
Layer: 0 1 "Back" 1
Layer: 1 1 "Fore" 0
XUID: [1021 81 -837077078 24771]
StyleMap: 0x0001
FSType: 0
OS2Version: 2
OS2_WeightWidthSlopeOnly: 1
OS2_UseTypoMetrics: 0
CreationTime: 1537189093
ModificationTime: 1596111142
PfmFamily: 49
TTFWeight: 400
TTFWidth: 5
LineGap: 0
VLineGap: 0
Panose: 0 0 0 0 0 0 0 0 0 0
OS2TypoAscent: 725
OS2TypoAOffset: 0
OS2TypoDescent: -161
OS2TypoDOffset: 0
OS2TypoLinegap: 0
OS2WinAscent: 1074
OS2WinAOffset: 0
OS2WinDescent: 242
OS2WinDOffset: 0
HheadAscent: 1074
HheadAOffset: 0
HheadDescent: -242
HheadDOffset: 0
OS2SubXSize: 859
OS2SubYSize: 859
OS2SubXOff: 0
OS2SubYOff: -81
OS2SupXSize: 859
OS2SupYSize: 859
OS2SupXOff: 0
OS2SupYOff: 859
OS2StrikeYSize: 86
OS2StrikeYPos: 342
OS2CapHeight: 432
OS2XHeight: 336
OS2FamilyClass: 1793
OS2Vendor: 'FSTR'
OS2CodePages: 400001ff.00000000
OS2UnicodeRanges: e50006bf.4000197b.00009020.00000000
MarkAttachClasses: 1
DEI: 91125

StartChar: .notdef
Encoding: 65536 -1 0
Width: 537
Flags: MW
LayerCount: 2
Fore
SplineSet
0 0 m 1,0,-1
 114.829101562 725 l 1,1,-1
 597.829101562 725 l 1,2,-1
 483 0 l 1,3,-1
 0 0 l 1,0,-1
64.552734375 54 m 1,4,-1
 440.552734375 54 l 1,5,-1
 536.276367188 671 l 1,6,-1
 567.552734375 698 l 1,7,-1
 137.552734375 698 l 1,8,-1
 31.2763671875 27 l 1,9,-1
 64.552734375 54 l 1,4,-1
222.052734375 215 m 1,10,-1
 239 322 l 1,11,-1
 394.381835938 457 l 1,12,-1
 398.5 483 l 1,13,-1
 331.329101562 564 l 1,14,-1
 304.329101562 564 l 1,15,-1
 179.381835938 457 l 1,16,-1
 134.776367188 510 l 1,17,-1
 290.158203125 645 l 1,18,-1
 371.158203125 645 l 1,19,-1
 483.776367188 510 l 1,20,-1
 471.10546875 430 l 1,21,-1
 315.723632812 295 l 1,22,-1
 303.052734375 215 l 1,23,-1
 222.052734375 215 l 1,10,-1
200.829101562 81 m 1,24,-1
 213.5 161 l 1,25,-1
 294.5 161 l 1,26,-1
 281.829101562 81 l 1,27,-1
 200.829101562 81 l 1,24,-1
EndSplineSet
EndChar

StartChar: exclam
Encoding: 33 33 4
Width: 537
GlyphClass: 2
Flags: MW
LayerCount: 2
Fore
SplineSet
186.329101562 242 m 1,0,-1
 183.5 483 l 1,1,-1
 221.829101562 725 l 1,2,-1
 409.829101562 725 l 1,3,-1
 371.5 483 l 1,4,-1
 293.329101562 242 l 1,5,-1
 186.329101562 242 l 1,0,-1
134 0 m 1,6,-1
 155.223632812 134 l 1,7,-1
 290.223632812 134 l 1,8,-1
 269 0 l 1,9,-1
 134 0 l 1,6,-1
EndSplineSet
EndChar

StartChar: quotedbl
Encoding: 34 34 5
Width: 537
GlyphClass: 2
Flags: MW
LayerCount: 2
Fore
SplineSet
337.10546875 430 m 1,0,-1
 383.829101562 725 l 1,1,-1
 463.829101562 725 l 1,2,-1
 434.052734375 537 l 1,3,-1
 390.10546875 430 l 1,4,-1
 337.10546875 430 l 1,0,-1
122.10546875 430 m 1,5,-1
 168.829101562 725 l 1,6,-1
 248.829101562 725 l 1,7,-1
 219.052734375 537 l 1,8,-1
 175.10546875 430 l 1,9,-1
 122.10546875 430 l 1,5,-1
EndSplineSet
EndChar

StartChar: numbersign
Encoding: 35 35 6
Width: 537
GlyphClass: 2
Flags: MW
LayerCount: 2
Fore
SplineSet
0 0 m 1,0,-1
 52.5 161 l 1,1,-1
 -28.5 161 l 1,2,-1
 -15.6708984375 242 l 1,3,-1
 78.3291015625 242 l 1,4,-1
 157.5 483 l 1,5,-1
 76.5 483 l 1,6,-1
 89.3291015625 564 l 1,7,-1
 183.329101562 564 l 1,8,-1
 235.829101562 725 l 1,9,-1
 315.829101562 725 l 1,10,-1
 264.329101562 564 l 1,11,-1
 411.329101562 564 l 1,12,-1
 463.829101562 725 l 1,13,-1
 544.829101562 725 l 1,14,-1
 492.329101562 564 l 1,15,-1
 572.329101562 564 l 1,16,-1
 559.5 483 l 1,17,-1
 465.5 483 l 1,18,-1
 387.329101562 242 l 1,19,-1
 468.329101562 242 l 1,20,-1
 455.5 161 l 1,21,-1
 361.5 161 l 1,22,-1
 309 0 l 1,23,-1
 228 0 l 1,24,-1
 280.5 161 l 1,25,-1
 132.5 161 l 1,26,-1
 81 0 l 1,27,-1
 0 0 l 1,0,-1
307.329101562 242 m 1,28,-1
 385.5 483 l 1,29,-1
 237.5 483 l 1,30,-1
 159.329101562 242 l 1,31,-1
 307.329101562 242 l 1,28,-1
EndSplineSet
EndChar

StartChar: dollar
Encoding: 36 36 7
Width: 537
GlyphClass: 2
Flags: MW
LayerCount: 2
Fore
SplineSet
148.170898438 -81 m 1,0,-1
 161 0 l 1,1,-1
 134 0 l 1,2,-1
 21.2236328125 134 l 1,3,-1
 83.7763671875 188 l 1,4,-1
 173.829101562 81 l 1,5,-1
 212.633789062 326 l 1,6,-1
 185.633789062 326 l 1,7,-1
 72.3818359375 457 l 1,8,-1
 93.60546875 591 l 1,9,-1
 248.829101562 725 l 1,10,-1
 275.829101562 725 l 1,11,-1
 288.658203125 806 l 1,12,-1
 369.658203125 806 l 1,13,-1
 356.829101562 725 l 1,14,-1
 383.829101562 725 l 1,15,-1
 496.60546875 591 l 1,16,-1
 434.052734375 537 l 1,17,-1
 344.158203125 645 l 1,18,-1
 306.462890625 407 l 1,19,-1
 333.462890625 407 l 1,20,-1
 445.60546875 269 l 1,21,-1
 424.223632812 134 l 1,22,-1
 269 0 l 1,23,-1
 242 0 l 1,24,-1
 229.170898438 -81 l 1,25,-1
 148.170898438 -81 l 1,0,-1
263.158203125 645 m 1,26,-1
 170.329101562 564 l 1,27,-1
 157.5 483 l 1,28,-1
 225.462890625 407 l 1,29,-1
 263.158203125 645 l 1,26,-1
347.5 161 m 1,30,-1
 360.329101562 242 l 1,31,-1
 293.633789062 326 l 1,32,-1
 254.829101562 81 l 1,33,-1
 347.5 161 l 1,30,-1
EndSplineSet
EndChar

StartChar: percent
Encoding: 37 37 8
Width: 537
GlyphClass: 2
Flags: MW
LayerCount: 2
Fore
SplineSet
157.5 483 m 1,0,-1
 89.3291015625 564 l 1,1,-1
 102.158203125 645 l 1,2,-1
 195.829101562 725 l 1,3,-1
 275.829101562 725 l 1,4,-1
 344.158203125 645 l 1,5,-1
 331.329101562 564 l 1,6,-1
 237.5 483 l 1,7,-1
 157.5 483 l 1,0,-1
219.052734375 537 m 1,8,-1
 281.60546875 591 l 1,9,-1
 285.881835938 618 l 1,10,-1
 240.276367188 671 l 1,11,-1
 213.276367188 671 l 1,12,-1
 151.881835938 618 l 1,13,-1
 147.60546875 591 l 1,14,-1
 192.052734375 537 l 1,15,-1
 219.052734375 537 l 1,8,-1
34.052734375 215 m 1,16,-1
 438.329101562 564 l 1,17,-1
 483.776367188 510 l 1,18,-1
 79.5 161 l 1,19,-1
 34.052734375 215 l 1,16,-1
242 0 m 1,20,-1
 173.829101562 81 l 1,21,-1
 186.5 161 l 1,22,-1
 280.329101562 242 l 1,23,-1
 360.329101562 242 l 1,24,-1
 428.5 161 l 1,25,-1
 415.829101562 81 l 1,26,-1
 322 0 l 1,27,-1
 242 0 l 1,20,-1
303.552734375 54 m 1,28,-1
 365.947265625 107 l 1,29,-1
 370.223632812 134 l 1,30,-1
 324.776367188 188 l 1,31,-1
 298.776367188 188 l 1,32,-1
 236.223632812 134 l 1,33,-1
 231.947265625 107 l 1,34,-1
 277.552734375 54 l 1,35,-1
 303.552734375 54 l 1,28,-1
EndSplineSet
EndChar

StartChar: ampersand
Encoding: 38 38 9
Width: 537
GlyphClass: 2
Flags: MW
LayerCount: 2
Fore
SplineSet
134 0 m 1,0,-1
 21.2236328125 134 l 1,1,-1
 55.2763671875 349 l 1,2,-1
 179.381835938 457 l 1,3,-1
 112.052734375 537 l 1,4,-1
 124.881835938 618 l 1,5,-1
 217.552734375 698 l 1,6,-1
 298.552734375 698 l 1,7,-1
 366.881835938 618 l 1,8,-1
 354.052734375 537 l 1,9,-1
 260.381835938 457 l 1,10,-1
 319.6640625 282 l 1,11,-1
 399.829101562 403 l 1,12,-1
 412.829101562 403 l 1,13,-1
 462.552734375 376 l 1,14,-1
 347.834960938 201 l 1,15,-1
 407.276367188 27 l 1,16,-1
 349 0 l 1,17,-1
 336 0 l 1,18,-1
 294.1640625 121 l 1,19,-1
 215 0 l 1,20,-1
 134 0 l 1,0,-1
241.776367188 510 m 1,21,-1
 304.329101562 564 l 1,22,-1
 308.60546875 591 l 1,23,-1
 263.158203125 645 l 1,24,-1
 236.158203125 645 l 1,25,-1
 174.60546875 591 l 1,26,-1
 170.329101562 564 l 1,27,-1
 214.776367188 510 l 1,28,-1
 241.776367188 510 l 1,21,-1
187.829101562 81 m 1,29,-1
 266.834960938 201 l 1,30,-1
 203.819335938 384 l 1,31,-1
 132 322 l 1,32,-1
 106.5 161 l 1,33,-1
 173.829101562 81 l 1,34,-1
 187.829101562 81 l 1,29,-1
EndSplineSet
EndChar

StartChar: quotesingle
Encoding: 39 39 10
Width: 537
GlyphClass: 2
Flags: MW
LayerCount: 2
Fore
SplineSet
233.381835938 457 m 1,0,-1
 275.829101562 725 l 1,1,-1
 409.829101562 725 l 1,2,-1
 401.276367188 671 l 1,3,-1
 314.381835938 457 l 1,4,-1
 233.381835938 457 l 1,0,-1
EndSplineSet
EndChar

StartChar: parenleft
Encoding: 40 40 11
Width: 537
GlyphClass: 2
Flags: MW
LayerCount: 2
Fore
SplineSet
193.776367188 -134 m 1,0,-1
 125.447265625 -54 l 1,1,-1
 123.947265625 107 l 1,2,-1
 196.329101562 564 l 1,3,-1
 248.829101562 725 l 1,4,-1
 342.658203125 806 l 1,5,-1
 400.934570312 833 l 1,6,-1
 422.658203125 806 l 1,7,-1
 329.829101562 725 l 1,8,-1
 277.329101562 564 l 1,9,-1
 204.947265625 107 l 1,10,-1
 206.447265625 -54 l 1,11,-1
 273.776367188 -134 l 1,12,-1
 243.5 -161 l 1,13,-1
 193.776367188 -134 l 1,0,-1
EndSplineSet
EndChar

StartChar: parenright
Encoding: 41 41 12
Width: 537
GlyphClass: 2
Flags: MW
LayerCount: 2
Fore
SplineSet
85.7763671875 -134 m 1,0,-1
 179.447265625 -54 l 1,1,-1
 231.947265625 107 l 1,2,-1
 304.329101562 564 l 1,3,-1
 302.829101562 725 l 1,4,-1
 234.658203125 806 l 1,5,-1
 265.934570312 833 l 1,6,-1
 315.658203125 806 l 1,7,-1
 383.829101562 725 l 1,8,-1
 384.329101562 564 l 1,9,-1
 311.947265625 107 l 1,10,-1
 260.447265625 -54 l 1,11,-1
 166.776367188 -134 l 1,12,-1
 108.5 -161 l 1,13,-1
 85.7763671875 -134 l 1,0,-1
EndSplineSet
EndChar

StartChar: asterisk
Encoding: 42 42 13
Width: 537
GlyphClass: 2
Flags: MW
LayerCount: 2
Fore
SplineSet
149.60546875 269 m 1,0,-1
 100.723632812 295 l 1,1,-1
 219.549804688 477 l 1,2,-1
 87.26953125 551 l 1,3,-1
 89.3291015625 564 l 1,4,-1
 124.881835938 618 l 1,5,-1
 248.26953125 551 l 1,6,-1
 275.829101562 725 l 1,7,-1
 356.829101562 725 l 1,8,-1
 329.26953125 551 l 1,9,-1
 473.881835938 618 l 1,10,-1
 492.329101562 564 l 1,11,-1
 490.26953125 551 l 1,12,-1
 332.549804688 477 l 1,13,-1
 395.723632812 295 l 1,14,-1
 337.60546875 269 l 1,15,-1
 324.60546875 269 l 1,16,-1
 269.10546875 430 l 1,17,-1
 163.60546875 269 l 1,18,-1
 149.60546875 269 l 1,0,-1
EndSplineSet
EndChar

StartChar: plus
Encoding: 43 43 14
Width: 537
GlyphClass: 2
Flags: MW
LayerCount: 2
Fore
SplineSet
172.5625 73 m 1,0,-1
 199.329101562 242 l 1,1,-1
 38.3291015625 242 l 1,2,-1
 51 322 l 1,3,-1
 212 322 l 1,4,-1
 238.450195312 489 l 1,5,-1
 319.450195312 489 l 1,6,-1
 293 322 l 1,7,-1
 454 322 l 1,8,-1
 441.329101562 242 l 1,9,-1
 280.329101562 242 l 1,10,-1
 253.5625 73 l 1,11,-1
 172.5625 73 l 1,0,-1
EndSplineSet
EndChar

StartChar: comma
Encoding: 44 44 15
Width: 537
GlyphClass: 2
Flags: MW
LayerCount: 2
Fore
SplineSet
87.8359375 -121 m 1,0,-1
 181.665039062 -40 l 1,1,-1
 185.94140625 -13 l 1,2,-1
 131.94140625 -13 l 1,3,-1
 153.1640625 121 l 1,4,-1
 288.1640625 121 l 1,5,-1
 258.388671875 -67 l 1,6,-1
 133.283203125 -175 l 1,7,-1
 87.8359375 -121 l 1,0,-1
EndSplineSet
EndChar

StartChar: hyphen
Encoding: 45 45 16
Width: 537
GlyphClass: 2
Flags: MW
LayerCount: 2
Fore
SplineSet
92.3291015625 242 m 1,0,-1
 105 322 l 1,1,-1
 400 322 l 1,2,-1
 387.329101562 242 l 1,3,-1
 92.3291015625 242 l 1,0,-1
EndSplineSet
EndChar

StartChar: period
Encoding: 46 46 17
Width: 537
GlyphClass: 2
Flags: MW
LayerCount: 2
Fore
SplineSet
138.276367188 27 m 1,0,-1
 159.5 161 l 1,1,-1
 294.5 161 l 1,2,-1
 273.276367188 27 l 1,3,-1
 138.276367188 27 l 1,0,-1
EndSplineSet
EndChar

StartChar: slash
Encoding: 47 47 18
Width: 537
GlyphClass: 2
Flags: MW
LayerCount: 2
Fore
SplineSet
-16.947265625 -107 m 1,0,-1
 -66.8291015625 -81 l 1,1,-1
 482.10546875 752 l 1,2,-1
 495.10546875 752 l 1,3,-1
 544.829101562 725 l 1,4,-1
 -3.947265625 -107 l 1,5,-1
 -16.947265625 -107 l 1,0,-1
EndSplineSet
EndChar

StartChar: zero
Encoding: 48 48 19
Width: 537
GlyphClass: 2
Flags: MW
LayerCount: 2
Fore
SplineSet
134 0 m 1,0,-1
 21.2236328125 134 l 1,1,-1
 93.60546875 591 l 1,2,-1
 248.829101562 725 l 1,3,-1
 383.829101562 725 l 1,4,-1
 496.60546875 591 l 1,5,-1
 424.223632812 134 l 1,6,-1
 269 0 l 1,7,-1
 134 0 l 1,0,-1
408.002929688 543 m 1,8,-1
 411.329101562 564 l 1,9,-1
 344.158203125 645 l 1,10,-1
 263.158203125 645 l 1,11,-1
 170.329101562 564 l 1,12,-1
 119.803710938 245 l 1,13,-1
 408.002929688 543 l 1,8,-1
254.829101562 81 m 1,14,-1
 347.5 161 l 1,15,-1
 397.390625 476 l 1,16,-1
 109.192382812 178 l 1,17,-1
 106.5 161 l 1,18,-1
 173.829101562 81 l 1,19,-1
 254.829101562 81 l 1,14,-1
EndSplineSet
EndChar

StartChar: one
Encoding: 49 49 20
Width: 537
GlyphClass: 2
Flags: MW
LayerCount: 2
Fore
SplineSet
27 0 m 1,0,-1
 39.8291015625 81 l 1,1,-1
 173.829101562 81 l 1,2,-1
 254.60546875 591 l 1,3,-1
 130.5 483 l 1,4,-1
 85.052734375 537 l 1,5,-1
 302.829101562 725 l 1,6,-1
 356.829101562 725 l 1,7,-1
 254.829101562 81 l 1,8,-1
 388.829101562 81 l 1,9,-1
 376 0 l 1,10,-1
 27 0 l 1,0,-1
EndSplineSet
EndChar

StartChar: two
Encoding: 50 50 21
Width: 537
GlyphClass: 2
Flags: MW
LayerCount: 2
Fore
SplineSet
0 0 m 1,0,-1
 25.5 161 l 1,1,-1
 398.5 483 l 1,2,-1
 411.329101562 564 l 1,3,-1
 344.158203125 645 l 1,4,-1
 263.158203125 645 l 1,5,-1
 139.052734375 537 l 1,6,-1
 93.60546875 591 l 1,7,-1
 248.829101562 725 l 1,8,-1
 383.829101562 725 l 1,9,-1
 496.60546875 591 l 1,10,-1
 475.381835938 457 l 1,11,-1
 102.223632812 134 l 1,12,-1
 93.8291015625 81 l 1,13,-1
 415.829101562 81 l 1,14,-1
 403 0 l 1,15,-1
 0 0 l 1,0,-1
EndSplineSet
EndChar

StartChar: three
Encoding: 51 51 22
Width: 537
GlyphClass: 2
Flags: MW
LayerCount: 2
Fore
SplineSet
370.611328125 389 m 1,0,-1
 449.723632812 295 l 1,1,-1
 424.223632812 134 l 1,2,-1
 269 0 l 1,3,-1
 134 0 l 1,4,-1
 21.2236328125 134 l 1,5,-1
 83.7763671875 188 l 1,6,-1
 173.829101562 81 l 1,7,-1
 254.829101562 81 l 1,8,-1
 347.5 161 l 1,9,-1
 364.60546875 269 l 1,10,-1
 297.276367188 349 l 1,11,-1
 189.276367188 349 l 1,12,-1
 202.10546875 430 l 1,13,-1
 310.10546875 430 l 1,14,-1
 402.776367188 510 l 1,15,-1
 411.329101562 564 l 1,16,-1
 344.158203125 645 l 1,17,-1
 263.158203125 645 l 1,18,-1
 139.052734375 537 l 1,19,-1
 93.60546875 591 l 1,20,-1
 248.829101562 725 l 1,21,-1
 383.829101562 725 l 1,22,-1
 496.60546875 591 l 1,23,-1
 479.5 483 l 1,24,-1
 370.611328125 389 l 1,0,-1
EndSplineSet
EndChar

StartChar: four
Encoding: 52 52 23
Width: 537
GlyphClass: 2
Flags: MW
LayerCount: 2
Fore
SplineSet
242 0 m 1,0,-1
 267.5 161 l 1,1,-1
 25.5 161 l 1,2,-1
 34.052734375 215 l 1,3,-1
 369.829101562 725 l 1,4,-1
 436.829101562 725 l 1,5,-1
 360.329101562 242 l 1,6,-1
 441.329101562 242 l 1,7,-1
 428.5 161 l 1,8,-1
 347.5 161 l 1,9,-1
 322 0 l 1,10,-1
 242 0 l 1,0,-1
280.329101562 242 m 1,11,-1
 327.052734375 537 l 1,12,-1
 132.329101562 242 l 1,13,-1
 280.329101562 242 l 1,11,-1
EndSplineSet
EndChar

StartChar: five
Encoding: 53 53 24
Width: 537
GlyphClass: 2
Flags: MW
LayerCount: 2
Fore
SplineSet
134 0 m 1,0,-1
 21.2236328125 134 l 1,1,-1
 83.7763671875 188 l 1,2,-1
 173.829101562 81 l 1,3,-1
 254.829101562 81 l 1,4,-1
 347.5 161 l 1,5,-1
 373 322 l 1,6,-1
 305.829101562 403 l 1,7,-1
 224.829101562 403 l 1,8,-1
 132 322 l 1,9,-1
 51 322 l 1,10,-1
 114.829101562 725 l 1,11,-1
 517.829101562 725 l 1,12,-1
 505.158203125 645 l 1,13,-1
 183.158203125 645 l 1,14,-1
 149.10546875 430 l 1,15,-1
 210.5 483 l 1,16,-1
 345.5 483 l 1,17,-1
 458.276367188 349 l 1,18,-1
 424.223632812 134 l 1,19,-1
 269 0 l 1,20,-1
 134 0 l 1,0,-1
EndSplineSet
EndChar

StartChar: six
Encoding: 54 54 25
Width: 537
GlyphClass: 2
Flags: MW
LayerCount: 2
Fore
SplineSet
134 0 m 1,0,-1
 21.2236328125 134 l 1,1,-1
 93.60546875 591 l 1,2,-1
 248.829101562 725 l 1,3,-1
 383.829101562 725 l 1,4,-1
 496.60546875 591 l 1,5,-1
 434.052734375 537 l 1,6,-1
 344.158203125 645 l 1,7,-1
 263.158203125 645 l 1,8,-1
 170.329101562 564 l 1,9,-1
 149.10546875 430 l 1,10,-1
 210.5 483 l 1,11,-1
 345.5 483 l 1,12,-1
 458.276367188 349 l 1,13,-1
 424.223632812 134 l 1,14,-1
 269 0 l 1,15,-1
 134 0 l 1,0,-1
254.829101562 81 m 1,16,-1
 347.5 161 l 1,17,-1
 373 322 l 1,18,-1
 305.829101562 403 l 1,19,-1
 224.829101562 403 l 1,20,-1
 132 322 l 1,21,-1
 106.5 161 l 1,22,-1
 173.829101562 81 l 1,23,-1
 254.829101562 81 l 1,16,-1
EndSplineSet
EndChar

StartChar: seven
Encoding: 55 55 26
Width: 537
GlyphClass: 2
Flags: MW
LayerCount: 2
Fore
SplineSet
54 0 m 1,0,-1
 4.2763671875 27 l 1,1,-1
 411.158203125 645 l 1,2,-1
 102.158203125 645 l 1,3,-1
 114.829101562 725 l 1,4,-1
 517.829101562 725 l 1,5,-1
 509.276367188 671 l 1,6,-1
 67 0 l 1,7,-1
 54 0 l 1,0,-1
EndSplineSet
EndChar

StartChar: eight
Encoding: 56 56 27
Width: 537
GlyphClass: 2
Flags: MW
LayerCount: 2
Fore
SplineSet
371.245117188 393 m 1,0,-1
 449.723632812 295 l 1,1,-1
 424.223632812 134 l 1,2,-1
 269 0 l 1,3,-1
 134 0 l 1,4,-1
 21.2236328125 134 l 1,5,-1
 46.7236328125 295 l 1,6,-1
 156.245117188 393 l 1,7,-1
 77.1328125 487 l 1,8,-1
 94.23828125 595 l 1,9,-1
 249.461914062 729 l 1,10,-1
 384.461914062 729 l 1,11,-1
 497.23828125 595 l 1,12,-1
 480.1328125 487 l 1,13,-1
 371.245117188 393 l 1,0,-1
310.739257812 434 m 1,14,-1
 403.409179688 514 l 1,15,-1
 411.961914062 568 l 1,16,-1
 344.791015625 649 l 1,17,-1
 263.791015625 649 l 1,18,-1
 170.961914062 568 l 1,19,-1
 162.409179688 514 l 1,20,-1
 229.739257812 434 l 1,21,-1
 310.739257812 434 l 1,14,-1
254.829101562 81 m 1,22,-1
 347.5 161 l 1,23,-1
 364.60546875 269 l 1,24,-1
 297.276367188 349 l 1,25,-1
 216.276367188 349 l 1,26,-1
 123.60546875 269 l 1,27,-1
 106.5 161 l 1,28,-1
 173.829101562 81 l 1,29,-1
 254.829101562 81 l 1,22,-1
EndSplineSet
EndChar

StartChar: nine
Encoding: 57 57 28
Width: 537
GlyphClass: 2
Flags: MW
LayerCount: 2
Fore
SplineSet
134 0 m 1,0,-1
 21.2236328125 134 l 1,1,-1
 83.7763671875 188 l 1,2,-1
 173.829101562 81 l 1,3,-1
 254.829101562 81 l 1,4,-1
 347.5 161 l 1,5,-1
 377.276367188 349 l 1,6,-1
 315.723632812 295 l 1,7,-1
 180.723632812 295 l 1,8,-1
 68.10546875 430 l 1,9,-1
 93.60546875 591 l 1,10,-1
 248.829101562 725 l 1,11,-1
 383.829101562 725 l 1,12,-1
 496.60546875 591 l 1,13,-1
 424.223632812 134 l 1,14,-1
 269 0 l 1,15,-1
 134 0 l 1,0,-1
301.552734375 376 m 1,16,-1
 394.381835938 457 l 1,17,-1
 411.329101562 564 l 1,18,-1
 344.158203125 645 l 1,19,-1
 263.158203125 645 l 1,20,-1
 170.329101562 564 l 1,21,-1
 153.381835938 457 l 1,22,-1
 220.552734375 376 l 1,23,-1
 301.552734375 376 l 1,16,-1
EndSplineSet
EndChar

StartChar: colon
Encoding: 58 58 29
Width: 537
GlyphClass: 2
Flags: MW
LayerCount: 2
Fore
SplineSet
202.10546875 430 m 1,0,-1
 223.329101562 564 l 1,1,-1
 358.329101562 564 l 1,2,-1
 337.10546875 430 l 1,3,-1
 202.10546875 430 l 1,0,-1
134 0 m 1,4,-1
 155.223632812 134 l 1,5,-1
 290.223632812 134 l 1,6,-1
 269 0 l 1,7,-1
 134 0 l 1,4,-1
EndSplineSet
EndChar

StartChar: semicolon
Encoding: 59 59 30
Width: 537
GlyphClass: 2
Flags: MW
LayerCount: 2
Fore
SplineSet
202.10546875 430 m 1,0,-1
 223.329101562 564 l 1,1,-1
 358.329101562 564 l 1,2,-1
 337.10546875 430 l 1,3,-1
 202.10546875 430 l 1,0,-1
90.052734375 -107 m 1,4,-1
 183.723632812 -27 l 1,5,-1
 188 0 l 1,6,-1
 134 0 l 1,7,-1
 155.223632812 134 l 1,8,-1
 290.223632812 134 l 1,9,-1
 260.447265625 -54 l 1,10,-1
 135.5 -161 l 1,11,-1
 90.052734375 -107 l 1,4,-1
EndSplineSet
EndChar

StartChar: less
Encoding: 60 60 31
Width: 537
GlyphClass: 2
Flags: MW
LayerCount: 2
Fore
SplineSet
67.3876953125 255 m 1,0,-1
 75.9404296875 309 l 1,1,-1
 452.5 483 l 1,2,-1
 471.10546875 430 l 1,3,-1
 468.887695312 416 l 1,4,-1
 178.6640625 282 l 1,5,-1
 426.440429688 148 l 1,6,-1
 424.223632812 134 l 1,7,-1
 388.829101562 81 l 1,8,-1
 67.3876953125 255 l 1,0,-1
EndSplineSet
EndChar

StartChar: equal
Encoding: 61 61 32
Width: 537
GlyphClass: 2
Flags: MW
LayerCount: 2
Fore
SplineSet
51 322 m 1,0,-1
 63.8291015625 403 l 1,1,-1
 466.829101562 403 l 1,2,-1
 454 322 l 1,3,-1
 51 322 l 1,0,-1
25.5 161 m 1,4,-1
 38.3291015625 242 l 1,5,-1
 441.329101562 242 l 1,6,-1
 428.5 161 l 1,7,-1
 25.5 161 l 1,4,-1
EndSplineSet
EndChar

StartChar: greater
Encoding: 62 62 33
Width: 537
GlyphClass: 2
Flags: MW
LayerCount: 2
Fore
SplineSet
21.2236328125 134 m 1,0,-1
 23.4404296875 148 l 1,1,-1
 313.6640625 282 l 1,2,-1
 65.8876953125 416 l 1,3,-1
 68.10546875 430 l 1,4,-1
 103.5 483 l 1,5,-1
 424.940429688 309 l 1,6,-1
 416.387695312 255 l 1,7,-1
 39.8291015625 81 l 1,8,-1
 21.2236328125 134 l 1,0,-1
EndSplineSet
EndChar

StartChar: question
Encoding: 63 63 34
Width: 537
GlyphClass: 2
Flags: MW
LayerCount: 2
Fore
SplineSet
195.052734375 215 m 1,0,-1
 212 322 l 1,1,-1
 398.5 483 l 1,2,-1
 411.329101562 564 l 1,3,-1
 344.158203125 645 l 1,4,-1
 263.158203125 645 l 1,5,-1
 139.052734375 537 l 1,6,-1
 93.60546875 591 l 1,7,-1
 248.829101562 725 l 1,8,-1
 383.829101562 725 l 1,9,-1
 496.60546875 591 l 1,10,-1
 475.381835938 457 l 1,11,-1
 288.723632812 295 l 1,12,-1
 276.052734375 215 l 1,13,-1
 195.052734375 215 l 1,0,-1
134 0 m 1,14,-1
 155.223632812 134 l 1,15,-1
 290.223632812 134 l 1,16,-1
 269 0 l 1,17,-1
 134 0 l 1,14,-1
EndSplineSet
EndChar

StartChar: at
Encoding: 64 64 35
Width: 537
GlyphClass: 2
Flags: MW
LayerCount: 2
Fore
SplineSet
55.5 -161 m 1,0,-1
 -58.2763671875 -27 l 1,1,-1
 39.60546875 591 l 1,2,-1
 195.829101562 725 l 1,3,-1
 383.829101562 725 l 1,4,-1
 496.60546875 591 l 1,5,-1
 415.829101562 81 l 1,6,-1
 334.829101562 81 l 1,7,-1
 343.223632812 134 l 1,8,-1
 281.829101562 81 l 1,9,-1
 227.829101562 81 l 1,10,-1
 159.5 161 l 1,11,-1
 193.552734375 376 l 1,12,-1
 318.5 483 l 1,13,-1
 398.5 483 l 1,14,-1
 411.329101562 564 l 1,15,-1
 344.158203125 645 l 1,16,-1
 209.158203125 645 l 1,17,-1
 116.329101562 564 l 1,18,-1
 27 0 l 1,19,-1
 94.1708984375 -81 l 1,20,-1
 229.170898438 -81 l 1,21,-1
 353.276367188 27 l 1,22,-1
 398.723632812 -27 l 1,23,-1
 243.5 -161 l 1,24,-1
 55.5 -161 l 1,0,-1
360.329101562 242 m 1,25,-1
 385.829101562 403 l 1,26,-1
 332.829101562 403 l 1,27,-1
 270.276367188 349 l 1,28,-1
 244.776367188 188 l 1,29,-1
 267.5 161 l 1,30,-1
 360.329101562 242 l 1,25,-1
EndSplineSet
EndChar

StartChar: A
Encoding: 65 65 36
Width: 537
GlyphClass: 2
Flags: MW
LayerCount: 2
Fore
SplineSet
0 0 m 1,0,-1
 59.552734375 376 l 1,1,-1
 289.829101562 725 l 1,2,-1
 342.829101562 725 l 1,3,-1
 462.552734375 376 l 1,4,-1
 403 0 l 1,5,-1
 322 0 l 1,6,-1
 360.329101562 242 l 1,7,-1
 119.329101562 242 l 1,8,-1
 81 0 l 1,9,-1
 0 0 l 1,0,-1
373 322 m 1,10,-1
 381.552734375 376 l 1,11,-1
 298.881835938 618 l 1,12,-1
 140.552734375 376 l 1,13,-1
 132 322 l 1,14,-1
 373 322 l 1,10,-1
EndSplineSet
EndChar

StartChar: B
Encoding: 66 66 37
Width: 537
GlyphClass: 2
Flags: MW
LayerCount: 2
Fore
SplineSet
368.077148438 373 m 1,0,-1
 445.60546875 269 l 1,1,-1
 424.223632812 134 l 1,2,-1
 269 0 l 1,3,-1
 0 0 l 1,4,-1
 114.829101562 725 l 1,5,-1
 383.829101562 725 l 1,6,-1
 496.60546875 591 l 1,7,-1
 475.381835938 457 l 1,8,-1
 368.077148438 373 l 1,0,-1
307.729492188 415 m 1,9,-1
 398.5 483 l 1,10,-1
 411.329101562 564 l 1,11,-1
 344.158203125 645 l 1,12,-1
 183.158203125 645 l 1,13,-1
 146.729492188 415 l 1,14,-1
 307.729492188 415 l 1,9,-1
254.829101562 81 m 1,15,-1
 347.5 161 l 1,16,-1
 360.329101562 242 l 1,17,-1
 295.216796875 336 l 1,18,-1
 134.216796875 336 l 1,19,-1
 93.8291015625 81 l 1,20,-1
 254.829101562 81 l 1,15,-1
EndSplineSet
EndChar

StartChar: C
Encoding: 67 67 38
Width: 537
GlyphClass: 2
Flags: MW
LayerCount: 2
Fore
SplineSet
134 0 m 1,0,-1
 21.2236328125 134 l 1,1,-1
 93.60546875 591 l 1,2,-1
 248.829101562 725 l 1,3,-1
 383.829101562 725 l 1,4,-1
 496.60546875 591 l 1,5,-1
 434.052734375 537 l 1,6,-1
 344.158203125 645 l 1,7,-1
 263.158203125 645 l 1,8,-1
 170.329101562 564 l 1,9,-1
 106.5 161 l 1,10,-1
 173.829101562 81 l 1,11,-1
 254.829101562 81 l 1,12,-1
 378.776367188 188 l 1,13,-1
 424.223632812 134 l 1,14,-1
 269 0 l 1,15,-1
 134 0 l 1,0,-1
EndSplineSet
EndChar

StartChar: D
Encoding: 68 68 39
Width: 537
GlyphClass: 2
Flags: MW
LayerCount: 2
Fore
SplineSet
0 0 m 1,0,-1
 114.829101562 725 l 1,1,-1
 383.829101562 725 l 1,2,-1
 496.60546875 591 l 1,3,-1
 424.223632812 134 l 1,4,-1
 269 0 l 1,5,-1
 0 0 l 1,0,-1
254.829101562 81 m 1,6,-1
 347.5 161 l 1,7,-1
 411.329101562 564 l 1,8,-1
 344.158203125 645 l 1,9,-1
 183.158203125 645 l 1,10,-1
 93.8291015625 81 l 1,11,-1
 254.829101562 81 l 1,6,-1
EndSplineSet
EndChar

StartChar: E
Encoding: 69 69 40
Width: 537
GlyphClass: 2
Flags: MW
LayerCount: 2
Fore
SplineSet
0 0 m 1,0,-1
 114.829101562 725 l 1,1,-1
 517.829101562 725 l 1,2,-1
 505.158203125 645 l 1,3,-1
 183.158203125 645 l 1,4,-1
 146.413085938 413 l 1,5,-1
 387.413085938 413 l 1,6,-1
 374.583984375 332 l 1,7,-1
 133.583984375 332 l 1,8,-1
 93.8291015625 81 l 1,9,-1
 415.829101562 81 l 1,10,-1
 403 0 l 1,11,-1
 0 0 l 1,0,-1
EndSplineSet
EndChar

StartChar: F
Encoding: 70 70 41
Width: 537
GlyphClass: 2
Flags: MW
LayerCount: 2
Fore
SplineSet
0 0 m 1,0,-1
 114.829101562 725 l 1,1,-1
 517.829101562 725 l 1,2,-1
 505.158203125 645 l 1,3,-1
 183.158203125 645 l 1,4,-1
 146.571289062 414 l 1,5,-1
 387.571289062 414 l 1,6,-1
 374.7421875 333 l 1,7,-1
 133.7421875 333 l 1,8,-1
 81 0 l 1,9,-1
 0 0 l 1,0,-1
EndSplineSet
EndChar

StartChar: G
Encoding: 71 71 42
Width: 537
GlyphClass: 2
Flags: MW
LayerCount: 2
Fore
SplineSet
134 0 m 1,0,-1
 21.2236328125 134 l 1,1,-1
 93.60546875 591 l 1,2,-1
 248.829101562 725 l 1,3,-1
 383.829101562 725 l 1,4,-1
 496.60546875 591 l 1,5,-1
 434.052734375 537 l 1,6,-1
 344.158203125 645 l 1,7,-1
 263.158203125 645 l 1,8,-1
 170.329101562 564 l 1,9,-1
 106.5 161 l 1,10,-1
 173.829101562 81 l 1,11,-1
 227.829101562 81 l 1,12,-1
 351.776367188 188 l 1,13,-1
 373 322 l 1,14,-1
 212 322 l 1,15,-1
 224.829101562 403 l 1,16,-1
 466.829101562 403 l 1,17,-1
 403 0 l 1,18,-1
 322 0 l 1,19,-1
 334.829101562 81 l 1,20,-1
 242 0 l 1,21,-1
 134 0 l 1,0,-1
EndSplineSet
EndChar

StartChar: H
Encoding: 72 72 43
Width: 537
GlyphClass: 2
Flags: MW
LayerCount: 2
Fore
SplineSet
0 0 m 1,0,-1
 114.829101562 725 l 1,1,-1
 195.829101562 725 l 1,2,-1
 145.779296875 409 l 1,3,-1
 386.779296875 409 l 1,4,-1
 436.829101562 725 l 1,5,-1
 517.829101562 725 l 1,6,-1
 403 0 l 1,7,-1
 322 0 l 1,8,-1
 373.950195312 328 l 1,9,-1
 132.950195312 328 l 1,10,-1
 81 0 l 1,11,-1
 0 0 l 1,0,-1
EndSplineSet
EndChar

StartChar: I
Encoding: 73 73 44
Width: 537
GlyphClass: 2
Flags: MW
LayerCount: 2
Fore
SplineSet
54 0 m 1,0,-1
 66.8291015625 81 l 1,1,-1
 173.829101562 81 l 1,2,-1
 263.158203125 645 l 1,3,-1
 156.158203125 645 l 1,4,-1
 168.829101562 725 l 1,5,-1
 463.829101562 725 l 1,6,-1
 451.158203125 645 l 1,7,-1
 344.158203125 645 l 1,8,-1
 254.829101562 81 l 1,9,-1
 361.829101562 81 l 1,10,-1
 349 0 l 1,11,-1
 54 0 l 1,0,-1
EndSplineSet
EndChar

StartChar: J
Encoding: 74 74 45
Width: 537
GlyphClass: 2
Flags: MW
LayerCount: 2
Fore
SplineSet
134 0 m 1,0,-1
 21.2236328125 134 l 1,1,-1
 83.7763671875 188 l 1,2,-1
 173.829101562 81 l 1,3,-1
 254.829101562 81 l 1,4,-1
 347.5 161 l 1,5,-1
 436.829101562 725 l 1,6,-1
 517.829101562 725 l 1,7,-1
 424.223632812 134 l 1,8,-1
 269 0 l 1,9,-1
 134 0 l 1,0,-1
EndSplineSet
EndChar

StartChar: K
Encoding: 75 75 46
Width: 537
GlyphClass: 2
Flags: MW
LayerCount: 2
Fore
SplineSet
0 0 m 1,0,-1
 114.829101562 725 l 1,1,-1
 195.829101562 725 l 1,2,-1
 145.462890625 407 l 1,3,-1
 239.462890625 407 l 1,4,-1
 450.829101562 725 l 1,5,-1
 463.829101562 725 l 1,6,-1
 513.552734375 698 l 1,7,-1
 293.126953125 367 l 1,8,-1
 407.276367188 27 l 1,9,-1
 349 0 l 1,10,-1
 336 0 l 1,11,-1
 226.633789062 326 l 1,12,-1
 132.633789062 326 l 1,13,-1
 81 0 l 1,14,-1
 0 0 l 1,0,-1
EndSplineSet
EndChar

StartChar: L
Encoding: 76 76 47
Width: 537
GlyphClass: 2
Flags: MW
LayerCount: 2
Fore
SplineSet
0 0 m 1,0,-1
 114.829101562 725 l 1,1,-1
 195.829101562 725 l 1,2,-1
 93.8291015625 81 l 1,3,-1
 415.829101562 81 l 1,4,-1
 403 0 l 1,5,-1
 0 0 l 1,0,-1
EndSplineSet
EndChar

StartChar: M
Encoding: 77 77 48
Width: 537
GlyphClass: 2
Flags: MW
LayerCount: 2
Fore
SplineSet
0 0 m 1,0,-1
 114.829101562 725 l 1,1,-1
 181.829101562 725 l 1,2,-1
 273.381835938 457 l 1,3,-1
 450.829101562 725 l 1,4,-1
 517.829101562 725 l 1,5,-1
 403 0 l 1,6,-1
 322 0 l 1,7,-1
 407.052734375 537 l 1,8,-1
 283.276367188 349 l 1,9,-1
 230.276367188 349 l 1,10,-1
 166.052734375 537 l 1,11,-1
 81 0 l 1,12,-1
 0 0 l 1,0,-1
EndSplineSet
EndChar

StartChar: N
Encoding: 78 78 49
Width: 537
GlyphClass: 2
Flags: MW
LayerCount: 2
Fore
SplineSet
0 0 m 1,0,-1
 114.829101562 725 l 1,1,-1
 181.829101562 725 l 1,2,-1
 356.052734375 215 l 1,3,-1
 436.829101562 725 l 1,4,-1
 517.829101562 725 l 1,5,-1
 403 0 l 1,6,-1
 349 0 l 1,7,-1
 166.052734375 537 l 1,8,-1
 81 0 l 1,9,-1
 0 0 l 1,0,-1
EndSplineSet
EndChar

StartChar: O
Encoding: 79 79 50
Width: 537
GlyphClass: 2
Flags: MW
LayerCount: 2
Fore
SplineSet
134 0 m 1,0,-1
 21.2236328125 134 l 1,1,-1
 93.60546875 591 l 1,2,-1
 248.829101562 725 l 1,3,-1
 383.829101562 725 l 1,4,-1
 496.60546875 591 l 1,5,-1
 424.223632812 134 l 1,6,-1
 269 0 l 1,7,-1
 134 0 l 1,0,-1
254.829101562 81 m 1,8,-1
 347.5 161 l 1,9,-1
 411.329101562 564 l 1,10,-1
 344.158203125 645 l 1,11,-1
 263.158203125 645 l 1,12,-1
 170.329101562 564 l 1,13,-1
 106.5 161 l 1,14,-1
 173.829101562 81 l 1,15,-1
 254.829101562 81 l 1,8,-1
EndSplineSet
EndChar

StartChar: P
Encoding: 80 80 51
Width: 537
GlyphClass: 2
Flags: MW
LayerCount: 2
Fore
SplineSet
0 0 m 1,0,-1
 114.829101562 725 l 1,1,-1
 383.829101562 725 l 1,2,-1
 496.60546875 591 l 1,3,-1
 475.381835938 457 l 1,4,-1
 320 322 l 1,5,-1
 132 322 l 1,6,-1
 81 0 l 1,7,-1
 0 0 l 1,0,-1
305.829101562 403 m 1,8,-1
 398.5 483 l 1,9,-1
 411.329101562 564 l 1,10,-1
 344.158203125 645 l 1,11,-1
 183.158203125 645 l 1,12,-1
 144.829101562 403 l 1,13,-1
 305.829101562 403 l 1,8,-1
EndSplineSet
EndChar

StartChar: Q
Encoding: 81 81 52
Width: 537
GlyphClass: 2
Flags: MW
LayerCount: 2
Fore
SplineSet
315.334960938 40 m 1,0,-1
 269 0 l 1,1,-1
 134 0 l 1,2,-1
 21.2236328125 134 l 1,3,-1
 93.60546875 591 l 1,4,-1
 248.829101562 725 l 1,5,-1
 383.829101562 725 l 1,6,-1
 496.60546875 591 l 1,7,-1
 424.223632812 134 l 1,8,-1
 377.887695312 94 l 1,9,-1
 457 0 l 1,10,-1
 394.447265625 -54 l 1,11,-1
 315.334960938 40 l 1,0,-1
332.440429688 148 m 1,12,-1
 347.5 161 l 1,13,-1
 411.329101562 564 l 1,14,-1
 344.158203125 645 l 1,15,-1
 263.158203125 645 l 1,16,-1
 170.329101562 564 l 1,17,-1
 106.5 161 l 1,18,-1
 173.829101562 81 l 1,19,-1
 254.829101562 81 l 1,20,-1
 269.887695312 94 l 1,21,-1
 190.776367188 188 l 1,22,-1
 253.329101562 242 l 1,23,-1
 332.440429688 148 l 1,12,-1
EndSplineSet
EndChar

StartChar: R
Encoding: 82 82 53
Width: 537
GlyphClass: 2
Flags: MW
LayerCount: 2
Fore
SplineSet
0 0 m 1,0,-1
 114.829101562 725 l 1,1,-1
 383.829101562 725 l 1,2,-1
 496.60546875 591 l 1,3,-1
 475.381835938 457 l 1,4,-1
 320.633789062 326 l 1,5,-1
 306.633789062 326 l 1,6,-1
 407.276367188 27 l 1,7,-1
 349 0 l 1,8,-1
 336 0 l 1,9,-1
 226.633789062 326 l 1,10,-1
 132.633789062 326 l 1,11,-1
 81 0 l 1,12,-1
 0 0 l 1,0,-1
306.462890625 407 m 1,13,-1
 398.5 483 l 1,14,-1
 411.329101562 564 l 1,15,-1
 344.158203125 645 l 1,16,-1
 183.158203125 645 l 1,17,-1
 145.462890625 407 l 1,18,-1
 306.462890625 407 l 1,13,-1
EndSplineSet
EndChar

StartChar: S
Encoding: 83 83 54
Width: 537
GlyphClass: 2
Flags: MW
LayerCount: 2
Fore
SplineSet
134 0 m 1,0,-1
 21.2236328125 134 l 1,1,-1
 83.7763671875 188 l 1,2,-1
 173.829101562 81 l 1,3,-1
 254.829101562 81 l 1,4,-1
 347.5 161 l 1,5,-1
 360.962890625 246 l 1,6,-1
 294.7421875 333 l 1,7,-1
 187.05859375 335 l 1,8,-1
 73.490234375 464 l 1,9,-1
 93.60546875 591 l 1,10,-1
 248.829101562 725 l 1,11,-1
 383.829101562 725 l 1,12,-1
 496.60546875 591 l 1,13,-1
 434.052734375 537 l 1,14,-1
 344.158203125 645 l 1,15,-1
 263.158203125 645 l 1,16,-1
 170.329101562 564 l 1,17,-1
 158.924804688 492 l 1,18,-1
 226.887695312 416 l 1,19,-1
 334.571289062 414 l 1,20,-1
 446.239257812 273 l 1,21,-1
 424.223632812 134 l 1,22,-1
 269 0 l 1,23,-1
 134 0 l 1,0,-1
EndSplineSet
EndChar

StartChar: T
Encoding: 84 84 55
Width: 537
GlyphClass: 2
Flags: MW
LayerCount: 2
Fore
SplineSet
161 0 m 1,0,-1
 263.158203125 645 l 1,1,-1
 102.158203125 645 l 1,2,-1
 114.829101562 725 l 1,3,-1
 517.829101562 725 l 1,4,-1
 505.158203125 645 l 1,5,-1
 344.158203125 645 l 1,6,-1
 242 0 l 1,7,-1
 161 0 l 1,0,-1
EndSplineSet
EndChar

StartChar: U
Encoding: 85 85 56
Width: 537
GlyphClass: 2
Flags: MW
LayerCount: 2
Fore
SplineSet
134 0 m 1,0,-1
 21.2236328125 134 l 1,1,-1
 114.829101562 725 l 1,2,-1
 195.829101562 725 l 1,3,-1
 106.5 161 l 1,4,-1
 173.829101562 81 l 1,5,-1
 254.829101562 81 l 1,6,-1
 347.5 161 l 1,7,-1
 436.829101562 725 l 1,8,-1
 517.829101562 725 l 1,9,-1
 424.223632812 134 l 1,10,-1
 269 0 l 1,11,-1
 134 0 l 1,0,-1
EndSplineSet
EndChar

StartChar: V
Encoding: 86 86 57
Width: 537
GlyphClass: 2
Flags: MW
LayerCount: 2
Fore
SplineSet
175 0 m 1,0,-1
 55.2763671875 349 l 1,1,-1
 114.829101562 725 l 1,2,-1
 195.829101562 725 l 1,3,-1
 136.276367188 349 l 1,4,-1
 217.947265625 107 l 1,5,-1
 377.276367188 349 l 1,6,-1
 436.829101562 725 l 1,7,-1
 517.829101562 725 l 1,8,-1
 458.276367188 349 l 1,9,-1
 228 0 l 1,10,-1
 175 0 l 1,0,-1
EndSplineSet
EndChar

StartChar: W
Encoding: 87 87 58
Width: 537
GlyphClass: 2
Flags: MW
LayerCount: 2
Fore
SplineSet
0 0 m 1,0,-1
 114.829101562 725 l 1,1,-1
 195.829101562 725 l 1,2,-1
 110.776367188 188 l 1,3,-1
 234.552734375 376 l 1,4,-1
 287.552734375 376 l 1,5,-1
 351.776367188 188 l 1,6,-1
 436.829101562 725 l 1,7,-1
 517.829101562 725 l 1,8,-1
 403 0 l 1,9,-1
 336 0 l 1,10,-1
 243.60546875 269 l 1,11,-1
 67 0 l 1,12,-1
 0 0 l 1,0,-1
EndSplineSet
EndChar

StartChar: X
Encoding: 88 88 59
Width: 537
GlyphClass: 2
Flags: MW
LayerCount: 2
Fore
SplineSet
54 0 m 1,0,-1
 4.2763671875 27 l 1,1,-1
 216.276367188 349 l 1,2,-1
 220.552734375 376 l 1,3,-1
 110.552734375 698 l 1,4,-1
 168.829101562 725 l 1,5,-1
 181.829101562 725 l 1,6,-1
 273.381835938 457 l 1,7,-1
 450.829101562 725 l 1,8,-1
 463.829101562 725 l 1,9,-1
 513.552734375 698 l 1,10,-1
 301.552734375 376 l 1,11,-1
 297.276367188 349 l 1,12,-1
 407.276367188 27 l 1,13,-1
 349 0 l 1,14,-1
 336 0 l 1,15,-1
 243.60546875 269 l 1,16,-1
 67 0 l 1,17,-1
 54 0 l 1,0,-1
EndSplineSet
EndChar

StartChar: Y
Encoding: 89 89 60
Width: 537
GlyphClass: 2
Flags: MW
LayerCount: 2
Fore
SplineSet
161 0 m 1,0,-1
 220.552734375 376 l 1,1,-1
 110.552734375 698 l 1,2,-1
 168.829101562 725 l 1,3,-1
 181.829101562 725 l 1,4,-1
 273.381835938 457 l 1,5,-1
 450.829101562 725 l 1,6,-1
 463.829101562 725 l 1,7,-1
 513.552734375 698 l 1,8,-1
 301.552734375 376 l 1,9,-1
 242 0 l 1,10,-1
 161 0 l 1,0,-1
EndSplineSet
EndChar

StartChar: Z
Encoding: 90 90 61
Width: 537
GlyphClass: 2
Flags: MW
LayerCount: 2
Fore
SplineSet
0 0 m 1,0,-1
 8.552734375 54 l 1,1,-1
 397.158203125 645 l 1,2,-1
 102.158203125 645 l 1,3,-1
 114.829101562 725 l 1,4,-1
 517.829101562 725 l 1,5,-1
 513.552734375 698 l 1,6,-1
 106.829101562 81 l 1,7,-1
 415.829101562 81 l 1,8,-1
 403 0 l 1,9,-1
 0 0 l 1,0,-1
EndSplineSet
EndChar

StartChar: bracketleft
Encoding: 91 91 62
Width: 537
GlyphClass: 2
Flags: MW
LayerCount: 2
Fore
SplineSet
32.7763671875 -134 m 1,0,-1
 181.658203125 806 l 1,1,-1
 449.658203125 806 l 1,2,-1
 436.829101562 725 l 1,3,-1
 248.829101562 725 l 1,4,-1
 125.447265625 -54 l 1,5,-1
 313.447265625 -54 l 1,6,-1
 300.776367188 -134 l 1,7,-1
 32.7763671875 -134 l 1,0,-1
EndSplineSet
EndChar

StartChar: backslash
Encoding: 92 92 63
Width: 537
GlyphClass: 2
Flags: MW
LayerCount: 2
Fore
SplineSet
372.052734375 -107 m 1,0,-1
 87.8291015625 725 l 1,1,-1
 146.10546875 752 l 1,2,-1
 159.10546875 752 l 1,3,-1
 444.170898438 -81 l 1,4,-1
 386.052734375 -107 l 1,5,-1
 372.052734375 -107 l 1,0,-1
EndSplineSet
EndChar

StartChar: bracketright
Encoding: 93 93 64
Width: 537
GlyphClass: 2
Flags: MW
LayerCount: 2
Fore
SplineSet
5.7763671875 -134 m 1,0,-1
 18.447265625 -54 l 1,1,-1
 206.447265625 -54 l 1,2,-1
 329.829101562 725 l 1,3,-1
 141.829101562 725 l 1,4,-1
 154.658203125 806 l 1,5,-1
 422.658203125 806 l 1,6,-1
 273.776367188 -134 l 1,7,-1
 5.7763671875 -134 l 1,0,-1
EndSplineSet
EndChar

StartChar: asciicircum
Encoding: 94 94 65
Width: 537
GlyphClass: 2
Flags: MW
LayerCount: 2
Fore
SplineSet
109.276367188 349 m 1,0,-1
 59.552734375 376 l 1,1,-1
 289.829101562 725 l 1,2,-1
 342.829101562 725 l 1,3,-1
 462.552734375 376 l 1,4,-1
 404.276367188 349 l 1,5,-1
 391.276367188 349 l 1,6,-1
 298.881835938 618 l 1,7,-1
 122.276367188 349 l 1,8,-1
 109.276367188 349 l 1,0,-1
EndSplineSet
EndChar

StartChar: underscore
Encoding: 95 95 66
Width: 537
GlyphClass: 2
Flags: MW
LayerCount: 2
Fore
SplineSet
-43.947265625 -107 m 1,0,-1
 -31.2763671875 -27 l 1,1,-1
 478.723632812 -27 l 1,2,-1
 466.052734375 -107 l 1,3,-1
 -43.947265625 -107 l 1,0,-1
EndSplineSet
EndChar

StartChar: grave
Encoding: 96 96 67
Width: 537
GlyphClass: 2
Flags: MW
LayerCount: 2
Fore
SplineSet
273.381835938 457 m 1,0,-1
 191.552734375 698 l 1,1,-1
 248.829101562 725 l 1,2,-1
 262.829101562 725 l 1,3,-1
 345.5 483 l 1,4,-1
 287.381835938 457 l 1,5,-1
 273.381835938 457 l 1,0,-1
EndSplineSet
EndChar

StartChar: a
Encoding: 97 97 68
Width: 537
GlyphClass: 2
Flags: MW
LayerCount: 2
Fore
SplineSet
134 0 m 1,0,-1
 21.2236328125 134 l 1,1,-1
 34.052734375 215 l 1,2,-1
 189.276367188 349 l 1,3,-1
 377.276367188 349 l 1,4,-1
 385.829101562 403 l 1,5,-1
 318.5 483 l 1,6,-1
 237.5 483 l 1,7,-1
 113.552734375 376 l 1,8,-1
 68.10546875 430 l 1,9,-1
 223.329101562 564 l 1,10,-1
 358.329101562 564 l 1,11,-1
 471.10546875 430 l 1,12,-1
 403 0 l 1,13,-1
 322 0 l 1,14,-1
 334.829101562 81 l 1,15,-1
 242 0 l 1,16,-1
 134 0 l 1,0,-1
227.829101562 81 m 1,17,-1
 351.776367188 188 l 1,18,-1
 364.60546875 269 l 1,19,-1
 203.60546875 269 l 1,20,-1
 110.776367188 188 l 1,21,-1
 106.5 161 l 1,22,-1
 173.829101562 81 l 1,23,-1
 227.829101562 81 l 1,17,-1
EndSplineSet
EndChar

StartChar: b
Encoding: 98 98 69
Width: 537
GlyphClass: 2
Flags: MW
LayerCount: 2
Fore
SplineSet
0 0 m 1,0,-1
 114.829101562 725 l 1,1,-1
 195.829101562 725 l 1,2,-1
 157.5 483 l 1,3,-1
 250.329101562 564 l 1,4,-1
 358.329101562 564 l 1,5,-1
 471.10546875 430 l 1,6,-1
 424.223632812 134 l 1,7,-1
 269 0 l 1,8,-1
 134 0 l 1,9,-1
 89.552734375 54 l 1,10,-1
 81 0 l 1,11,-1
 0 0 l 1,0,-1
254.829101562 81 m 1,12,-1
 347.5 161 l 1,13,-1
 385.829101562 403 l 1,14,-1
 318.5 483 l 1,15,-1
 264.5 483 l 1,16,-1
 140.552734375 376 l 1,17,-1
 106.5 161 l 1,18,-1
 173.829101562 81 l 1,19,-1
 254.829101562 81 l 1,12,-1
EndSplineSet
EndChar

StartChar: c
Encoding: 99 99 70
Width: 537
GlyphClass: 2
Flags: MW
LayerCount: 2
Fore
SplineSet
134 0 m 1,0,-1
 21.2236328125 134 l 1,1,-1
 68.10546875 430 l 1,2,-1
 223.329101562 564 l 1,3,-1
 358.329101562 564 l 1,4,-1
 471.10546875 430 l 1,5,-1
 408.552734375 376 l 1,6,-1
 318.5 483 l 1,7,-1
 237.5 483 l 1,8,-1
 144.829101562 403 l 1,9,-1
 106.5 161 l 1,10,-1
 173.829101562 81 l 1,11,-1
 254.829101562 81 l 1,12,-1
 378.776367188 188 l 1,13,-1
 424.223632812 134 l 1,14,-1
 269 0 l 1,15,-1
 134 0 l 1,0,-1
EndSplineSet
EndChar

StartChar: d
Encoding: 100 100 71
Width: 537
GlyphClass: 2
Flags: MW
LayerCount: 2
Fore
SplineSet
134 0 m 1,0,-1
 21.2236328125 134 l 1,1,-1
 68.10546875 430 l 1,2,-1
 223.329101562 564 l 1,3,-1
 358.329101562 564 l 1,4,-1
 402.776367188 510 l 1,5,-1
 436.829101562 725 l 1,6,-1
 517.829101562 725 l 1,7,-1
 403 0 l 1,8,-1
 322 0 l 1,9,-1
 334.829101562 81 l 1,10,-1
 242 0 l 1,11,-1
 134 0 l 1,0,-1
227.829101562 81 m 1,12,-1
 351.776367188 188 l 1,13,-1
 385.829101562 403 l 1,14,-1
 318.5 483 l 1,15,-1
 237.5 483 l 1,16,-1
 144.829101562 403 l 1,17,-1
 106.5 161 l 1,18,-1
 173.829101562 81 l 1,19,-1
 227.829101562 81 l 1,12,-1
EndSplineSet
EndChar

StartChar: e
Encoding: 101 101 72
Width: 537
GlyphClass: 2
Flags: MW
LayerCount: 2
Fore
SplineSet
134 0 m 1,0,-1
 21.2236328125 134 l 1,1,-1
 68.10546875 430 l 1,2,-1
 223.329101562 564 l 1,3,-1
 358.329101562 564 l 1,4,-1
 471.10546875 430 l 1,5,-1
 441.329101562 242 l 1,6,-1
 119.329101562 242 l 1,7,-1
 106.5 161 l 1,8,-1
 173.829101562 81 l 1,9,-1
 254.829101562 81 l 1,10,-1
 378.776367188 188 l 1,11,-1
 424.223632812 134 l 1,12,-1
 269 0 l 1,13,-1
 134 0 l 1,0,-1
373 322 m 1,14,-1
 385.829101562 403 l 1,15,-1
 318.5 483 l 1,16,-1
 237.5 483 l 1,17,-1
 144.829101562 403 l 1,18,-1
 132 322 l 1,19,-1
 373 322 l 1,14,-1
EndSplineSet
EndChar

StartChar: f
Encoding: 102 102 73
Width: 537
GlyphClass: 2
Flags: MW
LayerCount: 2
Fore
SplineSet
81 0 m 1,0,-1
 144.829101562 403 l 1,1,-1
 63.8291015625 403 l 1,2,-1
 76.5 483 l 1,3,-1
 157.5 483 l 1,4,-1
 178.881835938 618 l 1,5,-1
 302.829101562 725 l 1,6,-1
 409.829101562 725 l 1,7,-1
 500.881835938 618 l 1,8,-1
 438.329101562 564 l 1,9,-1
 371.158203125 645 l 1,10,-1
 317.158203125 645 l 1,11,-1
 254.60546875 591 l 1,12,-1
 237.5 483 l 1,13,-1
 398.5 483 l 1,14,-1
 385.829101562 403 l 1,15,-1
 224.829101562 403 l 1,16,-1
 161 0 l 1,17,-1
 81 0 l 1,0,-1
EndSplineSet
EndChar

StartChar: g
Encoding: 103 103 74
Width: 537
GlyphClass: 2
Flags: MW
LayerCount: 2
Fore
SplineSet
80.5498046875 -167 m 1,0,-1
 -8.552734375 -54 l 1,1,-1
 54 0 l 1,2,-1
 120.220703125 -87 l 1,3,-1
 255.220703125 -87 l 1,4,-1
 317.723632812 -27 l 1,5,-1
 334.829101562 81 l 1,6,-1
 242 0 l 1,7,-1
 134 0 l 1,8,-1
 21.2236328125 134 l 1,9,-1
 68.10546875 430 l 1,10,-1
 223.329101562 564 l 1,11,-1
 358.329101562 564 l 1,12,-1
 402.776367188 510 l 1,13,-1
 411.329101562 564 l 1,14,-1
 492.329101562 564 l 1,15,-1
 394.447265625 -54 l 1,16,-1
 268.549804688 -167 l 1,17,-1
 80.5498046875 -167 l 1,0,-1
227.829101562 81 m 1,18,-1
 351.776367188 188 l 1,19,-1
 385.829101562 403 l 1,20,-1
 318.5 483 l 1,21,-1
 237.5 483 l 1,22,-1
 144.829101562 403 l 1,23,-1
 106.5 161 l 1,24,-1
 173.829101562 81 l 1,25,-1
 227.829101562 81 l 1,18,-1
EndSplineSet
EndChar

StartChar: h
Encoding: 104 104 75
Width: 537
GlyphClass: 2
Flags: MW
LayerCount: 2
Fore
SplineSet
0 0 m 1,0,-1
 114.829101562 725 l 1,1,-1
 195.829101562 725 l 1,2,-1
 157.5 483 l 1,3,-1
 250.329101562 564 l 1,4,-1
 358.329101562 564 l 1,5,-1
 471.10546875 430 l 1,6,-1
 403 0 l 1,7,-1
 322 0 l 1,8,-1
 385.829101562 403 l 1,9,-1
 318.5 483 l 1,10,-1
 264.5 483 l 1,11,-1
 140.552734375 376 l 1,12,-1
 81 0 l 1,13,-1
 0 0 l 1,0,-1
EndSplineSet
EndChar

StartChar: i
Encoding: 105 105 76
Width: 537
GlyphClass: 2
Flags: MW
LayerCount: 2
Fore
SplineSet
263.158203125 645 m 1,0,-1
 275.829101562 725 l 1,1,-1
 356.829101562 725 l 1,2,-1
 344.158203125 645 l 1,3,-1
 263.158203125 645 l 1,0,-1
81 0 m 1,4,-1
 93.8291015625 81 l 1,5,-1
 173.829101562 81 l 1,6,-1
 237.5 483 l 1,7,-1
 130.5 483 l 1,8,-1
 143.329101562 564 l 1,9,-1
 331.329101562 564 l 1,10,-1
 254.829101562 81 l 1,11,-1
 334.829101562 81 l 1,12,-1
 322 0 l 1,13,-1
 81 0 l 1,4,-1
EndSplineSet
EndChar

StartChar: j
Encoding: 106 106 77
Width: 537
GlyphClass: 2
Flags: MW
LayerCount: 2
Fore
SplineSet
344.158203125 645 m 1,0,-1
 356.829101562 725 l 1,1,-1
 436.829101562 725 l 1,2,-1
 424.158203125 645 l 1,3,-1
 344.158203125 645 l 1,0,-1
81.5 -161 m 1,4,-1
 -8.552734375 -54 l 1,5,-1
 54 0 l 1,6,-1
 121.170898438 -81 l 1,7,-1
 175.170898438 -81 l 1,8,-1
 237.723632812 -27 l 1,9,-1
 318.5 483 l 1,10,-1
 237.5 483 l 1,11,-1
 250.329101562 564 l 1,12,-1
 411.329101562 564 l 1,13,-1
 313.447265625 -54 l 1,14,-1
 189.5 -161 l 1,15,-1
 81.5 -161 l 1,4,-1
EndSplineSet
EndChar

StartChar: k
Encoding: 107 107 78
Width: 537
GlyphClass: 2
Flags: MW
LayerCount: 2
Fore
SplineSet
0 0 m 1,0,-1
 114.829101562 725 l 1,1,-1
 195.829101562 725 l 1,2,-1
 132.633789062 326 l 1,3,-1
 266.633789062 326 l 1,4,-1
 425.329101562 564 l 1,5,-1
 438.329101562 564 l 1,6,-1
 488.052734375 537 l 1,7,-1
 320.297851562 286 l 1,8,-1
 407.276367188 27 l 1,9,-1
 349 0 l 1,10,-1
 336 0 l 1,11,-1
 253.962890625 246 l 1,12,-1
 119.962890625 246 l 1,13,-1
 81 0 l 1,14,-1
 0 0 l 1,0,-1
EndSplineSet
EndChar

StartChar: l
Encoding: 108 108 79
Width: 537
GlyphClass: 2
Flags: MW
LayerCount: 2
Fore
SplineSet
81 0 m 1,0,-1
 93.8291015625 81 l 1,1,-1
 173.829101562 81 l 1,2,-1
 263.158203125 645 l 1,3,-1
 156.158203125 645 l 1,4,-1
 168.829101562 725 l 1,5,-1
 275.829101562 725 l 1,6,-1
 344.158203125 645 l 1,7,-1
 254.829101562 81 l 1,8,-1
 334.829101562 81 l 1,9,-1
 322 0 l 1,10,-1
 81 0 l 1,0,-1
EndSplineSet
EndChar

StartChar: m
Encoding: 109 109 80
Width: 537
GlyphClass: 2
Flags: MW
LayerCount: 2
Fore
SplineSet
0 0 m 1,0,-1
 89.3291015625 564 l 1,1,-1
 170.329101562 564 l 1,2,-1
 161.776367188 510 l 1,3,-1
 223.329101562 564 l 1,4,-1
 250.329101562 564 l 1,5,-1
 303.776367188 510 l 1,6,-1
 366.329101562 564 l 1,7,-1
 392.329101562 564 l 1,8,-1
 483.381835938 457 l 1,9,-1
 411 0 l 1,10,-1
 330 0 l 1,11,-1
 398.10546875 430 l 1,12,-1
 353.5 483 l 1,13,-1
 316.5 483 l 1,14,-1
 240 0 l 1,15,-1
 183 0 l 1,16,-1
 255.381835938 457 l 1,17,-1
 224.5 483 l 1,18,-1
 157.5 483 l 1,19,-1
 81 0 l 1,20,-1
 0 0 l 1,0,-1
EndSplineSet
EndChar

StartChar: n
Encoding: 110 110 81
Width: 537
GlyphClass: 2
Flags: MW
LayerCount: 2
Fore
SplineSet
0 0 m 1,0,-1
 89.3291015625 564 l 1,1,-1
 170.329101562 564 l 1,2,-1
 157.5 483 l 1,3,-1
 250.329101562 564 l 1,4,-1
 358.329101562 564 l 1,5,-1
 471.10546875 430 l 1,6,-1
 403 0 l 1,7,-1
 322 0 l 1,8,-1
 385.829101562 403 l 1,9,-1
 318.5 483 l 1,10,-1
 264.5 483 l 1,11,-1
 140.552734375 376 l 1,12,-1
 81 0 l 1,13,-1
 0 0 l 1,0,-1
EndSplineSet
EndChar

StartChar: o
Encoding: 111 111 82
Width: 537
GlyphClass: 2
Flags: MW
LayerCount: 2
Fore
SplineSet
134 0 m 1,0,-1
 21.2236328125 134 l 1,1,-1
 68.10546875 430 l 1,2,-1
 223.329101562 564 l 1,3,-1
 358.329101562 564 l 1,4,-1
 471.10546875 430 l 1,5,-1
 424.223632812 134 l 1,6,-1
 269 0 l 1,7,-1
 134 0 l 1,0,-1
254.829101562 81 m 1,8,-1
 347.5 161 l 1,9,-1
 385.829101562 403 l 1,10,-1
 318.5 483 l 1,11,-1
 237.5 483 l 1,12,-1
 144.829101562 403 l 1,13,-1
 106.5 161 l 1,14,-1
 173.829101562 81 l 1,15,-1
 254.829101562 81 l 1,8,-1
EndSplineSet
EndChar

StartChar: p
Encoding: 112 112 83
Width: 537
GlyphClass: 2
Flags: MW
LayerCount: 2
Fore
SplineSet
-25.5 -161 m 1,0,-1
 89.3291015625 564 l 1,1,-1
 170.329101562 564 l 1,2,-1
 157.5 483 l 1,3,-1
 250.329101562 564 l 1,4,-1
 358.329101562 564 l 1,5,-1
 471.10546875 430 l 1,6,-1
 424.223632812 134 l 1,7,-1
 269 0 l 1,8,-1
 134 0 l 1,9,-1
 89.552734375 54 l 1,10,-1
 55.5 -161 l 1,11,-1
 -25.5 -161 l 1,0,-1
254.829101562 81 m 1,12,-1
 347.5 161 l 1,13,-1
 385.829101562 403 l 1,14,-1
 318.5 483 l 1,15,-1
 264.5 483 l 1,16,-1
 140.552734375 376 l 1,17,-1
 106.5 161 l 1,18,-1
 173.829101562 81 l 1,19,-1
 254.829101562 81 l 1,12,-1
EndSplineSet
EndChar

StartChar: q
Encoding: 113 113 84
Width: 537
GlyphClass: 2
Flags: MW
LayerCount: 2
Fore
SplineSet
296.5 -161 m 1,0,-1
 334.829101562 81 l 1,1,-1
 242 0 l 1,2,-1
 134 0 l 1,3,-1
 21.2236328125 134 l 1,4,-1
 68.10546875 430 l 1,5,-1
 223.329101562 564 l 1,6,-1
 358.329101562 564 l 1,7,-1
 402.776367188 510 l 1,8,-1
 411.329101562 564 l 1,9,-1
 492.329101562 564 l 1,10,-1
 377.5 -161 l 1,11,-1
 296.5 -161 l 1,0,-1
227.829101562 81 m 1,12,-1
 351.776367188 188 l 1,13,-1
 385.829101562 403 l 1,14,-1
 318.5 483 l 1,15,-1
 237.5 483 l 1,16,-1
 144.829101562 403 l 1,17,-1
 106.5 161 l 1,18,-1
 173.829101562 81 l 1,19,-1
 227.829101562 81 l 1,12,-1
EndSplineSet
EndChar

StartChar: r
Encoding: 114 114 85
Width: 537
GlyphClass: 2
Flags: MW
LayerCount: 2
Fore
SplineSet
0 0 m 1,0,-1
 89.3291015625 564 l 1,1,-1
 170.329101562 564 l 1,2,-1
 157.5 483 l 1,3,-1
 250.329101562 564 l 1,4,-1
 358.329101562 564 l 1,5,-1
 471.10546875 430 l 1,6,-1
 408.552734375 376 l 1,7,-1
 318.5 483 l 1,8,-1
 264.5 483 l 1,9,-1
 140.552734375 376 l 1,10,-1
 81 0 l 1,11,-1
 0 0 l 1,0,-1
EndSplineSet
EndChar

StartChar: s
Encoding: 115 115 86
Width: 537
GlyphClass: 2
Flags: MW
LayerCount: 2
Fore
SplineSet
134 0 m 1,0,-1
 21.2236328125 134 l 1,1,-1
 83.7763671875 188 l 1,2,-1
 173.829101562 81 l 1,3,-1
 254.829101562 81 l 1,4,-1
 347.5 161 l 1,5,-1
 280.962890625 246 l 1,6,-1
 172.962890625 246 l 1,7,-1
 59.552734375 376 l 1,8,-1
 68.10546875 430 l 1,9,-1
 223.329101562 564 l 1,10,-1
 358.329101562 564 l 1,11,-1
 471.10546875 430 l 1,12,-1
 408.552734375 376 l 1,13,-1
 318.5 483 l 1,14,-1
 233.5 483 l 1,15,-1
 138.829101562 403 l 1,16,-1
 208.633789062 326 l 1,17,-1
 320.633789062 326 l 1,18,-1
 432.776367188 188 l 1,19,-1
 424.223632812 134 l 1,20,-1
 269 0 l 1,21,-1
 134 0 l 1,0,-1
EndSplineSet
EndChar

StartChar: t
Encoding: 116 116 87
Width: 537
GlyphClass: 2
Flags: MW
LayerCount: 2
Fore
SplineSet
188 0 m 1,0,-1
 97.947265625 107 l 1,1,-1
 155.916015625 473 l 1,2,-1
 74.916015625 473 l 1,3,-1
 87.7451171875 554 l 1,4,-1
 168.745117188 554 l 1,5,-1
 183.158203125 645 l 1,6,-1
 263.158203125 645 l 1,7,-1
 248.745117188 554 l 1,8,-1
 409.745117188 554 l 1,9,-1
 396.916015625 473 l 1,10,-1
 235.916015625 473 l 1,11,-1
 182.223632812 134 l 1,12,-1
 227.829101562 81 l 1,13,-1
 254.829101562 81 l 1,14,-1
 339.07421875 152 l 1,15,-1
 384.521484375 98 l 1,16,-1
 269 0 l 1,17,-1
 188 0 l 1,0,-1
EndSplineSet
EndChar

StartChar: u
Encoding: 117 117 88
Width: 537
GlyphClass: 2
Flags: MW
LayerCount: 2
Fore
SplineSet
134 0 m 1,0,-1
 21.2236328125 134 l 1,1,-1
 89.3291015625 564 l 1,2,-1
 170.329101562 564 l 1,3,-1
 106.5 161 l 1,4,-1
 173.829101562 81 l 1,5,-1
 227.829101562 81 l 1,6,-1
 351.776367188 188 l 1,7,-1
 411.329101562 564 l 1,8,-1
 492.329101562 564 l 1,9,-1
 403 0 l 1,10,-1
 322 0 l 1,11,-1
 334.829101562 81 l 1,12,-1
 242 0 l 1,13,-1
 134 0 l 1,0,-1
EndSplineSet
EndChar

StartChar: v
Encoding: 118 118 89
Width: 537
GlyphClass: 2
Flags: MW
LayerCount: 2
Fore
SplineSet
175 0 m 1,0,-1
 55.2763671875 349 l 1,1,-1
 89.3291015625 564 l 1,2,-1
 170.329101562 564 l 1,3,-1
 136.276367188 349 l 1,4,-1
 217.947265625 107 l 1,5,-1
 377.276367188 349 l 1,6,-1
 411.329101562 564 l 1,7,-1
 492.329101562 564 l 1,8,-1
 458.276367188 349 l 1,9,-1
 228 0 l 1,10,-1
 175 0 l 1,0,-1
EndSplineSet
EndChar

StartChar: w
Encoding: 119 119 90
Width: 537
GlyphClass: 2
Flags: MW
LayerCount: 2
Fore
SplineSet
0 0 m 1,0,-1
 89.3291015625 564 l 1,1,-1
 170.329101562 564 l 1,2,-1
 110.776367188 188 l 1,3,-1
 234.552734375 376 l 1,4,-1
 287.552734375 376 l 1,5,-1
 351.776367188 188 l 1,6,-1
 411.329101562 564 l 1,7,-1
 492.329101562 564 l 1,8,-1
 403 0 l 1,9,-1
 336 0 l 1,10,-1
 243.60546875 269 l 1,11,-1
 67 0 l 1,12,-1
 0 0 l 1,0,-1
EndSplineSet
EndChar

StartChar: x
Encoding: 120 120 91
Width: 537
GlyphClass: 2
Flags: MW
LayerCount: 2
Fore
SplineSet
54 0 m 1,0,-1
 4.2763671875 27 l 1,1,-1
 172.6640625 282 l 1,2,-1
 85.052734375 537 l 1,3,-1
 143.329101562 564 l 1,4,-1
 156.329101562 564 l 1,5,-1
 239 322 l 1,6,-1
 266 322 l 1,7,-1
 425.329101562 564 l 1,8,-1
 438.329101562 564 l 1,9,-1
 488.052734375 537 l 1,10,-1
 319.6640625 282 l 1,11,-1
 407.276367188 27 l 1,12,-1
 349 0 l 1,13,-1
 336 0 l 1,14,-1
 253.329101562 242 l 1,15,-1
 226.329101562 242 l 1,16,-1
 67 0 l 1,17,-1
 54 0 l 1,0,-1
EndSplineSet
EndChar

StartChar: y
Encoding: 121 121 92
Width: 537
GlyphClass: 2
Flags: MW
LayerCount: 2
Fore
SplineSet
108.5 -161 m 1,0,-1
 59.7763671875 -134 l 1,1,-1
 165.276367188 27 l 1,2,-1
 55.2763671875 349 l 1,3,-1
 89.3291015625 564 l 1,4,-1
 170.329101562 564 l 1,5,-1
 136.276367188 349 l 1,6,-1
 217.947265625 107 l 1,7,-1
 377.276367188 349 l 1,8,-1
 411.329101562 564 l 1,9,-1
 492.329101562 564 l 1,10,-1
 458.276367188 349 l 1,11,-1
 122.5 -161 l 1,12,-1
 108.5 -161 l 1,0,-1
EndSplineSet
EndChar

StartChar: z
Encoding: 122 122 93
Width: 537
GlyphClass: 2
Flags: MW
LayerCount: 2
Fore
SplineSet
0 0 m 1,0,-1
 21.2236328125 134 l 1,1,-1
 394.381835938 457 l 1,2,-1
 398.5 483 l 1,3,-1
 76.5 483 l 1,4,-1
 89.3291015625 564 l 1,5,-1
 492.329101562 564 l 1,6,-1
 471.10546875 430 l 1,7,-1
 97.947265625 107 l 1,8,-1
 93.8291015625 81 l 1,9,-1
 415.829101562 81 l 1,10,-1
 403 0 l 1,11,-1
 0 0 l 1,0,-1
EndSplineSet
EndChar

StartChar: braceleft
Encoding: 123 123 94
Width: 537
GlyphClass: 2
Flags: MW
LayerCount: 2
Fore
SplineSet
161 0 m 1,0,-1
 203.60546875 269 l 1,1,-1
 180.723632812 295 l 1,2,-1
 73.7236328125 295 l 1,3,-1
 95.10546875 430 l 1,4,-1
 202.10546875 430 l 1,5,-1
 233.381835938 457 l 1,6,-1
 267.276367188 671 l 1,7,-1
 453.934570312 833 l 1,8,-1
 499.381835938 779 l 1,9,-1
 344.158203125 645 l 1,10,-1
 310.10546875 430 l 1,11,-1
 256.10546875 430 l 1,12,-1
 224.829101562 403 l 1,13,-1
 212 322 l 1,14,-1
 234.723632812 295 l 1,15,-1
 288.723632812 295 l 1,16,-1
 246.276367188 27 l 1,17,-1
 359.052734375 -107 l 1,18,-1
 296.5 -161 l 1,19,-1
 161 0 l 1,0,-1
EndSplineSet
EndChar

StartChar: bar
Encoding: 124 124 95
Width: 537
GlyphClass: 2
Flags: MW
LayerCount: 2
Fore
SplineSet
135.5 -161 m 1,0,-1
 292.934570312 833 l 1,1,-1
 373.934570312 833 l 1,2,-1
 216.5 -161 l 1,3,-1
 135.5 -161 l 1,0,-1
EndSplineSet
EndChar

StartChar: braceright
Encoding: 125 125 96
Width: 537
GlyphClass: 2
Flags: MW
LayerCount: 2
Fore
SplineSet
10.052734375 -107 m 1,0,-1
 165.276367188 27 l 1,1,-1
 207.723632812 295 l 1,2,-1
 261.723632812 295 l 1,3,-1
 293 322 l 1,4,-1
 305.829101562 403 l 1,5,-1
 283.10546875 430 l 1,6,-1
 229.10546875 430 l 1,7,-1
 263.158203125 645 l 1,8,-1
 150.381835938 779 l 1,9,-1
 212.934570312 833 l 1,10,-1
 348.276367188 671 l 1,11,-1
 314.381835938 457 l 1,12,-1
 337.10546875 430 l 1,13,-1
 444.10546875 430 l 1,14,-1
 422.723632812 295 l 1,15,-1
 315.723632812 295 l 1,16,-1
 284.60546875 269 l 1,17,-1
 242 0 l 1,18,-1
 55.5 -161 l 1,19,-1
 10.052734375 -107 l 1,0,-1
EndSplineSet
EndChar

StartChar: asciitilde
Encoding: 126 126 97
Width: 537
GlyphClass: 2
Flags: MW
LayerCount: 2
Fore
SplineSet
197.829101562 403 m 1,0,-1
 105 322 l 1,1,-1
 96.60546875 269 l 1,2,-1
 42.60546875 269 l 1,3,-1
 59.552734375 376 l 1,4,-1
 214.776367188 510 l 1,5,-1
 350.276367188 349 l 1,6,-1
 444.10546875 430 l 1,7,-1
 452.5 483 l 1,8,-1
 506.5 483 l 1,9,-1
 489.552734375 376 l 1,10,-1
 333.329101562 242 l 1,11,-1
 197.829101562 403 l 1,0,-1
EndSplineSet
EndChar

StartChar: exclamdown
Encoding: 161 161 98
Width: 537
GlyphClass: 2
Flags: MW
LayerCount: 2
Fore
SplineSet
202.10546875 430 m 1,0,-1
 223.329101562 564 l 1,1,-1
 358.329101562 564 l 1,2,-1
 337.10546875 430 l 1,3,-1
 202.10546875 430 l 1,0,-1
108.5 -161 m 1,4,-1
 146.829101562 81 l 1,5,-1
 226 322 l 1,6,-1
 279 322 l 1,7,-1
 281.829101562 81 l 1,8,-1
 243.5 -161 l 1,9,-1
 108.5 -161 l 1,4,-1
EndSplineSet
EndChar

StartChar: cent
Encoding: 162 162 99
Width: 537
GlyphClass: 2
Flags: MW
LayerCount: 2
Fore
SplineSet
41.1708984375 -81 m 1,0,-1
 -8.552734375 -54 l 1,1,-1
 73.2451171875 71 l 1,2,-1
 21.2236328125 134 l 1,3,-1
 68.10546875 430 l 1,4,-1
 223.329101562 564 l 1,5,-1
 358.329101562 564 l 1,6,-1
 380.052734375 537 l 1,7,-1
 433.881835938 618 l 1,8,-1
 446.881835938 618 l 1,9,-1
 496.60546875 591 l 1,10,-1
 425.5 483 l 1,11,-1
 471.10546875 430 l 1,12,-1
 408.552734375 376 l 1,13,-1
 377.095703125 411 l 1,14,-1
 165.096679688 89 l 1,15,-1
 173.829101562 81 l 1,16,-1
 254.829101562 81 l 1,17,-1
 378.776367188 188 l 1,18,-1
 424.223632812 134 l 1,19,-1
 269 0 l 1,20,-1
 134 0 l 1,21,-1
 118.692382812 17 l 1,22,-1
 54.1708984375 -81 l 1,23,-1
 41.1708984375 -81 l 1,0,-1
332.6484375 465 m 1,24,-1
 318.5 483 l 1,25,-1
 237.5 483 l 1,26,-1
 144.829101562 403 l 1,27,-1
 106.5 161 l 1,28,-1
 119.649414062 143 l 1,29,-1
 332.6484375 465 l 1,24,-1
EndSplineSet
EndChar

StartChar: sterling
Encoding: 163 163 100
Width: 537
GlyphClass: 2
Flags: MW
LayerCount: 2
Fore
SplineSet
-18.447265625 54 m 1,0,-1
 75.2236328125 134 l 1,1,-1
 105 322 l 1,2,-1
 51 322 l 1,3,-1
 63.8291015625 403 l 1,4,-1
 117.829101562 403 l 1,5,-1
 151.881835938 618 l 1,6,-1
 275.829101562 725 l 1,7,-1
 409.829101562 725 l 1,8,-1
 500.881835938 618 l 1,9,-1
 438.329101562 564 l 1,10,-1
 371.158203125 645 l 1,11,-1
 290.158203125 645 l 1,12,-1
 227.60546875 591 l 1,13,-1
 197.829101562 403 l 1,14,-1
 358.829101562 403 l 1,15,-1
 346 322 l 1,16,-1
 185 322 l 1,17,-1
 159.5 161 l 1,18,-1
 186.5 161 l 1,19,-1
 254.829101562 81 l 1,20,-1
 281.829101562 81 l 1,21,-1
 374.5 161 l 1,22,-1
 419.947265625 107 l 1,23,-1
 295 0 l 1,24,-1
 215 0 l 1,25,-1
 146.829101562 81 l 1,26,-1
 119.829101562 81 l 1,27,-1
 27 0 l 1,28,-1
 -18.447265625 54 l 1,0,-1
EndSplineSet
EndChar

StartChar: currency
Encoding: 164 164 101
Width: 537
GlyphClass: 2
Flags: MW
LayerCount: 2
Fore
SplineSet
67.716796875 175 m 1,0,-1
 34.052734375 215 l 1,1,-1
 55.2763671875 349 l 1,2,-1
 101.611328125 389 l 1,3,-1
 45.3818359375 457 l 1,4,-1
 107.776367188 510 l 1,5,-1
 164.1640625 443 l 1,6,-1
 210.5 483 l 1,7,-1
 345.5 483 l 1,8,-1
 379.1640625 443 l 1,9,-1
 456.776367188 510 l 1,10,-1
 502.381835938 457 l 1,11,-1
 424.611328125 389 l 1,12,-1
 458.276367188 349 l 1,13,-1
 437.052734375 215 l 1,14,-1
 390.716796875 175 l 1,15,-1
 446.947265625 107 l 1,16,-1
 384.552734375 54 l 1,17,-1
 328.1640625 121 l 1,18,-1
 281.829101562 81 l 1,19,-1
 146.829101562 81 l 1,20,-1
 113.1640625 121 l 1,21,-1
 35.552734375 54 l 1,22,-1
 -10.052734375 107 l 1,23,-1
 67.716796875 175 l 1,0,-1
267.5 161 m 1,24,-1
 360.329101562 242 l 1,25,-1
 373 322 l 1,26,-1
 305.829101562 403 l 1,27,-1
 224.829101562 403 l 1,28,-1
 132 322 l 1,29,-1
 119.329101562 242 l 1,30,-1
 186.5 161 l 1,31,-1
 267.5 161 l 1,24,-1
EndSplineSet
EndChar

StartChar: yen
Encoding: 165 165 102
Width: 537
GlyphClass: 2
Flags: MW
LayerCount: 2
Fore
SplineSet
161 0 m 1,0,-1
 177.947265625 107 l 1,1,-1
 43.947265625 107 l 1,2,-1
 56.7763671875 188 l 1,3,-1
 190.776367188 188 l 1,4,-1
 203.60546875 269 l 1,5,-1
 69.60546875 269 l 1,6,-1
 82.2763671875 349 l 1,7,-1
 216.276367188 349 l 1,8,-1
 220.552734375 376 l 1,9,-1
 110.552734375 698 l 1,10,-1
 168.829101562 725 l 1,11,-1
 181.829101562 725 l 1,12,-1
 273.381835938 457 l 1,13,-1
 450.829101562 725 l 1,14,-1
 463.829101562 725 l 1,15,-1
 513.552734375 698 l 1,16,-1
 301.552734375 376 l 1,17,-1
 297.276367188 349 l 1,18,-1
 431.276367188 349 l 1,19,-1
 418.60546875 269 l 1,20,-1
 284.60546875 269 l 1,21,-1
 271.776367188 188 l 1,22,-1
 405.776367188 188 l 1,23,-1
 392.947265625 107 l 1,24,-1
 258.947265625 107 l 1,25,-1
 242 0 l 1,26,-1
 161 0 l 1,0,-1
EndSplineSet
EndChar

StartChar: brokenbar
Encoding: 166 166 103
Width: 537
GlyphClass: 2
Flags: MW
LayerCount: 2
Fore
SplineSet
224.829101562 403 m 1,0,-1
 292.934570312 833 l 1,1,-1
 373.934570312 833 l 1,2,-1
 305.829101562 403 l 1,3,-1
 224.829101562 403 l 1,0,-1
135.5 -161 m 1,4,-1
 203.60546875 269 l 1,5,-1
 284.60546875 269 l 1,6,-1
 216.5 -161 l 1,7,-1
 135.5 -161 l 1,4,-1
EndSplineSet
EndChar

StartChar: section
Encoding: 167 167 104
Width: 537
GlyphClass: 2
Flags: MW
LayerCount: 2
Fore
SplineSet
108.5 -161 m 1,0,-1
 -4.2763671875 -27 l 1,1,-1
 58.2763671875 27 l 1,2,-1
 148.170898438 -81 l 1,3,-1
 229.170898438 -81 l 1,4,-1
 322 0 l 1,5,-1
 326.276367188 27 l 1,6,-1
 258.947265625 107 l 1,7,-1
 150.947265625 107 l 1,8,-1
 38.3291015625 242 l 1,9,-1
 51 322 l 1,10,-1
 144.829101562 403 l 1,11,-1
 159.887695312 416 l 1,12,-1
 80.7763671875 510 l 1,13,-1
 93.60546875 591 l 1,14,-1
 248.829101562 725 l 1,15,-1
 383.829101562 725 l 1,16,-1
 496.60546875 591 l 1,17,-1
 434.052734375 537 l 1,18,-1
 344.158203125 645 l 1,19,-1
 263.158203125 645 l 1,20,-1
 170.329101562 564 l 1,21,-1
 166.052734375 537 l 1,22,-1
 233.381835938 457 l 1,23,-1
 341.381835938 457 l 1,24,-1
 454 322 l 1,25,-1
 441.329101562 242 l 1,26,-1
 347.5 161 l 1,27,-1
 346.5 161 l 1,28,-1
 332.440429688 148 l 1,29,-1
 411.552734375 54 l 1,30,-1
 398.723632812 -27 l 1,31,-1
 243.5 -161 l 1,32,-1
 108.5 -161 l 1,0,-1
271.776367188 188 m 1,33,-1
 364.60546875 269 l 1,34,-1
 368.723632812 295 l 1,35,-1
 301.552734375 376 l 1,36,-1
 220.552734375 376 l 1,37,-1
 127.723632812 295 l 1,38,-1
 123.60546875 269 l 1,39,-1
 190.776367188 188 l 1,40,-1
 271.776367188 188 l 1,33,-1
EndSplineSet
EndChar

StartChar: dieresis
Encoding: 168 168 105
Width: 537
GlyphClass: 2
Flags: MW
LayerCount: 2
Fore
SplineSet
371.158203125 645 m 1,0,-1
 383.829101562 725 l 1,1,-1
 463.829101562 725 l 1,2,-1
 451.158203125 645 l 1,3,-1
 371.158203125 645 l 1,0,-1
156.158203125 645 m 1,4,-1
 168.829101562 725 l 1,5,-1
 248.829101562 725 l 1,6,-1
 236.158203125 645 l 1,7,-1
 156.158203125 645 l 1,4,-1
EndSplineSet
EndChar

StartChar: copyright
Encoding: 169 169 106
Width: 537
GlyphClass: 2
Flags: MW
LayerCount: 2
Fore
SplineSet
107 0 m 1,0,-1
 -5.7763671875 134 l 1,1,-1
 66.60546875 591 l 1,2,-1
 221.829101562 725 l 1,3,-1
 409.829101562 725 l 1,4,-1
 523.60546875 591 l 1,5,-1
 451.223632812 134 l 1,6,-1
 295 0 l 1,7,-1
 107 0 l 1,0,-1
277.552734375 54 m 1,8,-1
 401.5 161 l 1,9,-1
 465.329101562 564 l 1,10,-1
 375.276367188 671 l 1,11,-1
 240.276367188 671 l 1,12,-1
 116.329101562 564 l 1,13,-1
 52.5 161 l 1,14,-1
 142.552734375 54 l 1,15,-1
 277.552734375 54 l 1,8,-1
241.387695312 255 m 1,16,-1
 320 322 l 1,17,-1
 364.60546875 269 l 1,18,-1
 240.5 161 l 1,19,-1
 213.5 161 l 1,20,-1
 123.60546875 269 l 1,21,-1
 153.381835938 457 l 1,22,-1
 277.329101562 564 l 1,23,-1
 304.329101562 564 l 1,24,-1
 394.381835938 457 l 1,25,-1
 332.829101562 403 l 1,26,-1
 275.440429688 470 l 1,27,-1
 229.10546875 430 l 1,28,-1
 207.723632812 295 l 1,29,-1
 241.387695312 255 l 1,16,-1
EndSplineSet
EndChar

StartChar: ordfeminine
Encoding: 170 170 107
Width: 537
GlyphClass: 2
Flags: MW
LayerCount: 2
Fore
SplineSet
172.329101562 242 m 1,0,-1
 59.552734375 376 l 1,1,-1
 63.8291015625 403 l 1,2,-1
 219.052734375 537 l 1,3,-1
 407.052734375 537 l 1,4,-1
 411.329101562 564 l 1,5,-1
 344.158203125 645 l 1,6,-1
 263.158203125 645 l 1,7,-1
 139.052734375 537 l 1,8,-1
 93.60546875 591 l 1,9,-1
 248.829101562 725 l 1,10,-1
 383.829101562 725 l 1,11,-1
 496.60546875 591 l 1,12,-1
 441.329101562 242 l 1,13,-1
 360.329101562 242 l 1,14,-1
 373 322 l 1,15,-1
 280.329101562 242 l 1,16,-1
 172.329101562 242 l 1,0,-1
266 322 m 1,17,-1
 390.10546875 430 l 1,18,-1
 394.381835938 457 l 1,19,-1
 233.381835938 457 l 1,20,-1
 170.829101562 403 l 1,21,-1
 169.829101562 403 l 1,22,-1
 155.611328125 389 l 1,23,-1
 212 322 l 1,24,-1
 266 322 l 1,17,-1
EndSplineSet
EndChar

StartChar: guillemotleft
Encoding: 171 171 108
Width: 537
GlyphClass: 2
Flags: MW
LayerCount: 2
Fore
SplineSet
330.940429688 309 m 1,0,-1
 432.776367188 188 l 1,1,-1
 370.223632812 134 l 1,2,-1
 223.940429688 309 l 1,3,-1
 425.5 483 l 1,4,-1
 471.10546875 430 l 1,5,-1
 330.940429688 309 l 1,0,-1
142.940429688 309 m 1,6,-1
 244.776367188 188 l 1,7,-1
 182.223632812 134 l 1,8,-1
 35.9404296875 309 l 1,9,-1
 237.5 483 l 1,10,-1
 283.10546875 430 l 1,11,-1
 142.940429688 309 l 1,6,-1
EndSplineSet
EndChar

StartChar: logicalnot
Encoding: 172 172 109
Width: 537
GlyphClass: 2
Flags: MW
LayerCount: 2
Fore
SplineSet
347.5 161 m 1,0,-1
 373 322 l 1,1,-1
 51 322 l 1,2,-1
 63.8291015625 403 l 1,3,-1
 466.829101562 403 l 1,4,-1
 428.5 161 l 1,5,-1
 347.5 161 l 1,0,-1
EndSplineSet
EndChar

StartChar: uni00AD
Encoding: 173 173 110
Width: 537
GlyphClass: 2
Flags: MW
LayerCount: 2
Fore
SplineSet
158 322 m 1,0,-1
 170.829101562 403 l 1,1,-1
 358.829101562 403 l 1,2,-1
 346 322 l 1,3,-1
 158 322 l 1,0,-1
EndSplineSet
EndChar

StartChar: registered
Encoding: 174 174 111
Width: 537
GlyphClass: 2
Flags: MW
LayerCount: 2
Fore
SplineSet
107 0 m 1,0,-1
 -5.7763671875 134 l 1,1,-1
 66.60546875 591 l 1,2,-1
 221.829101562 725 l 1,3,-1
 409.829101562 725 l 1,4,-1
 523.60546875 591 l 1,5,-1
 451.223632812 134 l 1,6,-1
 295 0 l 1,7,-1
 107 0 l 1,0,-1
277.552734375 54 m 1,8,-1
 401.5 161 l 1,9,-1
 465.329101562 564 l 1,10,-1
 375.276367188 671 l 1,11,-1
 240.276367188 671 l 1,12,-1
 116.329101562 564 l 1,13,-1
 52.5 161 l 1,14,-1
 142.552734375 54 l 1,15,-1
 277.552734375 54 l 1,8,-1
106.5 161 m 1,16,-1
 170.329101562 564 l 1,17,-1
 304.329101562 564 l 1,18,-1
 394.381835938 457 l 1,19,-1
 390.10546875 430 l 1,20,-1
 297.276367188 349 l 1,21,-1
 351.776367188 188 l 1,22,-1
 294.5 161 l 1,23,-1
 280.5 161 l 1,24,-1
 226 322 l 1,25,-1
 212 322 l 1,26,-1
 186.5 161 l 1,27,-1
 106.5 161 l 1,16,-1
251.829101562 403 m 1,28,-1
 283.10546875 430 l 1,29,-1
 298.1640625 443 l 1,30,-1
 264.5 483 l 1,31,-1
 237.5 483 l 1,32,-1
 224.829101562 403 l 1,33,-1
 251.829101562 403 l 1,28,-1
EndSplineSet
EndChar

StartChar: macron
Encoding: 175 175 112
Width: 537
GlyphClass: 2
Flags: MW
LayerCount: 2
Fore
SplineSet
156.158203125 645 m 1,0,-1
 168.829101562 725 l 1,1,-1
 463.829101562 725 l 1,2,-1
 451.158203125 645 l 1,3,-1
 156.158203125 645 l 1,0,-1
EndSplineSet
EndChar

StartChar: degree
Encoding: 176 176 113
Width: 537
GlyphClass: 2
Flags: MW
LayerCount: 2
Fore
SplineSet
202.10546875 430 m 1,0,-1
 134.776367188 510 l 1,1,-1
 156.158203125 645 l 1,2,-1
 248.829101562 725 l 1,3,-1
 383.829101562 725 l 1,4,-1
 451.158203125 645 l 1,5,-1
 429.776367188 510 l 1,6,-1
 337.10546875 430 l 1,7,-1
 202.10546875 430 l 1,0,-1
318.5 483 m 1,8,-1
 380.052734375 537 l 1,9,-1
 392.881835938 618 l 1,10,-1
 348.276367188 671 l 1,11,-1
 267.276367188 671 l 1,12,-1
 204.881835938 618 l 1,13,-1
 192.052734375 537 l 1,14,-1
 237.5 483 l 1,15,-1
 318.5 483 l 1,8,-1
EndSplineSet
EndChar

StartChar: plusminus
Encoding: 177 177 114
Width: 537
GlyphClass: 2
Flags: MW
LayerCount: 2
Fore
SplineSet
199.329101562 242 m 1,0,-1
 224.829101562 403 l 1,1,-1
 63.8291015625 403 l 1,2,-1
 76.5 483 l 1,3,-1
 237.5 483 l 1,4,-1
 263.158203125 645 l 1,5,-1
 344.158203125 645 l 1,6,-1
 318.5 483 l 1,7,-1
 479.5 483 l 1,8,-1
 466.829101562 403 l 1,9,-1
 305.829101562 403 l 1,10,-1
 280.329101562 242 l 1,11,-1
 199.329101562 242 l 1,0,-1
12.8291015625 81 m 1,12,-1
 25.5 161 l 1,13,-1
 428.5 161 l 1,14,-1
 415.829101562 81 l 1,15,-1
 12.8291015625 81 l 1,12,-1
EndSplineSet
EndChar

StartChar: uni00B2
Encoding: 178 178 115
Width: 537
GlyphClass: 2
Flags: MW
LayerCount: 2
Fore
SplineSet
38.3291015625 242 m 1,0,-1
 46.7236328125 295 l 1,1,-1
 419.881835938 618 l 1,2,-1
 424.158203125 645 l 1,3,-1
 356.829101562 725 l 1,4,-1
 275.829101562 725 l 1,5,-1
 151.881835938 618 l 1,6,-1
 106.276367188 671 l 1,7,-1
 261.658203125 806 l 1,8,-1
 396.658203125 806 l 1,9,-1
 509.276367188 671 l 1,10,-1
 496.60546875 591 l 1,11,-1
 185 322 l 1,12,-1
 454 322 l 1,13,-1
 441.329101562 242 l 1,14,-1
 38.3291015625 242 l 1,0,-1
EndSplineSet
EndChar

StartChar: uni00B3
Encoding: 179 179 116
Width: 537
GlyphClass: 2
Flags: MW
LayerCount: 2
Fore
SplineSet
172.329101562 242 m 1,0,-1
 59.552734375 376 l 1,1,-1
 122.10546875 430 l 1,2,-1
 212 322 l 1,3,-1
 293 322 l 1,4,-1
 385.829101562 403 l 1,5,-1
 318.5 483 l 1,6,-1
 210.5 483 l 1,7,-1
 223.329101562 564 l 1,8,-1
 331.329101562 564 l 1,9,-1
 424.158203125 645 l 1,10,-1
 356.829101562 725 l 1,11,-1
 275.829101562 725 l 1,12,-1
 151.881835938 618 l 1,13,-1
 106.276367188 671 l 1,14,-1
 261.658203125 806 l 1,15,-1
 396.658203125 806 l 1,16,-1
 509.276367188 671 l 1,17,-1
 500.881835938 618 l 1,18,-1
 407.052734375 537 l 1,19,-1
 406.052734375 537 l 1,20,-1
 391.993164062 524 l 1,21,-1
 471.10546875 430 l 1,22,-1
 462.552734375 376 l 1,23,-1
 307.329101562 242 l 1,24,-1
 172.329101562 242 l 1,0,-1
EndSplineSet
EndChar

StartChar: acute
Encoding: 180 180 117
Width: 537
GlyphClass: 2
Flags: MW
LayerCount: 2
Fore
SplineSet
189.276367188 349 m 1,0,-1
 140.552734375 376 l 1,1,-1
 369.829101562 725 l 1,2,-1
 383.829101562 725 l 1,3,-1
 432.552734375 698 l 1,4,-1
 203.276367188 349 l 1,5,-1
 189.276367188 349 l 1,0,-1
EndSplineSet
EndChar

StartChar: mu
Encoding: 181 181 118
Width: 537
GlyphClass: 2
Flags: MW
LayerCount: 2
Fore
SplineSet
-25.5 -161 m 1,0,-1
 89.3291015625 564 l 1,1,-1
 170.329101562 564 l 1,2,-1
 106.5 161 l 1,3,-1
 173.829101562 81 l 1,4,-1
 227.829101562 81 l 1,5,-1
 351.776367188 188 l 1,6,-1
 411.329101562 564 l 1,7,-1
 492.329101562 564 l 1,8,-1
 403 0 l 1,9,-1
 322 0 l 1,10,-1
 334.829101562 81 l 1,11,-1
 242 0 l 1,12,-1
 134 0 l 1,13,-1
 89.552734375 54 l 1,14,-1
 55.5 -161 l 1,15,-1
 -25.5 -161 l 1,0,-1
EndSplineSet
EndChar

StartChar: paragraph
Encoding: 182 182 119
Width: 537
GlyphClass: 2
Flags: MW
LayerCount: 2
Fore
SplineSet
162.5 -161 m 1,0,-1
 239 322 l 1,1,-1
 185 322 l 1,2,-1
 72.3818359375 457 l 1,3,-1
 93.60546875 591 l 1,4,-1
 248.829101562 725 l 1,5,-1
 517.829101562 725 l 1,6,-1
 377.5 -161 l 1,7,-1
 296.5 -161 l 1,8,-1
 424.158203125 645 l 1,9,-1
 371.158203125 645 l 1,10,-1
 243.5 -161 l 1,11,-1
 162.5 -161 l 1,0,-1
EndSplineSet
EndChar

StartChar: periodcentered
Encoding: 183 183 120
Width: 537
GlyphClass: 2
Flags: MW
LayerCount: 2
Fore
SplineSet
180.723632812 295 m 1,0,-1
 202.10546875 430 l 1,1,-1
 337.10546875 430 l 1,2,-1
 315.723632812 295 l 1,3,-1
 180.723632812 295 l 1,0,-1
EndSplineSet
EndChar

StartChar: cedilla
Encoding: 184 184 121
Width: 537
GlyphClass: 2
Flags: MW
LayerCount: 2
Fore
SplineSet
90.052734375 -107 m 1,0,-1
 152.447265625 -54 l 1,1,-1
 173.829101562 81 l 1,2,-1
 254.829101562 81 l 1,3,-1
 229.170898438 -81 l 1,4,-1
 135.5 -161 l 1,5,-1
 90.052734375 -107 l 1,0,-1
EndSplineSet
EndChar

StartChar: uni00B9
Encoding: 185 185 122
Width: 537
GlyphClass: 2
Flags: MW
LayerCount: 2
Fore
SplineSet
65.3291015625 242 m 1,0,-1
 78 322 l 1,1,-1
 212 322 l 1,2,-1
 267.276367188 671 l 1,3,-1
 143.329101562 564 l 1,4,-1
 97.8818359375 618 l 1,5,-1
 315.658203125 806 l 1,6,-1
 369.658203125 806 l 1,7,-1
 293 322 l 1,8,-1
 427 322 l 1,9,-1
 414.329101562 242 l 1,10,-1
 65.3291015625 242 l 1,0,-1
EndSplineSet
EndChar

StartChar: ordmasculine
Encoding: 186 186 123
Width: 537
GlyphClass: 2
Flags: MW
LayerCount: 2
Fore
SplineSet
172.329101562 242 m 1,0,-1
 59.552734375 376 l 1,1,-1
 93.60546875 591 l 1,2,-1
 248.829101562 725 l 1,3,-1
 383.829101562 725 l 1,4,-1
 496.60546875 591 l 1,5,-1
 462.552734375 376 l 1,6,-1
 307.329101562 242 l 1,7,-1
 172.329101562 242 l 1,0,-1
293 322 m 1,8,-1
 385.829101562 403 l 1,9,-1
 411.329101562 564 l 1,10,-1
 344.158203125 645 l 1,11,-1
 263.158203125 645 l 1,12,-1
 170.329101562 564 l 1,13,-1
 144.829101562 403 l 1,14,-1
 212 322 l 1,15,-1
 293 322 l 1,8,-1
EndSplineSet
EndChar

StartChar: guillemotright
Encoding: 187 187 124
Width: 537
GlyphClass: 2
Flags: MW
LayerCount: 2
Fore
SplineSet
357.940429688 309 m 1,0,-1
 256.10546875 430 l 1,1,-1
 318.5 483 l 1,2,-1
 464.940429688 309 l 1,3,-1
 263.223632812 134 l 1,4,-1
 217.776367188 188 l 1,5,-1
 357.940429688 309 l 1,0,-1
169.940429688 309 m 1,6,-1
 68.10546875 430 l 1,7,-1
 130.5 483 l 1,8,-1
 276.940429688 309 l 1,9,-1
 75.2236328125 134 l 1,10,-1
 29.7763671875 188 l 1,11,-1
 169.940429688 309 l 1,6,-1
EndSplineSet
EndChar

StartChar: onequarter
Encoding: 188 188 125
Width: 537
GlyphClass: 2
Flags: MW
LayerCount: 2
Fore
SplineSet
144.829101562 403 m 1,0,-1
 178.881835938 618 l 1,1,-1
 116.329101562 564 l 1,2,-1
 70.8818359375 618 l 1,3,-1
 226.10546875 752 l 1,4,-1
 280.10546875 752 l 1,5,-1
 224.829101562 403 l 1,6,-1
 144.829101562 403 l 1,0,-1
34.052734375 215 m 1,7,-1
 438.329101562 564 l 1,8,-1
 483.776367188 510 l 1,9,-1
 79.5 161 l 1,10,-1
 34.052734375 215 l 1,7,-1
290.723632812 -27 m 1,11,-1
 303.552734375 54 l 1,12,-1
 169.552734375 54 l 1,13,-1
 177.947265625 107 l 1,14,-1
 320 322 l 1,15,-1
 427 322 l 1,16,-1
 397.223632812 134 l 1,17,-1
 451.223632812 134 l 1,18,-1
 438.552734375 54 l 1,19,-1
 384.552734375 54 l 1,20,-1
 371.723632812 -27 l 1,21,-1
 290.723632812 -27 l 1,11,-1
316.223632812 134 m 1,22,-1
 329.052734375 215 l 1,23,-1
 276.223632812 134 l 1,24,-1
 316.223632812 134 l 1,22,-1
EndSplineSet
EndChar

StartChar: onehalf
Encoding: 189 189 126
Width: 537
GlyphClass: 2
Flags: MW
LayerCount: 2
Fore
SplineSet
144.829101562 403 m 1,0,-1
 178.881835938 618 l 1,1,-1
 116.329101562 564 l 1,2,-1
 70.8818359375 618 l 1,3,-1
 226.10546875 752 l 1,4,-1
 280.10546875 752 l 1,5,-1
 224.829101562 403 l 1,6,-1
 144.829101562 403 l 1,0,-1
34.052734375 215 m 1,7,-1
 438.329101562 564 l 1,8,-1
 483.776367188 510 l 1,9,-1
 79.5 161 l 1,10,-1
 34.052734375 215 l 1,7,-1
183.723632812 -27 m 1,11,-1
 192.276367188 27 l 1,12,-1
 378.776367188 188 l 1,13,-1
 383.052734375 215 l 1,14,-1
 360.329101562 242 l 1,15,-1
 333.329101562 242 l 1,16,-1
 271.776367188 188 l 1,17,-1
 226.329101562 242 l 1,18,-1
 320 322 l 1,19,-1
 400 322 l 1,20,-1
 468.329101562 242 l 1,21,-1
 455.5 161 l 1,22,-1
 330.552734375 54 l 1,23,-1
 438.552734375 54 l 1,24,-1
 425.723632812 -27 l 1,25,-1
 183.723632812 -27 l 1,11,-1
EndSplineSet
EndChar

StartChar: threequarters
Encoding: 190 190 127
Width: 537
GlyphClass: 2
Flags: MW
LayerCount: 2
Fore
SplineSet
117.829101562 403 m 1,0,-1
 49.5 483 l 1,1,-1
 112.052734375 537 l 1,2,-1
 157.5 483 l 1,3,-1
 183.5 483 l 1,4,-1
 214.776367188 510 l 1,5,-1
 170.329101562 564 l 1,6,-1
 174.60546875 591 l 1,7,-1
 236.158203125 645 l 1,8,-1
 213.276367188 671 l 1,9,-1
 187.276367188 671 l 1,10,-1
 124.881835938 618 l 1,11,-1
 79.2763671875 671 l 1,12,-1
 173.10546875 752 l 1,13,-1
 253.10546875 752 l 1,14,-1
 321.276367188 671 l 1,15,-1
 312.881835938 618 l 1,16,-1
 281.60546875 591 l 1,17,-1
 279.60546875 591 l 1,18,-1
 266.387695312 577 l 1,19,-1
 300.052734375 537 l 1,20,-1
 291.5 483 l 1,21,-1
 197.829101562 403 l 1,22,-1
 117.829101562 403 l 1,0,-1
34.052734375 215 m 1,23,-1
 438.329101562 564 l 1,24,-1
 483.776367188 510 l 1,25,-1
 79.5 161 l 1,26,-1
 34.052734375 215 l 1,23,-1
290.723632812 -27 m 1,27,-1
 303.552734375 54 l 1,28,-1
 169.552734375 54 l 1,29,-1
 177.947265625 107 l 1,30,-1
 320 322 l 1,31,-1
 427 322 l 1,32,-1
 397.223632812 134 l 1,33,-1
 451.223632812 134 l 1,34,-1
 438.552734375 54 l 1,35,-1
 384.552734375 54 l 1,36,-1
 371.723632812 -27 l 1,37,-1
 290.723632812 -27 l 1,27,-1
316.223632812 134 m 1,38,-1
 329.052734375 215 l 1,39,-1
 276.223632812 134 l 1,40,-1
 316.223632812 134 l 1,38,-1
EndSplineSet
EndChar

StartChar: questiondown
Encoding: 191 191 128
Width: 537
GlyphClass: 2
Flags: MW
LayerCount: 2
Fore
SplineSet
202.10546875 430 m 1,0,-1
 223.329101562 564 l 1,1,-1
 358.329101562 564 l 1,2,-1
 337.10546875 430 l 1,3,-1
 202.10546875 430 l 1,0,-1
108.5 -161 m 1,4,-1
 -4.2763671875 -27 l 1,5,-1
 16.947265625 107 l 1,6,-1
 203.60546875 269 l 1,7,-1
 216.276367188 349 l 1,8,-1
 297.276367188 349 l 1,9,-1
 280.329101562 242 l 1,10,-1
 93.8291015625 81 l 1,11,-1
 81 0 l 1,12,-1
 148.170898438 -81 l 1,13,-1
 229.170898438 -81 l 1,14,-1
 353.276367188 27 l 1,15,-1
 398.723632812 -27 l 1,16,-1
 243.5 -161 l 1,17,-1
 108.5 -161 l 1,4,-1
EndSplineSet
EndChar

StartChar: Agrave
Encoding: 192 192 129
Width: 537
GlyphClass: 2
Flags: MW
LayerCount: 2
Fore
SplineSet
247.329101562 886 m 1,0,-1
 309.881835938 940 l 1,1,-1
 400.934570312 833 l 1,2,-1
 338.381835938 779 l 1,3,-1
 247.329101562 886 l 1,0,-1
0 0 m 1,4,-1
 59.552734375 376 l 1,5,-1
 289.829101562 725 l 1,6,-1
 342.829101562 725 l 1,7,-1
 462.552734375 376 l 1,8,-1
 403 0 l 1,9,-1
 322 0 l 1,10,-1
 360.329101562 242 l 1,11,-1
 119.329101562 242 l 1,12,-1
 81 0 l 1,13,-1
 0 0 l 1,4,-1
373 322 m 1,14,-1
 381.552734375 376 l 1,15,-1
 298.881835938 618 l 1,16,-1
 140.552734375 376 l 1,17,-1
 132 322 l 1,18,-1
 373 322 l 1,14,-1
EndSplineSet
EndChar

StartChar: Aacute
Encoding: 193 193 130
Width: 537
GlyphClass: 2
Flags: MW
LayerCount: 2
Fore
SplineSet
311.381835938 779 m 1,0,-1
 265.934570312 833 l 1,1,-1
 390.881835938 940 l 1,2,-1
 435.329101562 886 l 1,3,-1
 311.381835938 779 l 1,0,-1
0 0 m 1,4,-1
 59.552734375 376 l 1,5,-1
 289.829101562 725 l 1,6,-1
 342.829101562 725 l 1,7,-1
 462.552734375 376 l 1,8,-1
 403 0 l 1,9,-1
 322 0 l 1,10,-1
 360.329101562 242 l 1,11,-1
 119.329101562 242 l 1,12,-1
 81 0 l 1,13,-1
 0 0 l 1,4,-1
373 322 m 1,14,-1
 381.552734375 376 l 1,15,-1
 298.881835938 618 l 1,16,-1
 140.552734375 376 l 1,17,-1
 132 322 l 1,18,-1
 373 322 l 1,14,-1
EndSplineSet
EndChar

StartChar: Acircumflex
Encoding: 194 194 131
Width: 537
GlyphClass: 2
Flags: MW
LayerCount: 2
Fore
SplineSet
257.381835938 779 m 1,0,-1
 212.934570312 833 l 1,1,-1
 336.881835938 940 l 1,2,-1
 363.881835938 940 l 1,3,-1
 453.934570312 833 l 1,4,-1
 392.381835938 779 l 1,5,-1
 346.934570312 833 l 1,6,-1
 334.993164062 846 l 1,7,-1
 257.381835938 779 l 1,0,-1
0 0 m 1,8,-1
 59.552734375 376 l 1,9,-1
 289.829101562 725 l 1,10,-1
 342.829101562 725 l 1,11,-1
 462.552734375 376 l 1,12,-1
 403 0 l 1,13,-1
 322 0 l 1,14,-1
 360.329101562 242 l 1,15,-1
 119.329101562 242 l 1,16,-1
 81 0 l 1,17,-1
 0 0 l 1,8,-1
373 322 m 1,18,-1
 381.552734375 376 l 1,19,-1
 298.881835938 618 l 1,20,-1
 140.552734375 376 l 1,21,-1
 132 322 l 1,22,-1
 373 322 l 1,18,-1
EndSplineSet
EndChar

StartChar: Atilde
Encoding: 195 195 132
Width: 537
GlyphClass: 2
Flags: MW
LayerCount: 2
Fore
SplineSet
204.381835938 779 m 1,0,-1
 158.934570312 833 l 1,1,-1
 251.60546875 913 l 1,2,-1
 332.60546875 913 l 1,3,-1
 378.051757812 859 l 1,4,-1
 405.051757812 859 l 1,5,-1
 466.60546875 913 l 1,6,-1
 512.051757812 859 l 1,7,-1
 418.381835938 779 l 1,8,-1
 338.381835938 779 l 1,9,-1
 292.934570312 833 l 1,10,-1
 265.934570312 833 l 1,11,-1
 204.381835938 779 l 1,0,-1
0 0 m 1,12,-1
 59.552734375 376 l 1,13,-1
 289.829101562 725 l 1,14,-1
 342.829101562 725 l 1,15,-1
 462.552734375 376 l 1,16,-1
 403 0 l 1,17,-1
 322 0 l 1,18,-1
 360.329101562 242 l 1,19,-1
 119.329101562 242 l 1,20,-1
 81 0 l 1,21,-1
 0 0 l 1,12,-1
373 322 m 1,22,-1
 381.552734375 376 l 1,23,-1
 298.881835938 618 l 1,24,-1
 140.552734375 376 l 1,25,-1
 132 322 l 1,26,-1
 373 322 l 1,22,-1
EndSplineSet
EndChar

StartChar: Adieresis
Encoding: 196 196 133
Width: 537
GlyphClass: 2
Flags: MW
LayerCount: 2
Fore
SplineSet
396.658203125 806 m 1,0,-1
 409.329101562 886 l 1,1,-1
 489.329101562 886 l 1,2,-1
 476.658203125 806 l 1,3,-1
 396.658203125 806 l 1,0,-1
181.658203125 806 m 1,4,-1
 194.329101562 886 l 1,5,-1
 274.329101562 886 l 1,6,-1
 261.658203125 806 l 1,7,-1
 181.658203125 806 l 1,4,-1
0 0 m 1,8,-1
 59.552734375 376 l 1,9,-1
 289.829101562 725 l 1,10,-1
 342.829101562 725 l 1,11,-1
 462.552734375 376 l 1,12,-1
 403 0 l 1,13,-1
 322 0 l 1,14,-1
 360.329101562 242 l 1,15,-1
 119.329101562 242 l 1,16,-1
 81 0 l 1,17,-1
 0 0 l 1,8,-1
373 322 m 1,18,-1
 381.552734375 376 l 1,19,-1
 298.881835938 618 l 1,20,-1
 140.552734375 376 l 1,21,-1
 132 322 l 1,22,-1
 373 322 l 1,18,-1
EndSplineSet
EndChar

StartChar: Aring
Encoding: 197 197 134
Width: 537
GlyphClass: 2
Flags: MW
LayerCount: 2
Fore
SplineSet
0 0 m 1,0,-1
 59.552734375 376 l 1,1,-1
 271.552734375 698 l 1,2,-1
 226.10546875 752 l 1,3,-1
 238.934570312 833 l 1,4,-1
 301.329101562 886 l 1,5,-1
 382.329101562 886 l 1,6,-1
 426.934570312 833 l 1,7,-1
 414.10546875 752 l 1,8,-1
 352.552734375 698 l 1,9,-1
 462.552734375 376 l 1,10,-1
 403 0 l 1,11,-1
 322 0 l 1,12,-1
 360.329101562 242 l 1,13,-1
 119.329101562 242 l 1,14,-1
 81 0 l 1,15,-1
 0 0 l 1,0,-1
334.10546875 752 m 1,16,-1
 365.381835938 779 l 1,17,-1
 369.658203125 806 l 1,18,-1
 346.934570312 833 l 1,19,-1
 319.934570312 833 l 1,20,-1
 288.658203125 806 l 1,21,-1
 284.381835938 779 l 1,22,-1
 307.10546875 752 l 1,23,-1
 334.10546875 752 l 1,16,-1
373 322 m 1,24,-1
 381.552734375 376 l 1,25,-1
 298.881835938 618 l 1,26,-1
 140.552734375 376 l 1,27,-1
 132 322 l 1,28,-1
 373 322 l 1,24,-1
EndSplineSet
EndChar

StartChar: AE
Encoding: 198 198 135
Width: 537
GlyphClass: 2
Flags: MW
LayerCount: 2
Fore
SplineSet
0 0 m 1,0,-1
 59.552734375 376 l 1,1,-1
 289.829101562 725 l 1,2,-1
 517.829101562 725 l 1,3,-1
 505.158203125 645 l 1,4,-1
 371.158203125 645 l 1,5,-1
 332.829101562 403 l 1,6,-1
 412.829101562 403 l 1,7,-1
 400 322 l 1,8,-1
 320 322 l 1,9,-1
 281.829101562 81 l 1,10,-1
 415.829101562 81 l 1,11,-1
 403 0 l 1,12,-1
 188 0 l 1,13,-1
 226.329101562 242 l 1,14,-1
 119.329101562 242 l 1,15,-1
 81 0 l 1,16,-1
 0 0 l 1,0,-1
239 322 m 1,17,-1
 281.60546875 591 l 1,18,-1
 140.552734375 376 l 1,19,-1
 132 322 l 1,20,-1
 239 322 l 1,17,-1
EndSplineSet
EndChar

StartChar: Ccedilla
Encoding: 199 199 136
Width: 537
GlyphClass: 2
Flags: MW
LayerCount: 2
Fore
SplineSet
135.5 -161 m 1,0,-1
 90.052734375 -107 l 1,1,-1
 152.447265625 -54 l 1,2,-1
 161 0 l 1,3,-1
 134 0 l 1,4,-1
 21.2236328125 134 l 1,5,-1
 93.60546875 591 l 1,6,-1
 248.829101562 725 l 1,7,-1
 383.829101562 725 l 1,8,-1
 496.60546875 591 l 1,9,-1
 434.052734375 537 l 1,10,-1
 344.158203125 645 l 1,11,-1
 263.158203125 645 l 1,12,-1
 170.329101562 564 l 1,13,-1
 106.5 161 l 1,14,-1
 173.829101562 81 l 1,15,-1
 254.829101562 81 l 1,16,-1
 378.776367188 188 l 1,17,-1
 424.223632812 134 l 1,18,-1
 269 0 l 1,19,-1
 242 0 l 1,20,-1
 229.170898438 -81 l 1,21,-1
 135.5 -161 l 1,0,-1
EndSplineSet
EndChar

StartChar: Egrave
Encoding: 200 200 137
Width: 537
GlyphClass: 2
Flags: MW
LayerCount: 2
Fore
SplineSet
338.381835938 779 m 1,0,-1
 247.329101562 886 l 1,1,-1
 309.881835938 940 l 1,2,-1
 400.934570312 833 l 1,3,-1
 338.381835938 779 l 1,0,-1
0 0 m 1,4,-1
 114.829101562 725 l 1,5,-1
 517.829101562 725 l 1,6,-1
 505.158203125 645 l 1,7,-1
 183.158203125 645 l 1,8,-1
 144.829101562 403 l 1,9,-1
 385.829101562 403 l 1,10,-1
 373 322 l 1,11,-1
 132 322 l 1,12,-1
 93.8291015625 81 l 1,13,-1
 415.829101562 81 l 1,14,-1
 403 0 l 1,15,-1
 0 0 l 1,4,-1
EndSplineSet
EndChar

StartChar: Eacute
Encoding: 201 201 138
Width: 537
GlyphClass: 2
Flags: MW
LayerCount: 2
Fore
SplineSet
311.381835938 779 m 1,0,-1
 265.934570312 833 l 1,1,-1
 390.881835938 940 l 1,2,-1
 435.329101562 886 l 1,3,-1
 311.381835938 779 l 1,0,-1
0 0 m 1,4,-1
 114.829101562 725 l 1,5,-1
 517.829101562 725 l 1,6,-1
 505.158203125 645 l 1,7,-1
 183.158203125 645 l 1,8,-1
 144.829101562 403 l 1,9,-1
 385.829101562 403 l 1,10,-1
 373 322 l 1,11,-1
 132 322 l 1,12,-1
 93.8291015625 81 l 1,13,-1
 415.829101562 81 l 1,14,-1
 403 0 l 1,15,-1
 0 0 l 1,4,-1
EndSplineSet
EndChar

StartChar: Ecircumflex
Encoding: 202 202 139
Width: 537
GlyphClass: 2
Flags: MW
LayerCount: 2
Fore
SplineSet
257.381835938 779 m 1,0,-1
 212.934570312 833 l 1,1,-1
 336.881835938 940 l 1,2,-1
 363.881835938 940 l 1,3,-1
 453.934570312 833 l 1,4,-1
 392.381835938 779 l 1,5,-1
 346.934570312 833 l 1,6,-1
 334.993164062 846 l 1,7,-1
 257.381835938 779 l 1,0,-1
0 0 m 1,8,-1
 114.829101562 725 l 1,9,-1
 517.829101562 725 l 1,10,-1
 505.158203125 645 l 1,11,-1
 183.158203125 645 l 1,12,-1
 144.829101562 403 l 1,13,-1
 385.829101562 403 l 1,14,-1
 373 322 l 1,15,-1
 132 322 l 1,16,-1
 93.8291015625 81 l 1,17,-1
 415.829101562 81 l 1,18,-1
 403 0 l 1,19,-1
 0 0 l 1,8,-1
EndSplineSet
EndChar

StartChar: Edieresis
Encoding: 203 203 140
Width: 537
GlyphClass: 2
Flags: MW
LayerCount: 2
Fore
SplineSet
396.658203125 806 m 1,0,-1
 409.329101562 886 l 1,1,-1
 489.329101562 886 l 1,2,-1
 476.658203125 806 l 1,3,-1
 396.658203125 806 l 1,0,-1
181.658203125 806 m 1,4,-1
 194.329101562 886 l 1,5,-1
 274.329101562 886 l 1,6,-1
 261.658203125 806 l 1,7,-1
 181.658203125 806 l 1,4,-1
0 0 m 1,8,-1
 114.829101562 725 l 1,9,-1
 517.829101562 725 l 1,10,-1
 505.158203125 645 l 1,11,-1
 183.158203125 645 l 1,12,-1
 144.829101562 403 l 1,13,-1
 385.829101562 403 l 1,14,-1
 373 322 l 1,15,-1
 132 322 l 1,16,-1
 93.8291015625 81 l 1,17,-1
 415.829101562 81 l 1,18,-1
 403 0 l 1,19,-1
 0 0 l 1,8,-1
EndSplineSet
EndChar

StartChar: Igrave
Encoding: 204 204 141
Width: 537
GlyphClass: 2
Flags: MW
LayerCount: 2
Fore
SplineSet
338.381835938 779 m 1,0,-1
 247.329101562 886 l 1,1,-1
 309.881835938 940 l 1,2,-1
 400.934570312 833 l 1,3,-1
 338.381835938 779 l 1,0,-1
81 0 m 1,4,-1
 93.8291015625 81 l 1,5,-1
 173.829101562 81 l 1,6,-1
 263.158203125 645 l 1,7,-1
 183.158203125 645 l 1,8,-1
 195.829101562 725 l 1,9,-1
 436.829101562 725 l 1,10,-1
 424.158203125 645 l 1,11,-1
 344.158203125 645 l 1,12,-1
 254.829101562 81 l 1,13,-1
 334.829101562 81 l 1,14,-1
 322 0 l 1,15,-1
 81 0 l 1,4,-1
EndSplineSet
EndChar

StartChar: Iacute
Encoding: 205 205 142
Width: 537
GlyphClass: 2
Flags: MW
LayerCount: 2
Fore
SplineSet
311.381835938 779 m 1,0,-1
 265.934570312 833 l 1,1,-1
 390.881835938 940 l 1,2,-1
 435.329101562 886 l 1,3,-1
 311.381835938 779 l 1,0,-1
81 0 m 1,4,-1
 93.8291015625 81 l 1,5,-1
 173.829101562 81 l 1,6,-1
 263.158203125 645 l 1,7,-1
 183.158203125 645 l 1,8,-1
 195.829101562 725 l 1,9,-1
 436.829101562 725 l 1,10,-1
 424.158203125 645 l 1,11,-1
 344.158203125 645 l 1,12,-1
 254.829101562 81 l 1,13,-1
 334.829101562 81 l 1,14,-1
 322 0 l 1,15,-1
 81 0 l 1,4,-1
EndSplineSet
EndChar

StartChar: Icircumflex
Encoding: 206 206 143
Width: 537
GlyphClass: 2
Flags: MW
LayerCount: 2
Fore
SplineSet
257.381835938 779 m 1,0,-1
 212.934570312 833 l 1,1,-1
 336.881835938 940 l 1,2,-1
 363.881835938 940 l 1,3,-1
 453.934570312 833 l 1,4,-1
 392.381835938 779 l 1,5,-1
 346.934570312 833 l 1,6,-1
 334.993164062 846 l 1,7,-1
 257.381835938 779 l 1,0,-1
81 0 m 1,8,-1
 93.8291015625 81 l 1,9,-1
 173.829101562 81 l 1,10,-1
 263.158203125 645 l 1,11,-1
 183.158203125 645 l 1,12,-1
 195.829101562 725 l 1,13,-1
 436.829101562 725 l 1,14,-1
 424.158203125 645 l 1,15,-1
 344.158203125 645 l 1,16,-1
 254.829101562 81 l 1,17,-1
 334.829101562 81 l 1,18,-1
 322 0 l 1,19,-1
 81 0 l 1,8,-1
EndSplineSet
EndChar

StartChar: Idieresis
Encoding: 207 207 144
Width: 537
GlyphClass: 2
Flags: MW
LayerCount: 2
Fore
SplineSet
396.658203125 806 m 1,0,-1
 409.329101562 886 l 1,1,-1
 489.329101562 886 l 1,2,-1
 476.658203125 806 l 1,3,-1
 396.658203125 806 l 1,0,-1
181.658203125 806 m 1,4,-1
 194.329101562 886 l 1,5,-1
 274.329101562 886 l 1,6,-1
 261.658203125 806 l 1,7,-1
 181.658203125 806 l 1,4,-1
81 0 m 1,8,-1
 93.8291015625 81 l 1,9,-1
 173.829101562 81 l 1,10,-1
 263.158203125 645 l 1,11,-1
 183.158203125 645 l 1,12,-1
 195.829101562 725 l 1,13,-1
 436.829101562 725 l 1,14,-1
 424.158203125 645 l 1,15,-1
 344.158203125 645 l 1,16,-1
 254.829101562 81 l 1,17,-1
 334.829101562 81 l 1,18,-1
 322 0 l 1,19,-1
 81 0 l 1,8,-1
EndSplineSet
EndChar

StartChar: Eth
Encoding: 208 208 145
Width: 537
GlyphClass: 2
Flags: MW
LayerCount: 2
Fore
SplineSet
27 0 m 1,0,-1
 78 322 l 1,1,-1
 24 322 l 1,2,-1
 36.8291015625 403 l 1,3,-1
 90.8291015625 403 l 1,4,-1
 141.829101562 725 l 1,5,-1
 383.829101562 725 l 1,6,-1
 496.60546875 591 l 1,7,-1
 424.223632812 134 l 1,8,-1
 269 0 l 1,9,-1
 27 0 l 1,0,-1
254.829101562 81 m 1,10,-1
 347.5 161 l 1,11,-1
 411.329101562 564 l 1,12,-1
 344.158203125 645 l 1,13,-1
 209.158203125 645 l 1,14,-1
 170.829101562 403 l 1,15,-1
 278.829101562 403 l 1,16,-1
 266 322 l 1,17,-1
 158 322 l 1,18,-1
 119.829101562 81 l 1,19,-1
 254.829101562 81 l 1,10,-1
EndSplineSet
EndChar

StartChar: Ntilde
Encoding: 209 209 146
Width: 537
GlyphClass: 2
Flags: MW
LayerCount: 2
Fore
SplineSet
204.381835938 779 m 1,0,-1
 158.934570312 833 l 1,1,-1
 251.60546875 913 l 1,2,-1
 332.60546875 913 l 1,3,-1
 378.051757812 859 l 1,4,-1
 405.051757812 859 l 1,5,-1
 466.60546875 913 l 1,6,-1
 512.051757812 859 l 1,7,-1
 418.381835938 779 l 1,8,-1
 338.381835938 779 l 1,9,-1
 292.934570312 833 l 1,10,-1
 265.934570312 833 l 1,11,-1
 204.381835938 779 l 1,0,-1
0 0 m 1,12,-1
 114.829101562 725 l 1,13,-1
 181.829101562 725 l 1,14,-1
 356.052734375 215 l 1,15,-1
 436.829101562 725 l 1,16,-1
 517.829101562 725 l 1,17,-1
 403 0 l 1,18,-1
 349 0 l 1,19,-1
 166.052734375 537 l 1,20,-1
 81 0 l 1,21,-1
 0 0 l 1,12,-1
EndSplineSet
EndChar

StartChar: Ograve
Encoding: 210 210 147
Width: 537
GlyphClass: 2
Flags: MW
LayerCount: 2
Fore
SplineSet
338.381835938 779 m 1,0,-1
 247.329101562 886 l 1,1,-1
 309.881835938 940 l 1,2,-1
 400.934570312 833 l 1,3,-1
 338.381835938 779 l 1,0,-1
134 0 m 1,4,-1
 21.2236328125 134 l 1,5,-1
 93.60546875 591 l 1,6,-1
 248.829101562 725 l 1,7,-1
 383.829101562 725 l 1,8,-1
 496.60546875 591 l 1,9,-1
 424.223632812 134 l 1,10,-1
 269 0 l 1,11,-1
 134 0 l 1,4,-1
254.829101562 81 m 1,12,-1
 347.5 161 l 1,13,-1
 411.329101562 564 l 1,14,-1
 344.158203125 645 l 1,15,-1
 263.158203125 645 l 1,16,-1
 170.329101562 564 l 1,17,-1
 106.5 161 l 1,18,-1
 173.829101562 81 l 1,19,-1
 254.829101562 81 l 1,12,-1
EndSplineSet
EndChar

StartChar: Oacute
Encoding: 211 211 148
Width: 537
GlyphClass: 2
Flags: MW
LayerCount: 2
Fore
SplineSet
311.381835938 779 m 1,0,-1
 265.934570312 833 l 1,1,-1
 390.881835938 940 l 1,2,-1
 435.329101562 886 l 1,3,-1
 311.381835938 779 l 1,0,-1
134 0 m 1,4,-1
 21.2236328125 134 l 1,5,-1
 93.60546875 591 l 1,6,-1
 248.829101562 725 l 1,7,-1
 383.829101562 725 l 1,8,-1
 496.60546875 591 l 1,9,-1
 424.223632812 134 l 1,10,-1
 269 0 l 1,11,-1
 134 0 l 1,4,-1
254.829101562 81 m 1,12,-1
 347.5 161 l 1,13,-1
 411.329101562 564 l 1,14,-1
 344.158203125 645 l 1,15,-1
 263.158203125 645 l 1,16,-1
 170.329101562 564 l 1,17,-1
 106.5 161 l 1,18,-1
 173.829101562 81 l 1,19,-1
 254.829101562 81 l 1,12,-1
EndSplineSet
EndChar

StartChar: Ocircumflex
Encoding: 212 212 149
Width: 537
GlyphClass: 2
Flags: MW
LayerCount: 2
Fore
SplineSet
257.381835938 779 m 1,0,-1
 212.934570312 833 l 1,1,-1
 336.881835938 940 l 1,2,-1
 363.881835938 940 l 1,3,-1
 453.934570312 833 l 1,4,-1
 392.381835938 779 l 1,5,-1
 346.934570312 833 l 1,6,-1
 334.993164062 846 l 1,7,-1
 257.381835938 779 l 1,0,-1
134 0 m 1,8,-1
 21.2236328125 134 l 1,9,-1
 93.60546875 591 l 1,10,-1
 248.829101562 725 l 1,11,-1
 383.829101562 725 l 1,12,-1
 496.60546875 591 l 1,13,-1
 424.223632812 134 l 1,14,-1
 269 0 l 1,15,-1
 134 0 l 1,8,-1
254.829101562 81 m 1,16,-1
 347.5 161 l 1,17,-1
 411.329101562 564 l 1,18,-1
 344.158203125 645 l 1,19,-1
 263.158203125 645 l 1,20,-1
 170.329101562 564 l 1,21,-1
 106.5 161 l 1,22,-1
 173.829101562 81 l 1,23,-1
 254.829101562 81 l 1,16,-1
EndSplineSet
EndChar

StartChar: Otilde
Encoding: 213 213 150
Width: 537
GlyphClass: 2
Flags: MW
LayerCount: 2
Fore
SplineSet
204.381835938 779 m 1,0,-1
 158.934570312 833 l 1,1,-1
 251.60546875 913 l 1,2,-1
 332.60546875 913 l 1,3,-1
 378.051757812 859 l 1,4,-1
 405.051757812 859 l 1,5,-1
 466.60546875 913 l 1,6,-1
 512.051757812 859 l 1,7,-1
 418.381835938 779 l 1,8,-1
 338.381835938 779 l 1,9,-1
 292.934570312 833 l 1,10,-1
 265.934570312 833 l 1,11,-1
 204.381835938 779 l 1,0,-1
134 0 m 1,12,-1
 21.2236328125 134 l 1,13,-1
 93.60546875 591 l 1,14,-1
 248.829101562 725 l 1,15,-1
 383.829101562 725 l 1,16,-1
 496.60546875 591 l 1,17,-1
 424.223632812 134 l 1,18,-1
 269 0 l 1,19,-1
 134 0 l 1,12,-1
254.829101562 81 m 1,20,-1
 347.5 161 l 1,21,-1
 411.329101562 564 l 1,22,-1
 344.158203125 645 l 1,23,-1
 263.158203125 645 l 1,24,-1
 170.329101562 564 l 1,25,-1
 106.5 161 l 1,26,-1
 173.829101562 81 l 1,27,-1
 254.829101562 81 l 1,20,-1
EndSplineSet
EndChar

StartChar: Odieresis
Encoding: 214 214 151
Width: 537
GlyphClass: 2
Flags: MW
LayerCount: 2
Fore
SplineSet
396.658203125 806 m 1,0,-1
 409.329101562 886 l 1,1,-1
 489.329101562 886 l 1,2,-1
 476.658203125 806 l 1,3,-1
 396.658203125 806 l 1,0,-1
181.658203125 806 m 1,4,-1
 194.329101562 886 l 1,5,-1
 274.329101562 886 l 1,6,-1
 261.658203125 806 l 1,7,-1
 181.658203125 806 l 1,4,-1
134 0 m 1,8,-1
 21.2236328125 134 l 1,9,-1
 93.60546875 591 l 1,10,-1
 248.829101562 725 l 1,11,-1
 383.829101562 725 l 1,12,-1
 496.60546875 591 l 1,13,-1
 424.223632812 134 l 1,14,-1
 269 0 l 1,15,-1
 134 0 l 1,8,-1
254.829101562 81 m 1,16,-1
 347.5 161 l 1,17,-1
 411.329101562 564 l 1,18,-1
 344.158203125 645 l 1,19,-1
 263.158203125 645 l 1,20,-1
 170.329101562 564 l 1,21,-1
 106.5 161 l 1,22,-1
 173.829101562 81 l 1,23,-1
 254.829101562 81 l 1,16,-1
EndSplineSet
EndChar

StartChar: multiply
Encoding: 215 215 152
Width: 537
GlyphClass: 2
Flags: MW
LayerCount: 2
Fore
SplineSet
249.940429688 309 m 1,0,-1
 79.5 161 l 1,1,-1
 34.052734375 215 l 1,2,-1
 205.493164062 363 l 1,3,-1
 80.7763671875 510 l 1,4,-1
 143.329101562 564 l 1,5,-1
 266.887695312 416 l 1,6,-1
 438.329101562 564 l 1,7,-1
 483.776367188 510 l 1,8,-1
 312.493164062 363 l 1,9,-1
 437.052734375 215 l 1,10,-1
 374.5 161 l 1,11,-1
 249.940429688 309 l 1,0,-1
EndSplineSet
EndChar

StartChar: Oslash
Encoding: 216 216 153
Width: 537
GlyphClass: 2
Flags: MW
LayerCount: 2
Fore
SplineSet
22.7236328125 -27 m 1,0,-1
 -27 0 l 1,1,-1
 43.947265625 107 l 1,2,-1
 21.2236328125 134 l 1,3,-1
 93.60546875 591 l 1,4,-1
 248.829101562 725 l 1,5,-1
 383.829101562 725 l 1,6,-1
 419.701171875 680 l 1,7,-1
 468.10546875 752 l 1,8,-1
 517.829101562 725 l 1,9,-1
 513.552734375 698 l 1,10,-1
 465.1484375 626 l 1,11,-1
 496.60546875 591 l 1,12,-1
 424.223632812 134 l 1,13,-1
 269 0 l 1,14,-1
 134 0 l 1,15,-1
 89.552734375 54 l 1,16,-1
 35.7236328125 -27 l 1,17,-1
 22.7236328125 -27 l 1,0,-1
115.052734375 215 m 1,18,-1
 373.297851562 608 l 1,19,-1
 344.158203125 645 l 1,20,-1
 263.158203125 645 l 1,21,-1
 170.329101562 564 l 1,22,-1
 115.052734375 215 l 1,18,-1
254.829101562 81 m 1,23,-1
 347.5 161 l 1,24,-1
 407.052734375 537 l 1,25,-1
 135.639648438 124 l 1,26,-1
 173.829101562 81 l 1,27,-1
 254.829101562 81 l 1,23,-1
EndSplineSet
EndChar

StartChar: Ugrave
Encoding: 217 217 154
Width: 537
GlyphClass: 2
Flags: MW
LayerCount: 2
Fore
SplineSet
338.381835938 779 m 1,0,-1
 247.329101562 886 l 1,1,-1
 309.881835938 940 l 1,2,-1
 400.934570312 833 l 1,3,-1
 338.381835938 779 l 1,0,-1
134 0 m 1,4,-1
 21.2236328125 134 l 1,5,-1
 114.829101562 725 l 1,6,-1
 195.829101562 725 l 1,7,-1
 106.5 161 l 1,8,-1
 173.829101562 81 l 1,9,-1
 254.829101562 81 l 1,10,-1
 347.5 161 l 1,11,-1
 436.829101562 725 l 1,12,-1
 517.829101562 725 l 1,13,-1
 424.223632812 134 l 1,14,-1
 269 0 l 1,15,-1
 134 0 l 1,4,-1
EndSplineSet
EndChar

StartChar: Uacute
Encoding: 218 218 155
Width: 537
GlyphClass: 2
Flags: MW
LayerCount: 2
Fore
SplineSet
311.381835938 779 m 1,0,-1
 265.934570312 833 l 1,1,-1
 390.881835938 940 l 1,2,-1
 435.329101562 886 l 1,3,-1
 311.381835938 779 l 1,0,-1
134 0 m 1,4,-1
 21.2236328125 134 l 1,5,-1
 114.829101562 725 l 1,6,-1
 195.829101562 725 l 1,7,-1
 106.5 161 l 1,8,-1
 173.829101562 81 l 1,9,-1
 254.829101562 81 l 1,10,-1
 347.5 161 l 1,11,-1
 436.829101562 725 l 1,12,-1
 517.829101562 725 l 1,13,-1
 424.223632812 134 l 1,14,-1
 269 0 l 1,15,-1
 134 0 l 1,4,-1
EndSplineSet
EndChar

StartChar: Ucircumflex
Encoding: 219 219 156
Width: 537
GlyphClass: 2
Flags: MW
LayerCount: 2
Fore
SplineSet
257.381835938 779 m 1,0,-1
 212.934570312 833 l 1,1,-1
 336.881835938 940 l 1,2,-1
 363.881835938 940 l 1,3,-1
 453.934570312 833 l 1,4,-1
 392.381835938 779 l 1,5,-1
 346.934570312 833 l 1,6,-1
 334.993164062 846 l 1,7,-1
 257.381835938 779 l 1,0,-1
134 0 m 1,8,-1
 21.2236328125 134 l 1,9,-1
 114.829101562 725 l 1,10,-1
 195.829101562 725 l 1,11,-1
 106.5 161 l 1,12,-1
 173.829101562 81 l 1,13,-1
 254.829101562 81 l 1,14,-1
 347.5 161 l 1,15,-1
 436.829101562 725 l 1,16,-1
 517.829101562 725 l 1,17,-1
 424.223632812 134 l 1,18,-1
 269 0 l 1,19,-1
 134 0 l 1,8,-1
EndSplineSet
EndChar

StartChar: Udieresis
Encoding: 220 220 157
Width: 537
GlyphClass: 2
Flags: MW
LayerCount: 2
Fore
SplineSet
396.658203125 806 m 1,0,-1
 409.329101562 886 l 1,1,-1
 489.329101562 886 l 1,2,-1
 476.658203125 806 l 1,3,-1
 396.658203125 806 l 1,0,-1
181.658203125 806 m 1,4,-1
 194.329101562 886 l 1,5,-1
 274.329101562 886 l 1,6,-1
 261.658203125 806 l 1,7,-1
 181.658203125 806 l 1,4,-1
134 0 m 1,8,-1
 21.2236328125 134 l 1,9,-1
 114.829101562 725 l 1,10,-1
 195.829101562 725 l 1,11,-1
 106.5 161 l 1,12,-1
 173.829101562 81 l 1,13,-1
 254.829101562 81 l 1,14,-1
 347.5 161 l 1,15,-1
 436.829101562 725 l 1,16,-1
 517.829101562 725 l 1,17,-1
 424.223632812 134 l 1,18,-1
 269 0 l 1,19,-1
 134 0 l 1,8,-1
EndSplineSet
EndChar

StartChar: Yacute
Encoding: 221 221 158
Width: 537
GlyphClass: 2
Flags: MW
LayerCount: 2
Fore
SplineSet
311.381835938 779 m 1,0,-1
 265.934570312 833 l 1,1,-1
 390.881835938 940 l 1,2,-1
 435.329101562 886 l 1,3,-1
 311.381835938 779 l 1,0,-1
161 0 m 1,4,-1
 220.552734375 376 l 1,5,-1
 110.552734375 698 l 1,6,-1
 168.829101562 725 l 1,7,-1
 181.829101562 725 l 1,8,-1
 273.381835938 457 l 1,9,-1
 450.829101562 725 l 1,10,-1
 463.829101562 725 l 1,11,-1
 513.552734375 698 l 1,12,-1
 301.552734375 376 l 1,13,-1
 242 0 l 1,14,-1
 161 0 l 1,4,-1
EndSplineSet
EndChar

StartChar: Thorn
Encoding: 222 222 159
Width: 537
GlyphClass: 2
Flags: MW
LayerCount: 2
Fore
SplineSet
0 0 m 1,0,-1
 114.829101562 725 l 1,1,-1
 195.829101562 725 l 1,2,-1
 170.329101562 564 l 1,3,-1
 358.329101562 564 l 1,4,-1
 471.10546875 430 l 1,5,-1
 449.723632812 295 l 1,6,-1
 294.5 161 l 1,7,-1
 106.5 161 l 1,8,-1
 81 0 l 1,9,-1
 0 0 l 1,0,-1
280.329101562 242 m 1,10,-1
 373 322 l 1,11,-1
 385.829101562 403 l 1,12,-1
 318.5 483 l 1,13,-1
 157.5 483 l 1,14,-1
 119.329101562 242 l 1,15,-1
 280.329101562 242 l 1,10,-1
EndSplineSet
EndChar

StartChar: germandbls
Encoding: 223 223 160
Width: 537
GlyphClass: 2
Flags: MW
LayerCount: 2
Fore
SplineSet
0 0 m 1,0,-1
 97.8818359375 618 l 1,1,-1
 221.829101562 725 l 1,2,-1
 329.829101562 725 l 1,3,-1
 419.881835938 618 l 1,4,-1
 407.052734375 537 l 1,5,-1
 314.381835938 457 l 1,6,-1
 312.381835938 457 l 1,7,-1
 298.1640625 443 l 1,8,-1
 445.60546875 269 l 1,9,-1
 419.947265625 107 l 1,10,-1
 295 0 l 1,11,-1
 269 0 l 1,12,-1
 177.947265625 107 l 1,13,-1
 240.5 161 l 1,14,-1
 285.947265625 107 l 1,15,-1
 285.7890625 106 l 1,16,-1
 296.887695312 94 l 1,17,-1
 343.223632812 134 l 1,18,-1
 360.329101562 242 l 1,19,-1
 202.10546875 430 l 1,20,-1
 206.381835938 457 l 1,21,-1
 331.329101562 564 l 1,22,-1
 335.60546875 591 l 1,23,-1
 290.158203125 645 l 1,24,-1
 236.158203125 645 l 1,25,-1
 174.60546875 591 l 1,26,-1
 81 0 l 1,27,-1
 0 0 l 1,0,-1
EndSplineSet
EndChar

StartChar: agrave
Encoding: 224 224 161
Width: 537
GlyphClass: 2
Flags: MW
LayerCount: 2
Fore
SplineSet
312.881835938 618 m 1,0,-1
 221.829101562 725 l 1,1,-1
 284.381835938 779 l 1,2,-1
 375.276367188 671 l 1,3,-1
 312.881835938 618 l 1,0,-1
134 0 m 1,4,-1
 21.2236328125 134 l 1,5,-1
 34.052734375 215 l 1,6,-1
 189.276367188 349 l 1,7,-1
 377.276367188 349 l 1,8,-1
 385.829101562 403 l 1,9,-1
 318.5 483 l 1,10,-1
 237.5 483 l 1,11,-1
 113.552734375 376 l 1,12,-1
 68.10546875 430 l 1,13,-1
 223.329101562 564 l 1,14,-1
 358.329101562 564 l 1,15,-1
 471.10546875 430 l 1,16,-1
 403 0 l 1,17,-1
 322 0 l 1,18,-1
 334.829101562 81 l 1,19,-1
 242 0 l 1,20,-1
 134 0 l 1,4,-1
227.829101562 81 m 1,21,-1
 351.776367188 188 l 1,22,-1
 364.60546875 269 l 1,23,-1
 203.60546875 269 l 1,24,-1
 110.776367188 188 l 1,25,-1
 106.5 161 l 1,26,-1
 173.829101562 81 l 1,27,-1
 227.829101562 81 l 1,21,-1
EndSplineSet
EndChar

StartChar: aacute
Encoding: 225 225 162
Width: 537
GlyphClass: 2
Flags: MW
LayerCount: 2
Fore
SplineSet
285.881835938 618 m 1,0,-1
 240.276367188 671 l 1,1,-1
 365.381835938 779 l 1,2,-1
 409.829101562 725 l 1,3,-1
 285.881835938 618 l 1,0,-1
134 0 m 1,4,-1
 21.2236328125 134 l 1,5,-1
 34.052734375 215 l 1,6,-1
 189.276367188 349 l 1,7,-1
 377.276367188 349 l 1,8,-1
 385.829101562 403 l 1,9,-1
 318.5 483 l 1,10,-1
 237.5 483 l 1,11,-1
 113.552734375 376 l 1,12,-1
 68.10546875 430 l 1,13,-1
 223.329101562 564 l 1,14,-1
 358.329101562 564 l 1,15,-1
 471.10546875 430 l 1,16,-1
 403 0 l 1,17,-1
 322 0 l 1,18,-1
 334.829101562 81 l 1,19,-1
 242 0 l 1,20,-1
 134 0 l 1,4,-1
227.829101562 81 m 1,21,-1
 351.776367188 188 l 1,22,-1
 364.60546875 269 l 1,23,-1
 203.60546875 269 l 1,24,-1
 110.776367188 188 l 1,25,-1
 106.5 161 l 1,26,-1
 173.829101562 81 l 1,27,-1
 227.829101562 81 l 1,21,-1
EndSplineSet
EndChar

StartChar: acircumflex
Encoding: 226 226 163
Width: 537
GlyphClass: 2
Flags: MW
LayerCount: 2
Fore
SplineSet
231.881835938 618 m 1,0,-1
 187.276367188 671 l 1,1,-1
 311.381835938 779 l 1,2,-1
 338.381835938 779 l 1,3,-1
 428.276367188 671 l 1,4,-1
 366.881835938 618 l 1,5,-1
 321.276367188 671 l 1,6,-1
 309.493164062 685 l 1,7,-1
 231.881835938 618 l 1,0,-1
134 0 m 1,8,-1
 21.2236328125 134 l 1,9,-1
 34.052734375 215 l 1,10,-1
 189.276367188 349 l 1,11,-1
 377.276367188 349 l 1,12,-1
 385.829101562 403 l 1,13,-1
 318.5 483 l 1,14,-1
 237.5 483 l 1,15,-1
 113.552734375 376 l 1,16,-1
 68.10546875 430 l 1,17,-1
 223.329101562 564 l 1,18,-1
 358.329101562 564 l 1,19,-1
 471.10546875 430 l 1,20,-1
 403 0 l 1,21,-1
 322 0 l 1,22,-1
 334.829101562 81 l 1,23,-1
 242 0 l 1,24,-1
 134 0 l 1,8,-1
227.829101562 81 m 1,25,-1
 351.776367188 188 l 1,26,-1
 364.60546875 269 l 1,27,-1
 203.60546875 269 l 1,28,-1
 110.776367188 188 l 1,29,-1
 106.5 161 l 1,30,-1
 173.829101562 81 l 1,31,-1
 227.829101562 81 l 1,25,-1
EndSplineSet
EndChar

StartChar: atilde
Encoding: 227 227 164
Width: 537
GlyphClass: 2
Flags: MW
LayerCount: 2
Fore
SplineSet
178.881835938 618 m 1,0,-1
 133.276367188 671 l 1,1,-1
 226.10546875 752 l 1,2,-1
 307.10546875 752 l 1,3,-1
 352.552734375 698 l 1,4,-1
 379.552734375 698 l 1,5,-1
 441.10546875 752 l 1,6,-1
 486.552734375 698 l 1,7,-1
 392.881835938 618 l 1,8,-1
 312.881835938 618 l 1,9,-1
 267.276367188 671 l 1,10,-1
 240.276367188 671 l 1,11,-1
 178.881835938 618 l 1,0,-1
134 0 m 1,12,-1
 21.2236328125 134 l 1,13,-1
 34.052734375 215 l 1,14,-1
 189.276367188 349 l 1,15,-1
 377.276367188 349 l 1,16,-1
 385.829101562 403 l 1,17,-1
 318.5 483 l 1,18,-1
 237.5 483 l 1,19,-1
 113.552734375 376 l 1,20,-1
 68.10546875 430 l 1,21,-1
 223.329101562 564 l 1,22,-1
 358.329101562 564 l 1,23,-1
 471.10546875 430 l 1,24,-1
 403 0 l 1,25,-1
 322 0 l 1,26,-1
 334.829101562 81 l 1,27,-1
 242 0 l 1,28,-1
 134 0 l 1,12,-1
227.829101562 81 m 1,29,-1
 351.776367188 188 l 1,30,-1
 364.60546875 269 l 1,31,-1
 203.60546875 269 l 1,32,-1
 110.776367188 188 l 1,33,-1
 106.5 161 l 1,34,-1
 173.829101562 81 l 1,35,-1
 227.829101562 81 l 1,29,-1
EndSplineSet
EndChar

StartChar: adieresis
Encoding: 228 228 165
Width: 537
GlyphClass: 2
Flags: MW
LayerCount: 2
Fore
SplineSet
371.158203125 645 m 1,0,-1
 383.829101562 725 l 1,1,-1
 463.829101562 725 l 1,2,-1
 451.158203125 645 l 1,3,-1
 371.158203125 645 l 1,0,-1
156.158203125 645 m 1,4,-1
 168.829101562 725 l 1,5,-1
 248.829101562 725 l 1,6,-1
 236.158203125 645 l 1,7,-1
 156.158203125 645 l 1,4,-1
134 0 m 1,8,-1
 21.2236328125 134 l 1,9,-1
 34.052734375 215 l 1,10,-1
 189.276367188 349 l 1,11,-1
 377.276367188 349 l 1,12,-1
 385.829101562 403 l 1,13,-1
 318.5 483 l 1,14,-1
 237.5 483 l 1,15,-1
 113.552734375 376 l 1,16,-1
 68.10546875 430 l 1,17,-1
 223.329101562 564 l 1,18,-1
 358.329101562 564 l 1,19,-1
 471.10546875 430 l 1,20,-1
 403 0 l 1,21,-1
 322 0 l 1,22,-1
 334.829101562 81 l 1,23,-1
 242 0 l 1,24,-1
 134 0 l 1,8,-1
227.829101562 81 m 1,25,-1
 351.776367188 188 l 1,26,-1
 364.60546875 269 l 1,27,-1
 203.60546875 269 l 1,28,-1
 110.776367188 188 l 1,29,-1
 106.5 161 l 1,30,-1
 173.829101562 81 l 1,31,-1
 227.829101562 81 l 1,25,-1
EndSplineSet
EndChar

StartChar: aring
Encoding: 229 229 166
Width: 537
GlyphClass: 2
Flags: MW
LayerCount: 2
Fore
SplineSet
258.881835938 618 m 1,0,-1
 213.276367188 671 l 1,1,-1
 226.10546875 752 l 1,2,-1
 288.658203125 806 l 1,3,-1
 369.658203125 806 l 1,4,-1
 414.10546875 752 l 1,5,-1
 401.276367188 671 l 1,6,-1
 339.881835938 618 l 1,7,-1
 258.881835938 618 l 1,0,-1
321.276367188 671 m 1,8,-1
 352.552734375 698 l 1,9,-1
 356.829101562 725 l 1,10,-1
 334.10546875 752 l 1,11,-1
 307.10546875 752 l 1,12,-1
 275.829101562 725 l 1,13,-1
 271.552734375 698 l 1,14,-1
 294.276367188 671 l 1,15,-1
 321.276367188 671 l 1,8,-1
134 0 m 1,16,-1
 21.2236328125 134 l 1,17,-1
 34.052734375 215 l 1,18,-1
 189.276367188 349 l 1,19,-1
 377.276367188 349 l 1,20,-1
 385.829101562 403 l 1,21,-1
 318.5 483 l 1,22,-1
 237.5 483 l 1,23,-1
 113.552734375 376 l 1,24,-1
 68.10546875 430 l 1,25,-1
 223.329101562 564 l 1,26,-1
 358.329101562 564 l 1,27,-1
 471.10546875 430 l 1,28,-1
 403 0 l 1,29,-1
 322 0 l 1,30,-1
 334.829101562 81 l 1,31,-1
 242 0 l 1,32,-1
 134 0 l 1,16,-1
227.829101562 81 m 1,33,-1
 351.776367188 188 l 1,34,-1
 364.60546875 269 l 1,35,-1
 203.60546875 269 l 1,36,-1
 110.776367188 188 l 1,37,-1
 106.5 161 l 1,38,-1
 173.829101562 81 l 1,39,-1
 227.829101562 81 l 1,33,-1
EndSplineSet
EndChar

StartChar: ae
Encoding: 230 230 167
Width: 537
GlyphClass: 2
Flags: MW
LayerCount: 2
Fore
SplineSet
107 0 m 1,0,-1
 16.947265625 107 l 1,1,-1
 38.3291015625 242 l 1,2,-1
 162.276367188 349 l 1,3,-1
 216.276367188 349 l 1,4,-1
 229.10546875 430 l 1,5,-1
 206.381835938 457 l 1,6,-1
 195.440429688 470 l 1,7,-1
 117.829101562 403 l 1,8,-1
 72.3818359375 457 l 1,9,-1
 196.329101562 564 l 1,10,-1
 223.329101562 564 l 1,11,-1
 268.776367188 510 l 1,12,-1
 268.618164062 509 l 1,13,-1
 279.716796875 497 l 1,14,-1
 358.329101562 564 l 1,15,-1
 384.329101562 564 l 1,16,-1
 475.381835938 457 l 1,17,-1
 441.329101562 242 l 1,18,-1
 280.329101562 242 l 1,19,-1
 263.223632812 134 l 1,20,-1
 285.947265625 107 l 1,21,-1
 285.7890625 106 l 1,22,-1
 296.887695312 94 l 1,23,-1
 374.5 161 l 1,24,-1
 419.947265625 107 l 1,25,-1
 295 0 l 1,26,-1
 269 0 l 1,27,-1
 223.552734375 54 l 1,28,-1
 211.611328125 67 l 1,29,-1
 134 0 l 1,30,-1
 107 0 l 1,0,-1
373 322 m 1,31,-1
 390.10546875 430 l 1,32,-1
 367.381835938 457 l 1,33,-1
 356.440429688 470 l 1,34,-1
 310.10546875 430 l 1,35,-1
 293 322 l 1,36,-1
 373 322 l 1,31,-1
135.887695312 94 m 1,37,-1
 182.223632812 134 l 1,38,-1
 203.60546875 269 l 1,39,-1
 176.60546875 269 l 1,40,-1
 115.052734375 215 l 1,41,-1
 102.223632812 134 l 1,42,-1
 123.947265625 107 l 1,43,-1
 123.7890625 106 l 1,44,-1
 135.887695312 94 l 1,37,-1
EndSplineSet
EndChar

StartChar: ccedilla
Encoding: 231 231 168
Width: 537
GlyphClass: 2
Flags: MW
LayerCount: 2
Fore
SplineSet
135.5 -161 m 1,0,-1
 90.052734375 -107 l 1,1,-1
 152.447265625 -54 l 1,2,-1
 161 0 l 1,3,-1
 134 0 l 1,4,-1
 21.2236328125 134 l 1,5,-1
 68.10546875 430 l 1,6,-1
 223.329101562 564 l 1,7,-1
 358.329101562 564 l 1,8,-1
 471.10546875 430 l 1,9,-1
 408.552734375 376 l 1,10,-1
 318.5 483 l 1,11,-1
 237.5 483 l 1,12,-1
 144.829101562 403 l 1,13,-1
 106.5 161 l 1,14,-1
 173.829101562 81 l 1,15,-1
 254.829101562 81 l 1,16,-1
 378.776367188 188 l 1,17,-1
 424.223632812 134 l 1,18,-1
 269 0 l 1,19,-1
 242 0 l 1,20,-1
 229.170898438 -81 l 1,21,-1
 135.5 -161 l 1,0,-1
EndSplineSet
EndChar

StartChar: egrave
Encoding: 232 232 169
Width: 537
GlyphClass: 2
Flags: MW
LayerCount: 2
Fore
SplineSet
312.881835938 618 m 1,0,-1
 221.829101562 725 l 1,1,-1
 284.381835938 779 l 1,2,-1
 375.276367188 671 l 1,3,-1
 312.881835938 618 l 1,0,-1
134 0 m 1,4,-1
 21.2236328125 134 l 1,5,-1
 68.10546875 430 l 1,6,-1
 223.329101562 564 l 1,7,-1
 358.329101562 564 l 1,8,-1
 471.10546875 430 l 1,9,-1
 441.329101562 242 l 1,10,-1
 119.329101562 242 l 1,11,-1
 106.5 161 l 1,12,-1
 173.829101562 81 l 1,13,-1
 254.829101562 81 l 1,14,-1
 378.776367188 188 l 1,15,-1
 424.223632812 134 l 1,16,-1
 269 0 l 1,17,-1
 134 0 l 1,4,-1
373 322 m 1,18,-1
 385.829101562 403 l 1,19,-1
 318.5 483 l 1,20,-1
 237.5 483 l 1,21,-1
 144.829101562 403 l 1,22,-1
 132 322 l 1,23,-1
 373 322 l 1,18,-1
EndSplineSet
EndChar

StartChar: eacute
Encoding: 233 233 170
Width: 537
GlyphClass: 2
Flags: MW
LayerCount: 2
Fore
SplineSet
285.881835938 618 m 1,0,-1
 240.276367188 671 l 1,1,-1
 365.381835938 779 l 1,2,-1
 409.829101562 725 l 1,3,-1
 285.881835938 618 l 1,0,-1
134 0 m 1,4,-1
 21.2236328125 134 l 1,5,-1
 68.10546875 430 l 1,6,-1
 223.329101562 564 l 1,7,-1
 358.329101562 564 l 1,8,-1
 471.10546875 430 l 1,9,-1
 441.329101562 242 l 1,10,-1
 119.329101562 242 l 1,11,-1
 106.5 161 l 1,12,-1
 173.829101562 81 l 1,13,-1
 254.829101562 81 l 1,14,-1
 378.776367188 188 l 1,15,-1
 424.223632812 134 l 1,16,-1
 269 0 l 1,17,-1
 134 0 l 1,4,-1
373 322 m 1,18,-1
 385.829101562 403 l 1,19,-1
 318.5 483 l 1,20,-1
 237.5 483 l 1,21,-1
 144.829101562 403 l 1,22,-1
 132 322 l 1,23,-1
 373 322 l 1,18,-1
EndSplineSet
EndChar

StartChar: ecircumflex
Encoding: 234 234 171
Width: 537
GlyphClass: 2
Flags: MW
LayerCount: 2
Fore
SplineSet
231.881835938 618 m 1,0,-1
 187.276367188 671 l 1,1,-1
 311.381835938 779 l 1,2,-1
 338.381835938 779 l 1,3,-1
 428.276367188 671 l 1,4,-1
 366.881835938 618 l 1,5,-1
 321.276367188 671 l 1,6,-1
 309.493164062 685 l 1,7,-1
 231.881835938 618 l 1,0,-1
134 0 m 1,8,-1
 21.2236328125 134 l 1,9,-1
 68.10546875 430 l 1,10,-1
 223.329101562 564 l 1,11,-1
 358.329101562 564 l 1,12,-1
 471.10546875 430 l 1,13,-1
 441.329101562 242 l 1,14,-1
 119.329101562 242 l 1,15,-1
 106.5 161 l 1,16,-1
 173.829101562 81 l 1,17,-1
 254.829101562 81 l 1,18,-1
 378.776367188 188 l 1,19,-1
 424.223632812 134 l 1,20,-1
 269 0 l 1,21,-1
 134 0 l 1,8,-1
373 322 m 1,22,-1
 385.829101562 403 l 1,23,-1
 318.5 483 l 1,24,-1
 237.5 483 l 1,25,-1
 144.829101562 403 l 1,26,-1
 132 322 l 1,27,-1
 373 322 l 1,22,-1
EndSplineSet
EndChar

StartChar: edieresis
Encoding: 235 235 172
Width: 537
GlyphClass: 2
Flags: MW
LayerCount: 2
Fore
SplineSet
371.158203125 645 m 1,0,-1
 383.829101562 725 l 1,1,-1
 463.829101562 725 l 1,2,-1
 451.158203125 645 l 1,3,-1
 371.158203125 645 l 1,0,-1
156.158203125 645 m 1,4,-1
 168.829101562 725 l 1,5,-1
 248.829101562 725 l 1,6,-1
 236.158203125 645 l 1,7,-1
 156.158203125 645 l 1,4,-1
134 0 m 1,8,-1
 21.2236328125 134 l 1,9,-1
 68.10546875 430 l 1,10,-1
 223.329101562 564 l 1,11,-1
 358.329101562 564 l 1,12,-1
 471.10546875 430 l 1,13,-1
 441.329101562 242 l 1,14,-1
 119.329101562 242 l 1,15,-1
 106.5 161 l 1,16,-1
 173.829101562 81 l 1,17,-1
 254.829101562 81 l 1,18,-1
 378.776367188 188 l 1,19,-1
 424.223632812 134 l 1,20,-1
 269 0 l 1,21,-1
 134 0 l 1,8,-1
373 322 m 1,22,-1
 385.829101562 403 l 1,23,-1
 318.5 483 l 1,24,-1
 237.5 483 l 1,25,-1
 144.829101562 403 l 1,26,-1
 132 322 l 1,27,-1
 373 322 l 1,22,-1
EndSplineSet
EndChar

StartChar: igrave
Encoding: 236 236 173
Width: 537
GlyphClass: 2
Flags: MW
LayerCount: 2
Fore
SplineSet
312.881835938 618 m 1,0,-1
 221.829101562 725 l 1,1,-1
 284.381835938 779 l 1,2,-1
 375.276367188 671 l 1,3,-1
 312.881835938 618 l 1,0,-1
81 0 m 1,4,-1
 93.8291015625 81 l 1,5,-1
 173.829101562 81 l 1,6,-1
 237.5 483 l 1,7,-1
 157.5 483 l 1,8,-1
 170.329101562 564 l 1,9,-1
 331.329101562 564 l 1,10,-1
 254.829101562 81 l 1,11,-1
 334.829101562 81 l 1,12,-1
 322 0 l 1,13,-1
 81 0 l 1,4,-1
EndSplineSet
EndChar

StartChar: iacute
Encoding: 237 237 174
Width: 537
GlyphClass: 2
Flags: MW
LayerCount: 2
Fore
SplineSet
285.881835938 618 m 1,0,-1
 240.276367188 671 l 1,1,-1
 365.381835938 779 l 1,2,-1
 409.829101562 725 l 1,3,-1
 285.881835938 618 l 1,0,-1
81 0 m 1,4,-1
 93.8291015625 81 l 1,5,-1
 173.829101562 81 l 1,6,-1
 237.5 483 l 1,7,-1
 157.5 483 l 1,8,-1
 170.329101562 564 l 1,9,-1
 331.329101562 564 l 1,10,-1
 254.829101562 81 l 1,11,-1
 334.829101562 81 l 1,12,-1
 322 0 l 1,13,-1
 81 0 l 1,4,-1
EndSplineSet
EndChar

StartChar: icircumflex
Encoding: 238 238 175
Width: 537
GlyphClass: 2
Flags: MW
LayerCount: 2
Fore
SplineSet
231.881835938 618 m 1,0,-1
 187.276367188 671 l 1,1,-1
 311.381835938 779 l 1,2,-1
 338.381835938 779 l 1,3,-1
 428.276367188 671 l 1,4,-1
 366.881835938 618 l 1,5,-1
 321.276367188 671 l 1,6,-1
 309.493164062 685 l 1,7,-1
 231.881835938 618 l 1,0,-1
81 0 m 1,8,-1
 93.8291015625 81 l 1,9,-1
 173.829101562 81 l 1,10,-1
 237.5 483 l 1,11,-1
 157.5 483 l 1,12,-1
 170.329101562 564 l 1,13,-1
 331.329101562 564 l 1,14,-1
 254.829101562 81 l 1,15,-1
 334.829101562 81 l 1,16,-1
 322 0 l 1,17,-1
 81 0 l 1,8,-1
EndSplineSet
EndChar

StartChar: idieresis
Encoding: 239 239 176
Width: 537
GlyphClass: 2
Flags: MW
LayerCount: 2
Fore
SplineSet
371.158203125 645 m 1,0,-1
 383.829101562 725 l 1,1,-1
 463.829101562 725 l 1,2,-1
 451.158203125 645 l 1,3,-1
 371.158203125 645 l 1,0,-1
156.158203125 645 m 1,4,-1
 168.829101562 725 l 1,5,-1
 248.829101562 725 l 1,6,-1
 236.158203125 645 l 1,7,-1
 156.158203125 645 l 1,4,-1
81 0 m 1,8,-1
 93.8291015625 81 l 1,9,-1
 173.829101562 81 l 1,10,-1
 237.5 483 l 1,11,-1
 157.5 483 l 1,12,-1
 170.329101562 564 l 1,13,-1
 331.329101562 564 l 1,14,-1
 254.829101562 81 l 1,15,-1
 334.829101562 81 l 1,16,-1
 322 0 l 1,17,-1
 81 0 l 1,8,-1
EndSplineSet
EndChar

StartChar: eth
Encoding: 240 240 177
Width: 537
GlyphClass: 2
Flags: MW
LayerCount: 2
Fore
SplineSet
134 0 m 1,0,-1
 21.2236328125 134 l 1,1,-1
 55.2763671875 349 l 1,2,-1
 210.5 483 l 1,3,-1
 345.5 483 l 1,4,-1
 390.10546875 430 l 1,5,-1
 398.5 483 l 1,6,-1
 365.705078125 579 l 1,7,-1
 273.052734375 537 l 1,8,-1
 254.60546875 591 l 1,9,-1
 256.6640625 604 l 1,10,-1
 344.158203125 645 l 1,11,-1
 325.552734375 698 l 1,12,-1
 383.829101562 725 l 1,13,-1
 396.829101562 725 l 1,14,-1
 413.2265625 677 l 1,15,-1
 517.829101562 725 l 1,16,-1
 536.276367188 671 l 1,17,-1
 534.216796875 658 l 1,18,-1
 433.772460938 611 l 1,19,-1
 479.5 483 l 1,20,-1
 424.223632812 134 l 1,21,-1
 269 0 l 1,22,-1
 134 0 l 1,0,-1
254.829101562 81 m 1,23,-1
 347.5 161 l 1,24,-1
 373 322 l 1,25,-1
 305.829101562 403 l 1,26,-1
 224.829101562 403 l 1,27,-1
 132 322 l 1,28,-1
 106.5 161 l 1,29,-1
 173.829101562 81 l 1,30,-1
 254.829101562 81 l 1,23,-1
EndSplineSet
EndChar

StartChar: ntilde
Encoding: 241 241 178
Width: 537
GlyphClass: 2
Flags: MW
LayerCount: 2
Fore
SplineSet
178.881835938 618 m 1,0,-1
 133.276367188 671 l 1,1,-1
 226.10546875 752 l 1,2,-1
 307.10546875 752 l 1,3,-1
 352.552734375 698 l 1,4,-1
 379.552734375 698 l 1,5,-1
 441.10546875 752 l 1,6,-1
 486.552734375 698 l 1,7,-1
 392.881835938 618 l 1,8,-1
 312.881835938 618 l 1,9,-1
 267.276367188 671 l 1,10,-1
 240.276367188 671 l 1,11,-1
 178.881835938 618 l 1,0,-1
0 0 m 1,12,-1
 89.3291015625 564 l 1,13,-1
 170.329101562 564 l 1,14,-1
 157.5 483 l 1,15,-1
 250.329101562 564 l 1,16,-1
 358.329101562 564 l 1,17,-1
 471.10546875 430 l 1,18,-1
 403 0 l 1,19,-1
 322 0 l 1,20,-1
 385.829101562 403 l 1,21,-1
 318.5 483 l 1,22,-1
 264.5 483 l 1,23,-1
 140.552734375 376 l 1,24,-1
 81 0 l 1,25,-1
 0 0 l 1,12,-1
EndSplineSet
EndChar

StartChar: ograve
Encoding: 242 242 179
Width: 537
GlyphClass: 2
Flags: MW
LayerCount: 2
Fore
SplineSet
312.881835938 618 m 1,0,-1
 221.829101562 725 l 1,1,-1
 284.381835938 779 l 1,2,-1
 375.276367188 671 l 1,3,-1
 312.881835938 618 l 1,0,-1
134 0 m 1,4,-1
 21.2236328125 134 l 1,5,-1
 68.10546875 430 l 1,6,-1
 223.329101562 564 l 1,7,-1
 358.329101562 564 l 1,8,-1
 471.10546875 430 l 1,9,-1
 424.223632812 134 l 1,10,-1
 269 0 l 1,11,-1
 134 0 l 1,4,-1
254.829101562 81 m 1,12,-1
 347.5 161 l 1,13,-1
 385.829101562 403 l 1,14,-1
 318.5 483 l 1,15,-1
 237.5 483 l 1,16,-1
 144.829101562 403 l 1,17,-1
 106.5 161 l 1,18,-1
 173.829101562 81 l 1,19,-1
 254.829101562 81 l 1,12,-1
EndSplineSet
EndChar

StartChar: oacute
Encoding: 243 243 180
Width: 537
GlyphClass: 2
Flags: MW
LayerCount: 2
Fore
SplineSet
285.881835938 618 m 1,0,-1
 240.276367188 671 l 1,1,-1
 365.381835938 779 l 1,2,-1
 409.829101562 725 l 1,3,-1
 285.881835938 618 l 1,0,-1
134 0 m 1,4,-1
 21.2236328125 134 l 1,5,-1
 68.10546875 430 l 1,6,-1
 223.329101562 564 l 1,7,-1
 358.329101562 564 l 1,8,-1
 471.10546875 430 l 1,9,-1
 424.223632812 134 l 1,10,-1
 269 0 l 1,11,-1
 134 0 l 1,4,-1
254.829101562 81 m 1,12,-1
 347.5 161 l 1,13,-1
 385.829101562 403 l 1,14,-1
 318.5 483 l 1,15,-1
 237.5 483 l 1,16,-1
 144.829101562 403 l 1,17,-1
 106.5 161 l 1,18,-1
 173.829101562 81 l 1,19,-1
 254.829101562 81 l 1,12,-1
EndSplineSet
EndChar

StartChar: ocircumflex
Encoding: 244 244 181
Width: 537
GlyphClass: 2
Flags: MW
LayerCount: 2
Fore
SplineSet
231.881835938 618 m 1,0,-1
 187.276367188 671 l 1,1,-1
 311.381835938 779 l 1,2,-1
 338.381835938 779 l 1,3,-1
 428.276367188 671 l 1,4,-1
 366.881835938 618 l 1,5,-1
 321.276367188 671 l 1,6,-1
 309.493164062 685 l 1,7,-1
 231.881835938 618 l 1,0,-1
134 0 m 1,8,-1
 21.2236328125 134 l 1,9,-1
 68.10546875 430 l 1,10,-1
 223.329101562 564 l 1,11,-1
 358.329101562 564 l 1,12,-1
 471.10546875 430 l 1,13,-1
 424.223632812 134 l 1,14,-1
 269 0 l 1,15,-1
 134 0 l 1,8,-1
254.829101562 81 m 1,16,-1
 347.5 161 l 1,17,-1
 385.829101562 403 l 1,18,-1
 318.5 483 l 1,19,-1
 237.5 483 l 1,20,-1
 144.829101562 403 l 1,21,-1
 106.5 161 l 1,22,-1
 173.829101562 81 l 1,23,-1
 254.829101562 81 l 1,16,-1
EndSplineSet
EndChar

StartChar: otilde
Encoding: 245 245 182
Width: 537
GlyphClass: 2
Flags: MW
LayerCount: 2
Fore
SplineSet
178.881835938 618 m 1,0,-1
 133.276367188 671 l 1,1,-1
 226.10546875 752 l 1,2,-1
 307.10546875 752 l 1,3,-1
 352.552734375 698 l 1,4,-1
 379.552734375 698 l 1,5,-1
 441.10546875 752 l 1,6,-1
 486.552734375 698 l 1,7,-1
 392.881835938 618 l 1,8,-1
 312.881835938 618 l 1,9,-1
 267.276367188 671 l 1,10,-1
 240.276367188 671 l 1,11,-1
 178.881835938 618 l 1,0,-1
134 0 m 1,12,-1
 21.2236328125 134 l 1,13,-1
 68.10546875 430 l 1,14,-1
 223.329101562 564 l 1,15,-1
 358.329101562 564 l 1,16,-1
 471.10546875 430 l 1,17,-1
 424.223632812 134 l 1,18,-1
 269 0 l 1,19,-1
 134 0 l 1,12,-1
254.829101562 81 m 1,20,-1
 347.5 161 l 1,21,-1
 385.829101562 403 l 1,22,-1
 318.5 483 l 1,23,-1
 237.5 483 l 1,24,-1
 144.829101562 403 l 1,25,-1
 106.5 161 l 1,26,-1
 173.829101562 81 l 1,27,-1
 254.829101562 81 l 1,20,-1
EndSplineSet
EndChar

StartChar: odieresis
Encoding: 246 246 183
Width: 537
GlyphClass: 2
Flags: MW
LayerCount: 2
Fore
SplineSet
371.158203125 645 m 1,0,-1
 383.829101562 725 l 1,1,-1
 463.829101562 725 l 1,2,-1
 451.158203125 645 l 1,3,-1
 371.158203125 645 l 1,0,-1
156.158203125 645 m 1,4,-1
 168.829101562 725 l 1,5,-1
 248.829101562 725 l 1,6,-1
 236.158203125 645 l 1,7,-1
 156.158203125 645 l 1,4,-1
134 0 m 1,8,-1
 21.2236328125 134 l 1,9,-1
 68.10546875 430 l 1,10,-1
 223.329101562 564 l 1,11,-1
 358.329101562 564 l 1,12,-1
 471.10546875 430 l 1,13,-1
 424.223632812 134 l 1,14,-1
 269 0 l 1,15,-1
 134 0 l 1,8,-1
254.829101562 81 m 1,16,-1
 347.5 161 l 1,17,-1
 385.829101562 403 l 1,18,-1
 318.5 483 l 1,19,-1
 237.5 483 l 1,20,-1
 144.829101562 403 l 1,21,-1
 106.5 161 l 1,22,-1
 173.829101562 81 l 1,23,-1
 254.829101562 81 l 1,16,-1
EndSplineSet
EndChar

StartChar: divide
Encoding: 247 247 184
Width: 537
GlyphClass: 2
Flags: MW
LayerCount: 2
Fore
SplineSet
237.5 483 m 1,0,-1
 250.329101562 564 l 1,1,-1
 331.329101562 564 l 1,2,-1
 318.5 483 l 1,3,-1
 237.5 483 l 1,0,-1
51 322 m 1,4,-1
 63.8291015625 403 l 1,5,-1
 466.829101562 403 l 1,6,-1
 454 322 l 1,7,-1
 51 322 l 1,4,-1
186.5 161 m 1,8,-1
 199.329101562 242 l 1,9,-1
 280.329101562 242 l 1,10,-1
 267.5 161 l 1,11,-1
 186.5 161 l 1,8,-1
EndSplineSet
EndChar

StartChar: oslash
Encoding: 248 248 185
Width: 537
GlyphClass: 2
Flags: MW
LayerCount: 2
Fore
SplineSet
41.1708984375 -81 m 1,0,-1
 -8.552734375 -54 l 1,1,-1
 73.2451171875 71 l 1,2,-1
 21.2236328125 134 l 1,3,-1
 68.10546875 430 l 1,4,-1
 223.329101562 564 l 1,5,-1
 358.329101562 564 l 1,6,-1
 380.052734375 537 l 1,7,-1
 433.881835938 618 l 1,8,-1
 446.881835938 618 l 1,9,-1
 496.60546875 591 l 1,10,-1
 425.5 483 l 1,11,-1
 471.10546875 430 l 1,12,-1
 424.223632812 134 l 1,13,-1
 269 0 l 1,14,-1
 134 0 l 1,15,-1
 118.692382812 17 l 1,16,-1
 54.1708984375 -81 l 1,17,-1
 41.1708984375 -81 l 1,0,-1
119.649414062 143 m 1,18,-1
 332.6484375 465 l 1,19,-1
 318.5 483 l 1,20,-1
 237.5 483 l 1,21,-1
 144.829101562 403 l 1,22,-1
 106.5 161 l 1,23,-1
 119.649414062 143 l 1,18,-1
254.829101562 81 m 1,24,-1
 347.5 161 l 1,25,-1
 385.829101562 403 l 1,26,-1
 377.095703125 411 l 1,27,-1
 165.096679688 89 l 1,28,-1
 173.829101562 81 l 1,29,-1
 254.829101562 81 l 1,24,-1
EndSplineSet
EndChar

StartChar: ugrave
Encoding: 249 249 186
Width: 537
GlyphClass: 2
Flags: MW
LayerCount: 2
Fore
SplineSet
312.881835938 618 m 1,0,-1
 221.829101562 725 l 1,1,-1
 284.381835938 779 l 1,2,-1
 375.276367188 671 l 1,3,-1
 312.881835938 618 l 1,0,-1
134 0 m 1,4,-1
 21.2236328125 134 l 1,5,-1
 89.3291015625 564 l 1,6,-1
 170.329101562 564 l 1,7,-1
 106.5 161 l 1,8,-1
 173.829101562 81 l 1,9,-1
 227.829101562 81 l 1,10,-1
 351.776367188 188 l 1,11,-1
 411.329101562 564 l 1,12,-1
 492.329101562 564 l 1,13,-1
 403 0 l 1,14,-1
 322 0 l 1,15,-1
 334.829101562 81 l 1,16,-1
 242 0 l 1,17,-1
 134 0 l 1,4,-1
EndSplineSet
EndChar

StartChar: uacute
Encoding: 250 250 187
Width: 537
GlyphClass: 2
Flags: MW
LayerCount: 2
Fore
SplineSet
285.881835938 618 m 1,0,-1
 240.276367188 671 l 1,1,-1
 365.381835938 779 l 1,2,-1
 409.829101562 725 l 1,3,-1
 285.881835938 618 l 1,0,-1
134 0 m 1,4,-1
 21.2236328125 134 l 1,5,-1
 89.3291015625 564 l 1,6,-1
 170.329101562 564 l 1,7,-1
 106.5 161 l 1,8,-1
 173.829101562 81 l 1,9,-1
 227.829101562 81 l 1,10,-1
 351.776367188 188 l 1,11,-1
 411.329101562 564 l 1,12,-1
 492.329101562 564 l 1,13,-1
 403 0 l 1,14,-1
 322 0 l 1,15,-1
 334.829101562 81 l 1,16,-1
 242 0 l 1,17,-1
 134 0 l 1,4,-1
EndSplineSet
EndChar

StartChar: ucircumflex
Encoding: 251 251 188
Width: 537
GlyphClass: 2
Flags: MW
LayerCount: 2
Fore
SplineSet
231.881835938 618 m 1,0,-1
 187.276367188 671 l 1,1,-1
 311.381835938 779 l 1,2,-1
 338.381835938 779 l 1,3,-1
 428.276367188 671 l 1,4,-1
 366.881835938 618 l 1,5,-1
 321.276367188 671 l 1,6,-1
 309.493164062 685 l 1,7,-1
 231.881835938 618 l 1,0,-1
134 0 m 1,8,-1
 21.2236328125 134 l 1,9,-1
 89.3291015625 564 l 1,10,-1
 170.329101562 564 l 1,11,-1
 106.5 161 l 1,12,-1
 173.829101562 81 l 1,13,-1
 227.829101562 81 l 1,14,-1
 351.776367188 188 l 1,15,-1
 411.329101562 564 l 1,16,-1
 492.329101562 564 l 1,17,-1
 403 0 l 1,18,-1
 322 0 l 1,19,-1
 334.829101562 81 l 1,20,-1
 242 0 l 1,21,-1
 134 0 l 1,8,-1
EndSplineSet
EndChar

StartChar: udieresis
Encoding: 252 252 189
Width: 537
GlyphClass: 2
Flags: MW
LayerCount: 2
Fore
SplineSet
371.158203125 645 m 1,0,-1
 383.829101562 725 l 1,1,-1
 463.829101562 725 l 1,2,-1
 451.158203125 645 l 1,3,-1
 371.158203125 645 l 1,0,-1
156.158203125 645 m 1,4,-1
 168.829101562 725 l 1,5,-1
 248.829101562 725 l 1,6,-1
 236.158203125 645 l 1,7,-1
 156.158203125 645 l 1,4,-1
134 0 m 1,8,-1
 21.2236328125 134 l 1,9,-1
 89.3291015625 564 l 1,10,-1
 170.329101562 564 l 1,11,-1
 106.5 161 l 1,12,-1
 173.829101562 81 l 1,13,-1
 227.829101562 81 l 1,14,-1
 351.776367188 188 l 1,15,-1
 411.329101562 564 l 1,16,-1
 492.329101562 564 l 1,17,-1
 403 0 l 1,18,-1
 322 0 l 1,19,-1
 334.829101562 81 l 1,20,-1
 242 0 l 1,21,-1
 134 0 l 1,8,-1
EndSplineSet
EndChar

StartChar: yacute
Encoding: 253 253 190
Width: 537
GlyphClass: 2
Flags: MW
LayerCount: 2
Fore
SplineSet
285.881835938 618 m 1,0,-1
 240.276367188 671 l 1,1,-1
 365.381835938 779 l 1,2,-1
 409.829101562 725 l 1,3,-1
 285.881835938 618 l 1,0,-1
108.5 -161 m 1,4,-1
 59.7763671875 -134 l 1,5,-1
 165.276367188 27 l 1,6,-1
 55.2763671875 349 l 1,7,-1
 89.3291015625 564 l 1,8,-1
 170.329101562 564 l 1,9,-1
 136.276367188 349 l 1,10,-1
 217.947265625 107 l 1,11,-1
 377.276367188 349 l 1,12,-1
 411.329101562 564 l 1,13,-1
 492.329101562 564 l 1,14,-1
 458.276367188 349 l 1,15,-1
 122.5 -161 l 1,16,-1
 108.5 -161 l 1,4,-1
EndSplineSet
EndChar

StartChar: thorn
Encoding: 254 254 191
Width: 537
GlyphClass: 2
Flags: MW
LayerCount: 2
Fore
SplineSet
-25.5 -161 m 1,0,-1
 114.829101562 725 l 1,1,-1
 195.829101562 725 l 1,2,-1
 157.5 483 l 1,3,-1
 250.329101562 564 l 1,4,-1
 358.329101562 564 l 1,5,-1
 471.10546875 430 l 1,6,-1
 424.223632812 134 l 1,7,-1
 269 0 l 1,8,-1
 134 0 l 1,9,-1
 89.552734375 54 l 1,10,-1
 55.5 -161 l 1,11,-1
 -25.5 -161 l 1,0,-1
254.829101562 81 m 1,12,-1
 347.5 161 l 1,13,-1
 385.829101562 403 l 1,14,-1
 318.5 483 l 1,15,-1
 264.5 483 l 1,16,-1
 140.552734375 376 l 1,17,-1
 106.5 161 l 1,18,-1
 173.829101562 81 l 1,19,-1
 254.829101562 81 l 1,12,-1
EndSplineSet
EndChar

StartChar: ydieresis
Encoding: 255 255 192
Width: 537
GlyphClass: 2
Flags: MW
LayerCount: 2
Fore
SplineSet
371.158203125 645 m 1,0,-1
 383.829101562 725 l 1,1,-1
 463.829101562 725 l 1,2,-1
 451.158203125 645 l 1,3,-1
 371.158203125 645 l 1,0,-1
156.158203125 645 m 1,4,-1
 168.829101562 725 l 1,5,-1
 248.829101562 725 l 1,6,-1
 236.158203125 645 l 1,7,-1
 156.158203125 645 l 1,4,-1
108.5 -161 m 1,8,-1
 59.7763671875 -134 l 1,9,-1
 165.276367188 27 l 1,10,-1
 55.2763671875 349 l 1,11,-1
 89.3291015625 564 l 1,12,-1
 170.329101562 564 l 1,13,-1
 136.276367188 349 l 1,14,-1
 217.947265625 107 l 1,15,-1
 377.276367188 349 l 1,16,-1
 411.329101562 564 l 1,17,-1
 492.329101562 564 l 1,18,-1
 458.276367188 349 l 1,19,-1
 122.5 -161 l 1,20,-1
 108.5 -161 l 1,8,-1
EndSplineSet
EndChar

StartChar: Amacron
Encoding: 256 256 193
Width: 537
GlyphClass: 2
Flags: MW
LayerCount: 2
Fore
SplineSet
181.658203125 806 m 1,0,-1
 194.329101562 886 l 1,1,-1
 489.329101562 886 l 1,2,-1
 476.658203125 806 l 1,3,-1
 181.658203125 806 l 1,0,-1
0 0 m 1,4,-1
 59.552734375 376 l 1,5,-1
 289.829101562 725 l 1,6,-1
 342.829101562 725 l 1,7,-1
 462.552734375 376 l 1,8,-1
 403 0 l 1,9,-1
 322 0 l 1,10,-1
 360.329101562 242 l 1,11,-1
 119.329101562 242 l 1,12,-1
 81 0 l 1,13,-1
 0 0 l 1,4,-1
373 322 m 1,14,-1
 381.552734375 376 l 1,15,-1
 298.881835938 618 l 1,16,-1
 140.552734375 376 l 1,17,-1
 132 322 l 1,18,-1
 373 322 l 1,14,-1
EndSplineSet
EndChar

StartChar: amacron
Encoding: 257 257 194
Width: 537
GlyphClass: 2
Flags: MW
LayerCount: 2
Fore
SplineSet
156.158203125 645 m 1,0,-1
 168.829101562 725 l 1,1,-1
 463.829101562 725 l 1,2,-1
 451.158203125 645 l 1,3,-1
 156.158203125 645 l 1,0,-1
134 0 m 1,4,-1
 21.2236328125 134 l 1,5,-1
 34.052734375 215 l 1,6,-1
 189.276367188 349 l 1,7,-1
 377.276367188 349 l 1,8,-1
 385.829101562 403 l 1,9,-1
 318.5 483 l 1,10,-1
 237.5 483 l 1,11,-1
 113.552734375 376 l 1,12,-1
 68.10546875 430 l 1,13,-1
 223.329101562 564 l 1,14,-1
 358.329101562 564 l 1,15,-1
 471.10546875 430 l 1,16,-1
 403 0 l 1,17,-1
 322 0 l 1,18,-1
 334.829101562 81 l 1,19,-1
 242 0 l 1,20,-1
 134 0 l 1,4,-1
227.829101562 81 m 1,21,-1
 351.776367188 188 l 1,22,-1
 364.60546875 269 l 1,23,-1
 203.60546875 269 l 1,24,-1
 110.776367188 188 l 1,25,-1
 106.5 161 l 1,26,-1
 173.829101562 81 l 1,27,-1
 227.829101562 81 l 1,21,-1
EndSplineSet
EndChar

StartChar: Abreve
Encoding: 258 258 195
Width: 537
GlyphClass: 2
Flags: MW
LayerCount: 2
Fore
SplineSet
257.381835938 779 m 1,0,-1
 190.051757812 859 l 1,1,-1
 251.60546875 913 l 1,2,-1
 297.051757812 859 l 1,3,-1
 378.051757812 859 l 1,4,-1
 439.60546875 913 l 1,5,-1
 485.051757812 859 l 1,6,-1
 392.381835938 779 l 1,7,-1
 257.381835938 779 l 1,0,-1
0 0 m 1,8,-1
 59.552734375 376 l 1,9,-1
 289.829101562 725 l 1,10,-1
 342.829101562 725 l 1,11,-1
 462.552734375 376 l 1,12,-1
 403 0 l 1,13,-1
 322 0 l 1,14,-1
 360.329101562 242 l 1,15,-1
 119.329101562 242 l 1,16,-1
 81 0 l 1,17,-1
 0 0 l 1,8,-1
373 322 m 1,18,-1
 381.552734375 376 l 1,19,-1
 298.881835938 618 l 1,20,-1
 140.552734375 376 l 1,21,-1
 132 322 l 1,22,-1
 373 322 l 1,18,-1
EndSplineSet
EndChar

StartChar: abreve
Encoding: 259 259 196
Width: 537
GlyphClass: 2
Flags: MW
LayerCount: 2
Fore
SplineSet
231.881835938 618 m 1,0,-1
 164.552734375 698 l 1,1,-1
 226.10546875 752 l 1,2,-1
 271.552734375 698 l 1,3,-1
 352.552734375 698 l 1,4,-1
 414.10546875 752 l 1,5,-1
 459.552734375 698 l 1,6,-1
 366.881835938 618 l 1,7,-1
 231.881835938 618 l 1,0,-1
134 0 m 1,8,-1
 21.2236328125 134 l 1,9,-1
 34.052734375 215 l 1,10,-1
 189.276367188 349 l 1,11,-1
 377.276367188 349 l 1,12,-1
 385.829101562 403 l 1,13,-1
 318.5 483 l 1,14,-1
 237.5 483 l 1,15,-1
 113.552734375 376 l 1,16,-1
 68.10546875 430 l 1,17,-1
 223.329101562 564 l 1,18,-1
 358.329101562 564 l 1,19,-1
 471.10546875 430 l 1,20,-1
 403 0 l 1,21,-1
 322 0 l 1,22,-1
 334.829101562 81 l 1,23,-1
 242 0 l 1,24,-1
 134 0 l 1,8,-1
227.829101562 81 m 1,25,-1
 351.776367188 188 l 1,26,-1
 364.60546875 269 l 1,27,-1
 203.60546875 269 l 1,28,-1
 110.776367188 188 l 1,29,-1
 106.5 161 l 1,30,-1
 173.829101562 81 l 1,31,-1
 227.829101562 81 l 1,25,-1
EndSplineSet
EndChar

StartChar: Aogonek
Encoding: 260 260 197
Width: 537
GlyphClass: 2
Flags: MW
LayerCount: 2
Fore
SplineSet
323.5 -161 m 1,0,-1
 256.170898438 -81 l 1,1,-1
 260.447265625 -54 l 1,2,-1
 330.552734375 54 l 1,3,-1
 360.329101562 242 l 1,4,-1
 119.329101562 242 l 1,5,-1
 81 0 l 1,6,-1
 0 0 l 1,7,-1
 59.552734375 376 l 1,8,-1
 289.829101562 725 l 1,9,-1
 342.829101562 725 l 1,10,-1
 462.552734375 376 l 1,11,-1
 403 0 l 1,12,-1
 376 0 l 1,13,-1
 340.447265625 -54 l 1,14,-1
 386.052734375 -107 l 1,15,-1
 323.5 -161 l 1,0,-1
373 322 m 1,16,-1
 381.552734375 376 l 1,17,-1
 298.881835938 618 l 1,18,-1
 140.552734375 376 l 1,19,-1
 132 322 l 1,20,-1
 373 322 l 1,16,-1
EndSplineSet
EndChar

StartChar: aogonek
Encoding: 261 261 198
Width: 537
GlyphClass: 2
Flags: MW
LayerCount: 2
Fore
SplineSet
323.5 -161 m 1,0,-1
 256.170898438 -81 l 1,1,-1
 260.447265625 -54 l 1,2,-1
 330.552734375 54 l 1,3,-1
 334.829101562 81 l 1,4,-1
 242 0 l 1,5,-1
 134 0 l 1,6,-1
 21.2236328125 134 l 1,7,-1
 34.052734375 215 l 1,8,-1
 189.276367188 349 l 1,9,-1
 377.276367188 349 l 1,10,-1
 385.829101562 403 l 1,11,-1
 318.5 483 l 1,12,-1
 237.5 483 l 1,13,-1
 113.552734375 376 l 1,14,-1
 68.10546875 430 l 1,15,-1
 223.329101562 564 l 1,16,-1
 358.329101562 564 l 1,17,-1
 471.10546875 430 l 1,18,-1
 403 0 l 1,19,-1
 376 0 l 1,20,-1
 340.447265625 -54 l 1,21,-1
 386.052734375 -107 l 1,22,-1
 323.5 -161 l 1,0,-1
227.829101562 81 m 1,23,-1
 351.776367188 188 l 1,24,-1
 364.60546875 269 l 1,25,-1
 203.60546875 269 l 1,26,-1
 110.776367188 188 l 1,27,-1
 106.5 161 l 1,28,-1
 173.829101562 81 l 1,29,-1
 227.829101562 81 l 1,23,-1
EndSplineSet
EndChar

StartChar: Cacute
Encoding: 262 262 199
Width: 537
GlyphClass: 2
Flags: MW
LayerCount: 2
Fore
SplineSet
311.381835938 779 m 1,0,-1
 265.934570312 833 l 1,1,-1
 390.881835938 940 l 1,2,-1
 435.329101562 886 l 1,3,-1
 311.381835938 779 l 1,0,-1
134 0 m 1,4,-1
 21.2236328125 134 l 1,5,-1
 93.60546875 591 l 1,6,-1
 248.829101562 725 l 1,7,-1
 383.829101562 725 l 1,8,-1
 496.60546875 591 l 1,9,-1
 434.052734375 537 l 1,10,-1
 344.158203125 645 l 1,11,-1
 263.158203125 645 l 1,12,-1
 170.329101562 564 l 1,13,-1
 106.5 161 l 1,14,-1
 173.829101562 81 l 1,15,-1
 254.829101562 81 l 1,16,-1
 378.776367188 188 l 1,17,-1
 424.223632812 134 l 1,18,-1
 269 0 l 1,19,-1
 134 0 l 1,4,-1
EndSplineSet
EndChar

StartChar: cacute
Encoding: 263 263 200
Width: 537
GlyphClass: 2
Flags: MW
LayerCount: 2
Fore
SplineSet
285.881835938 618 m 1,0,-1
 240.276367188 671 l 1,1,-1
 365.381835938 779 l 1,2,-1
 409.829101562 725 l 1,3,-1
 285.881835938 618 l 1,0,-1
134 0 m 1,4,-1
 21.2236328125 134 l 1,5,-1
 68.10546875 430 l 1,6,-1
 223.329101562 564 l 1,7,-1
 358.329101562 564 l 1,8,-1
 471.10546875 430 l 1,9,-1
 408.552734375 376 l 1,10,-1
 318.5 483 l 1,11,-1
 237.5 483 l 1,12,-1
 144.829101562 403 l 1,13,-1
 106.5 161 l 1,14,-1
 173.829101562 81 l 1,15,-1
 254.829101562 81 l 1,16,-1
 378.776367188 188 l 1,17,-1
 424.223632812 134 l 1,18,-1
 269 0 l 1,19,-1
 134 0 l 1,4,-1
EndSplineSet
EndChar

StartChar: Ccircumflex
Encoding: 264 264 201
Width: 537
GlyphClass: 2
Flags: MW
LayerCount: 2
Fore
SplineSet
257.381835938 779 m 1,0,-1
 212.934570312 833 l 1,1,-1
 336.881835938 940 l 1,2,-1
 363.881835938 940 l 1,3,-1
 453.934570312 833 l 1,4,-1
 392.381835938 779 l 1,5,-1
 346.934570312 833 l 1,6,-1
 334.993164062 846 l 1,7,-1
 257.381835938 779 l 1,0,-1
134 0 m 1,8,-1
 21.2236328125 134 l 1,9,-1
 93.60546875 591 l 1,10,-1
 248.829101562 725 l 1,11,-1
 383.829101562 725 l 1,12,-1
 496.60546875 591 l 1,13,-1
 434.052734375 537 l 1,14,-1
 344.158203125 645 l 1,15,-1
 263.158203125 645 l 1,16,-1
 170.329101562 564 l 1,17,-1
 106.5 161 l 1,18,-1
 173.829101562 81 l 1,19,-1
 254.829101562 81 l 1,20,-1
 378.776367188 188 l 1,21,-1
 424.223632812 134 l 1,22,-1
 269 0 l 1,23,-1
 134 0 l 1,8,-1
EndSplineSet
EndChar

StartChar: ccircumflex
Encoding: 265 265 202
Width: 537
GlyphClass: 2
Flags: MW
LayerCount: 2
Fore
SplineSet
231.881835938 618 m 1,0,-1
 187.276367188 671 l 1,1,-1
 311.381835938 779 l 1,2,-1
 338.381835938 779 l 1,3,-1
 428.276367188 671 l 1,4,-1
 366.881835938 618 l 1,5,-1
 321.276367188 671 l 1,6,-1
 309.493164062 685 l 1,7,-1
 231.881835938 618 l 1,0,-1
134 0 m 1,8,-1
 21.2236328125 134 l 1,9,-1
 68.10546875 430 l 1,10,-1
 223.329101562 564 l 1,11,-1
 358.329101562 564 l 1,12,-1
 471.10546875 430 l 1,13,-1
 408.552734375 376 l 1,14,-1
 318.5 483 l 1,15,-1
 237.5 483 l 1,16,-1
 144.829101562 403 l 1,17,-1
 106.5 161 l 1,18,-1
 173.829101562 81 l 1,19,-1
 254.829101562 81 l 1,20,-1
 378.776367188 188 l 1,21,-1
 424.223632812 134 l 1,22,-1
 269 0 l 1,23,-1
 134 0 l 1,8,-1
EndSplineSet
EndChar

StartChar: Cdotaccent
Encoding: 266 266 203
Width: 537
GlyphClass: 2
Flags: MW
LayerCount: 2
Fore
SplineSet
288.658203125 806 m 1,0,-1
 301.329101562 886 l 1,1,-1
 382.329101562 886 l 1,2,-1
 369.658203125 806 l 1,3,-1
 288.658203125 806 l 1,0,-1
134 0 m 1,4,-1
 21.2236328125 134 l 1,5,-1
 93.60546875 591 l 1,6,-1
 248.829101562 725 l 1,7,-1
 383.829101562 725 l 1,8,-1
 496.60546875 591 l 1,9,-1
 434.052734375 537 l 1,10,-1
 344.158203125 645 l 1,11,-1
 263.158203125 645 l 1,12,-1
 170.329101562 564 l 1,13,-1
 106.5 161 l 1,14,-1
 173.829101562 81 l 1,15,-1
 254.829101562 81 l 1,16,-1
 378.776367188 188 l 1,17,-1
 424.223632812 134 l 1,18,-1
 269 0 l 1,19,-1
 134 0 l 1,4,-1
EndSplineSet
EndChar

StartChar: cdotaccent
Encoding: 267 267 204
Width: 537
GlyphClass: 2
Flags: MW
LayerCount: 2
Fore
SplineSet
263.158203125 645 m 1,0,-1
 275.829101562 725 l 1,1,-1
 356.829101562 725 l 1,2,-1
 344.158203125 645 l 1,3,-1
 263.158203125 645 l 1,0,-1
134 0 m 1,4,-1
 21.2236328125 134 l 1,5,-1
 68.10546875 430 l 1,6,-1
 223.329101562 564 l 1,7,-1
 358.329101562 564 l 1,8,-1
 471.10546875 430 l 1,9,-1
 408.552734375 376 l 1,10,-1
 318.5 483 l 1,11,-1
 237.5 483 l 1,12,-1
 144.829101562 403 l 1,13,-1
 106.5 161 l 1,14,-1
 173.829101562 81 l 1,15,-1
 254.829101562 81 l 1,16,-1
 378.776367188 188 l 1,17,-1
 424.223632812 134 l 1,18,-1
 269 0 l 1,19,-1
 134 0 l 1,4,-1
EndSplineSet
EndChar

StartChar: Ccaron
Encoding: 268 268 205
Width: 537
GlyphClass: 2
Flags: MW
LayerCount: 2
Fore
SplineSet
311.381835938 779 m 1,0,-1
 221.329101562 886 l 1,1,-1
 282.881835938 940 l 1,2,-1
 328.329101562 886 l 1,3,-1
 328.169921875 885 l 1,4,-1
 339.26953125 873 l 1,5,-1
 417.881835938 940 l 1,6,-1
 462.329101562 886 l 1,7,-1
 338.381835938 779 l 1,8,-1
 311.381835938 779 l 1,0,-1
134 0 m 1,9,-1
 21.2236328125 134 l 1,10,-1
 93.60546875 591 l 1,11,-1
 248.829101562 725 l 1,12,-1
 383.829101562 725 l 1,13,-1
 496.60546875 591 l 1,14,-1
 434.052734375 537 l 1,15,-1
 344.158203125 645 l 1,16,-1
 263.158203125 645 l 1,17,-1
 170.329101562 564 l 1,18,-1
 106.5 161 l 1,19,-1
 173.829101562 81 l 1,20,-1
 254.829101562 81 l 1,21,-1
 378.776367188 188 l 1,22,-1
 424.223632812 134 l 1,23,-1
 269 0 l 1,24,-1
 134 0 l 1,9,-1
EndSplineSet
EndChar

StartChar: ccaron
Encoding: 269 269 206
Width: 537
GlyphClass: 2
Flags: MW
LayerCount: 2
Fore
SplineSet
285.881835938 618 m 1,0,-1
 195.829101562 725 l 1,1,-1
 257.381835938 779 l 1,2,-1
 302.829101562 725 l 1,3,-1
 302.669921875 724 l 1,4,-1
 313.76953125 712 l 1,5,-1
 392.381835938 779 l 1,6,-1
 436.829101562 725 l 1,7,-1
 312.881835938 618 l 1,8,-1
 285.881835938 618 l 1,0,-1
134 0 m 1,9,-1
 21.2236328125 134 l 1,10,-1
 68.10546875 430 l 1,11,-1
 223.329101562 564 l 1,12,-1
 358.329101562 564 l 1,13,-1
 471.10546875 430 l 1,14,-1
 408.552734375 376 l 1,15,-1
 318.5 483 l 1,16,-1
 237.5 483 l 1,17,-1
 144.829101562 403 l 1,18,-1
 106.5 161 l 1,19,-1
 173.829101562 81 l 1,20,-1
 254.829101562 81 l 1,21,-1
 378.776367188 188 l 1,22,-1
 424.223632812 134 l 1,23,-1
 269 0 l 1,24,-1
 134 0 l 1,9,-1
EndSplineSet
EndChar

StartChar: Dcaron
Encoding: 270 270 207
Width: 537
GlyphClass: 2
Flags: MW
LayerCount: 2
Fore
SplineSet
311.381835938 779 m 1,0,-1
 221.329101562 886 l 1,1,-1
 282.881835938 940 l 1,2,-1
 328.329101562 886 l 1,3,-1
 328.169921875 885 l 1,4,-1
 339.26953125 873 l 1,5,-1
 417.881835938 940 l 1,6,-1
 462.329101562 886 l 1,7,-1
 338.381835938 779 l 1,8,-1
 311.381835938 779 l 1,0,-1
0 0 m 1,9,-1
 114.829101562 725 l 1,10,-1
 383.829101562 725 l 1,11,-1
 496.60546875 591 l 1,12,-1
 424.223632812 134 l 1,13,-1
 269 0 l 1,14,-1
 0 0 l 1,9,-1
254.829101562 81 m 1,15,-1
 347.5 161 l 1,16,-1
 411.329101562 564 l 1,17,-1
 344.158203125 645 l 1,18,-1
 183.158203125 645 l 1,19,-1
 93.8291015625 81 l 1,20,-1
 254.829101562 81 l 1,15,-1
EndSplineSet
EndChar

StartChar: dcaron
Encoding: 271 271 208
Width: 537
GlyphClass: 2
Flags: MW
LayerCount: 2
Fore
SplineSet
394.381835938 457 m 1,0,-1
 349.776367188 510 l 1,1,-1
 411.329101562 564 l 1,2,-1
 415.60546875 591 l 1,3,-1
 362.60546875 591 l 1,4,-1
 383.829101562 725 l 1,5,-1
 517.829101562 725 l 1,6,-1
 488.052734375 537 l 1,7,-1
 394.381835938 457 l 1,0,-1
81 0 m 1,8,-1
 12.8291015625 81 l 1,9,-1
 72.3818359375 457 l 1,10,-1
 196.329101562 564 l 1,11,-1
 223.329101562 564 l 1,12,-1
 246.052734375 537 l 1,13,-1
 275.829101562 725 l 1,14,-1
 356.829101562 725 l 1,15,-1
 242 0 l 1,16,-1
 161 0 l 1,17,-1
 169.552734375 54 l 1,18,-1
 107 0 l 1,19,-1
 81 0 l 1,8,-1
108.887695312 94 m 1,20,-1
 186.5 161 l 1,21,-1
 229.10546875 430 l 1,22,-1
 206.381835938 457 l 1,23,-1
 195.440429688 470 l 1,24,-1
 149.10546875 430 l 1,25,-1
 97.7890625 106 l 1,26,-1
 108.887695312 94 l 1,20,-1
EndSplineSet
EndChar

StartChar: Dcroat
Encoding: 272 272 209
Width: 537
GlyphClass: 2
Flags: MW
LayerCount: 2
Fore
SplineSet
27 0 m 1,0,-1
 78 322 l 1,1,-1
 24 322 l 1,2,-1
 36.8291015625 403 l 1,3,-1
 90.8291015625 403 l 1,4,-1
 141.829101562 725 l 1,5,-1
 383.829101562 725 l 1,6,-1
 496.60546875 591 l 1,7,-1
 424.223632812 134 l 1,8,-1
 269 0 l 1,9,-1
 27 0 l 1,0,-1
254.829101562 81 m 1,10,-1
 347.5 161 l 1,11,-1
 411.329101562 564 l 1,12,-1
 344.158203125 645 l 1,13,-1
 209.158203125 645 l 1,14,-1
 170.829101562 403 l 1,15,-1
 278.829101562 403 l 1,16,-1
 266 322 l 1,17,-1
 158 322 l 1,18,-1
 119.829101562 81 l 1,19,-1
 254.829101562 81 l 1,10,-1
EndSplineSet
EndChar

StartChar: dcroat
Encoding: 273 273 210
Width: 537
GlyphClass: 2
Flags: MW
LayerCount: 2
Fore
SplineSet
134 0 m 1,0,-1
 21.2236328125 134 l 1,1,-1
 68.10546875 430 l 1,2,-1
 223.329101562 564 l 1,3,-1
 331.329101562 564 l 1,4,-1
 375.776367188 510 l 1,5,-1
 392.881835938 618 l 1,6,-1
 151.881835938 618 l 1,7,-1
 164.552734375 698 l 1,8,-1
 405.552734375 698 l 1,9,-1
 409.829101562 725 l 1,10,-1
 490.829101562 725 l 1,11,-1
 486.552734375 698 l 1,12,-1
 540.552734375 698 l 1,13,-1
 527.881835938 618 l 1,14,-1
 473.881835938 618 l 1,15,-1
 376 0 l 1,16,-1
 295 0 l 1,17,-1
 307.829101562 81 l 1,18,-1
 215 0 l 1,19,-1
 134 0 l 1,0,-1
200.829101562 81 m 1,20,-1
 324.776367188 188 l 1,21,-1
 358.829101562 403 l 1,22,-1
 291.5 483 l 1,23,-1
 237.5 483 l 1,24,-1
 144.829101562 403 l 1,25,-1
 106.5 161 l 1,26,-1
 173.829101562 81 l 1,27,-1
 200.829101562 81 l 1,20,-1
EndSplineSet
EndChar

StartChar: Emacron
Encoding: 274 274 211
Width: 537
GlyphClass: 2
Flags: MW
LayerCount: 2
Fore
SplineSet
181.658203125 806 m 1,0,-1
 194.329101562 886 l 1,1,-1
 489.329101562 886 l 1,2,-1
 476.658203125 806 l 1,3,-1
 181.658203125 806 l 1,0,-1
0 0 m 1,4,-1
 114.829101562 725 l 1,5,-1
 517.829101562 725 l 1,6,-1
 505.158203125 645 l 1,7,-1
 183.158203125 645 l 1,8,-1
 144.829101562 403 l 1,9,-1
 385.829101562 403 l 1,10,-1
 373 322 l 1,11,-1
 132 322 l 1,12,-1
 93.8291015625 81 l 1,13,-1
 415.829101562 81 l 1,14,-1
 403 0 l 1,15,-1
 0 0 l 1,4,-1
EndSplineSet
EndChar

StartChar: emacron
Encoding: 275 275 212
Width: 537
GlyphClass: 2
Flags: MW
LayerCount: 2
Fore
SplineSet
156.158203125 645 m 1,0,-1
 168.829101562 725 l 1,1,-1
 463.829101562 725 l 1,2,-1
 451.158203125 645 l 1,3,-1
 156.158203125 645 l 1,0,-1
134 0 m 1,4,-1
 21.2236328125 134 l 1,5,-1
 68.10546875 430 l 1,6,-1
 223.329101562 564 l 1,7,-1
 358.329101562 564 l 1,8,-1
 471.10546875 430 l 1,9,-1
 441.329101562 242 l 1,10,-1
 119.329101562 242 l 1,11,-1
 106.5 161 l 1,12,-1
 173.829101562 81 l 1,13,-1
 254.829101562 81 l 1,14,-1
 378.776367188 188 l 1,15,-1
 424.223632812 134 l 1,16,-1
 269 0 l 1,17,-1
 134 0 l 1,4,-1
373 322 m 1,18,-1
 385.829101562 403 l 1,19,-1
 318.5 483 l 1,20,-1
 237.5 483 l 1,21,-1
 144.829101562 403 l 1,22,-1
 132 322 l 1,23,-1
 373 322 l 1,18,-1
EndSplineSet
EndChar

StartChar: Ebreve
Encoding: 276 276 213
Width: 537
GlyphClass: 2
Flags: MW
LayerCount: 2
Fore
SplineSet
257.381835938 779 m 1,0,-1
 190.051757812 859 l 1,1,-1
 251.60546875 913 l 1,2,-1
 297.051757812 859 l 1,3,-1
 378.051757812 859 l 1,4,-1
 439.60546875 913 l 1,5,-1
 485.051757812 859 l 1,6,-1
 392.381835938 779 l 1,7,-1
 257.381835938 779 l 1,0,-1
0 0 m 1,8,-1
 114.829101562 725 l 1,9,-1
 517.829101562 725 l 1,10,-1
 505.158203125 645 l 1,11,-1
 183.158203125 645 l 1,12,-1
 144.829101562 403 l 1,13,-1
 385.829101562 403 l 1,14,-1
 373 322 l 1,15,-1
 132 322 l 1,16,-1
 93.8291015625 81 l 1,17,-1
 415.829101562 81 l 1,18,-1
 403 0 l 1,19,-1
 0 0 l 1,8,-1
EndSplineSet
EndChar

StartChar: ebreve
Encoding: 277 277 214
Width: 537
GlyphClass: 2
Flags: MW
LayerCount: 2
Fore
SplineSet
231.881835938 618 m 1,0,-1
 164.552734375 698 l 1,1,-1
 226.10546875 752 l 1,2,-1
 271.552734375 698 l 1,3,-1
 352.552734375 698 l 1,4,-1
 414.10546875 752 l 1,5,-1
 459.552734375 698 l 1,6,-1
 366.881835938 618 l 1,7,-1
 231.881835938 618 l 1,0,-1
134 0 m 1,8,-1
 21.2236328125 134 l 1,9,-1
 68.10546875 430 l 1,10,-1
 223.329101562 564 l 1,11,-1
 358.329101562 564 l 1,12,-1
 471.10546875 430 l 1,13,-1
 441.329101562 242 l 1,14,-1
 119.329101562 242 l 1,15,-1
 106.5 161 l 1,16,-1
 173.829101562 81 l 1,17,-1
 254.829101562 81 l 1,18,-1
 378.776367188 188 l 1,19,-1
 424.223632812 134 l 1,20,-1
 269 0 l 1,21,-1
 134 0 l 1,8,-1
373 322 m 1,22,-1
 385.829101562 403 l 1,23,-1
 318.5 483 l 1,24,-1
 237.5 483 l 1,25,-1
 144.829101562 403 l 1,26,-1
 132 322 l 1,27,-1
 373 322 l 1,22,-1
EndSplineSet
EndChar

StartChar: Edotaccent
Encoding: 278 278 215
Width: 537
GlyphClass: 2
Flags: MW
LayerCount: 2
Fore
SplineSet
288.658203125 806 m 1,0,-1
 301.329101562 886 l 1,1,-1
 382.329101562 886 l 1,2,-1
 369.658203125 806 l 1,3,-1
 288.658203125 806 l 1,0,-1
0 0 m 1,4,-1
 114.829101562 725 l 1,5,-1
 517.829101562 725 l 1,6,-1
 505.158203125 645 l 1,7,-1
 183.158203125 645 l 1,8,-1
 144.829101562 403 l 1,9,-1
 385.829101562 403 l 1,10,-1
 373 322 l 1,11,-1
 132 322 l 1,12,-1
 93.8291015625 81 l 1,13,-1
 415.829101562 81 l 1,14,-1
 403 0 l 1,15,-1
 0 0 l 1,4,-1
EndSplineSet
EndChar

StartChar: edotaccent
Encoding: 279 279 216
Width: 537
GlyphClass: 2
Flags: MW
LayerCount: 2
Fore
SplineSet
263.158203125 645 m 1,0,-1
 275.829101562 725 l 1,1,-1
 356.829101562 725 l 1,2,-1
 344.158203125 645 l 1,3,-1
 263.158203125 645 l 1,0,-1
134 0 m 1,4,-1
 21.2236328125 134 l 1,5,-1
 68.10546875 430 l 1,6,-1
 223.329101562 564 l 1,7,-1
 358.329101562 564 l 1,8,-1
 471.10546875 430 l 1,9,-1
 441.329101562 242 l 1,10,-1
 119.329101562 242 l 1,11,-1
 106.5 161 l 1,12,-1
 173.829101562 81 l 1,13,-1
 254.829101562 81 l 1,14,-1
 378.776367188 188 l 1,15,-1
 424.223632812 134 l 1,16,-1
 269 0 l 1,17,-1
 134 0 l 1,4,-1
373 322 m 1,18,-1
 385.829101562 403 l 1,19,-1
 318.5 483 l 1,20,-1
 237.5 483 l 1,21,-1
 144.829101562 403 l 1,22,-1
 132 322 l 1,23,-1
 373 322 l 1,18,-1
EndSplineSet
EndChar

StartChar: Eogonek
Encoding: 280 280 217
Width: 537
GlyphClass: 2
Flags: MW
LayerCount: 2
Fore
SplineSet
323.5 -161 m 1,0,-1
 256.170898438 -81 l 1,1,-1
 260.447265625 -54 l 1,2,-1
 295 0 l 1,3,-1
 0 0 l 1,4,-1
 114.829101562 725 l 1,5,-1
 517.829101562 725 l 1,6,-1
 505.158203125 645 l 1,7,-1
 183.158203125 645 l 1,8,-1
 144.829101562 403 l 1,9,-1
 385.829101562 403 l 1,10,-1
 373 322 l 1,11,-1
 132 322 l 1,12,-1
 93.8291015625 81 l 1,13,-1
 415.829101562 81 l 1,14,-1
 403 0 l 1,15,-1
 376 0 l 1,16,-1
 340.447265625 -54 l 1,17,-1
 386.052734375 -107 l 1,18,-1
 323.5 -161 l 1,0,-1
EndSplineSet
EndChar

StartChar: eogonek
Encoding: 281 281 218
Width: 537
GlyphClass: 2
Flags: MW
LayerCount: 2
Fore
SplineSet
216.5 -161 m 1,0,-1
 148.170898438 -81 l 1,1,-1
 152.447265625 -54 l 1,2,-1
 188 0 l 1,3,-1
 134 0 l 1,4,-1
 21.2236328125 134 l 1,5,-1
 68.10546875 430 l 1,6,-1
 223.329101562 564 l 1,7,-1
 358.329101562 564 l 1,8,-1
 471.10546875 430 l 1,9,-1
 441.329101562 242 l 1,10,-1
 119.329101562 242 l 1,11,-1
 106.5 161 l 1,12,-1
 173.829101562 81 l 1,13,-1
 254.829101562 81 l 1,14,-1
 378.776367188 188 l 1,15,-1
 424.223632812 134 l 1,16,-1
 269 0 l 1,17,-1
 233.447265625 -54 l 1,18,-1
 278.052734375 -107 l 1,19,-1
 216.5 -161 l 1,0,-1
373 322 m 1,20,-1
 385.829101562 403 l 1,21,-1
 318.5 483 l 1,22,-1
 237.5 483 l 1,23,-1
 144.829101562 403 l 1,24,-1
 132 322 l 1,25,-1
 373 322 l 1,20,-1
EndSplineSet
EndChar

StartChar: Ecaron
Encoding: 282 282 219
Width: 537
GlyphClass: 2
Flags: MW
LayerCount: 2
Fore
SplineSet
311.381835938 779 m 1,0,-1
 221.329101562 886 l 1,1,-1
 282.881835938 940 l 1,2,-1
 328.329101562 886 l 1,3,-1
 328.169921875 885 l 1,4,-1
 339.26953125 873 l 1,5,-1
 417.881835938 940 l 1,6,-1
 462.329101562 886 l 1,7,-1
 338.381835938 779 l 1,8,-1
 311.381835938 779 l 1,0,-1
0 0 m 1,9,-1
 114.829101562 725 l 1,10,-1
 517.829101562 725 l 1,11,-1
 505.158203125 645 l 1,12,-1
 183.158203125 645 l 1,13,-1
 144.829101562 403 l 1,14,-1
 385.829101562 403 l 1,15,-1
 373 322 l 1,16,-1
 132 322 l 1,17,-1
 93.8291015625 81 l 1,18,-1
 415.829101562 81 l 1,19,-1
 403 0 l 1,20,-1
 0 0 l 1,9,-1
EndSplineSet
EndChar

StartChar: ecaron
Encoding: 283 283 220
Width: 537
GlyphClass: 2
Flags: MW
LayerCount: 2
Fore
SplineSet
285.881835938 618 m 1,0,-1
 195.829101562 725 l 1,1,-1
 257.381835938 779 l 1,2,-1
 302.829101562 725 l 1,3,-1
 302.669921875 724 l 1,4,-1
 313.76953125 712 l 1,5,-1
 392.381835938 779 l 1,6,-1
 436.829101562 725 l 1,7,-1
 312.881835938 618 l 1,8,-1
 285.881835938 618 l 1,0,-1
134 0 m 1,9,-1
 21.2236328125 134 l 1,10,-1
 68.10546875 430 l 1,11,-1
 223.329101562 564 l 1,12,-1
 358.329101562 564 l 1,13,-1
 471.10546875 430 l 1,14,-1
 441.329101562 242 l 1,15,-1
 119.329101562 242 l 1,16,-1
 106.5 161 l 1,17,-1
 173.829101562 81 l 1,18,-1
 254.829101562 81 l 1,19,-1
 378.776367188 188 l 1,20,-1
 424.223632812 134 l 1,21,-1
 269 0 l 1,22,-1
 134 0 l 1,9,-1
373 322 m 1,23,-1
 385.829101562 403 l 1,24,-1
 318.5 483 l 1,25,-1
 237.5 483 l 1,26,-1
 144.829101562 403 l 1,27,-1
 132 322 l 1,28,-1
 373 322 l 1,23,-1
EndSplineSet
EndChar

StartChar: Gcircumflex
Encoding: 284 284 221
Width: 537
GlyphClass: 2
Flags: MW
LayerCount: 2
Fore
SplineSet
257.381835938 779 m 1,0,-1
 212.934570312 833 l 1,1,-1
 336.881835938 940 l 1,2,-1
 363.881835938 940 l 1,3,-1
 453.934570312 833 l 1,4,-1
 392.381835938 779 l 1,5,-1
 346.934570312 833 l 1,6,-1
 334.993164062 846 l 1,7,-1
 257.381835938 779 l 1,0,-1
134 0 m 1,8,-1
 21.2236328125 134 l 1,9,-1
 93.60546875 591 l 1,10,-1
 248.829101562 725 l 1,11,-1
 383.829101562 725 l 1,12,-1
 496.60546875 591 l 1,13,-1
 434.052734375 537 l 1,14,-1
 344.158203125 645 l 1,15,-1
 263.158203125 645 l 1,16,-1
 170.329101562 564 l 1,17,-1
 106.5 161 l 1,18,-1
 173.829101562 81 l 1,19,-1
 227.829101562 81 l 1,20,-1
 351.776367188 188 l 1,21,-1
 373 322 l 1,22,-1
 212 322 l 1,23,-1
 224.829101562 403 l 1,24,-1
 466.829101562 403 l 1,25,-1
 403 0 l 1,26,-1
 322 0 l 1,27,-1
 334.829101562 81 l 1,28,-1
 242 0 l 1,29,-1
 134 0 l 1,8,-1
EndSplineSet
EndChar

StartChar: gcircumflex
Encoding: 285 285 222
Width: 537
GlyphClass: 2
Flags: MW
LayerCount: 2
Fore
SplineSet
231.881835938 618 m 1,0,-1
 187.276367188 671 l 1,1,-1
 311.381835938 779 l 1,2,-1
 338.381835938 779 l 1,3,-1
 428.276367188 671 l 1,4,-1
 366.881835938 618 l 1,5,-1
 321.276367188 671 l 1,6,-1
 309.493164062 685 l 1,7,-1
 231.881835938 618 l 1,0,-1
81.5 -161 m 1,8,-1
 -8.552734375 -54 l 1,9,-1
 -4.2763671875 -27 l 1,10,-1
 58.2763671875 27 l 1,11,-1
 73.3349609375 40 l 1,12,-1
 16.947265625 107 l 1,13,-1
 21.2236328125 134 l 1,14,-1
 115.052734375 215 l 1,15,-1
 46.7236328125 295 l 1,16,-1
 68.10546875 430 l 1,17,-1
 223.329101562 564 l 1,18,-1
 492.329101562 564 l 1,19,-1
 479.5 483 l 1,20,-1
 398.5 483 l 1,21,-1
 466.829101562 403 l 1,22,-1
 449.723632812 295 l 1,23,-1
 294.5 161 l 1,24,-1
 159.5 161 l 1,25,-1
 128.223632812 134 l 1,26,-1
 127.223632812 134 l 1,27,-1
 113.1640625 121 l 1,28,-1
 146.829101562 81 l 1,29,-1
 334.829101562 81 l 1,30,-1
 425.723632812 -27 l 1,31,-1
 421.447265625 -54 l 1,32,-1
 296.5 -161 l 1,33,-1
 81.5 -161 l 1,8,-1
280.329101562 242 m 1,34,-1
 373 322 l 1,35,-1
 381.552734375 376 l 1,36,-1
 291.5 483 l 1,37,-1
 237.5 483 l 1,38,-1
 144.829101562 403 l 1,39,-1
 132 322 l 1,40,-1
 199.329101562 242 l 1,41,-1
 280.329101562 242 l 1,34,-1
282.170898438 -81 m 1,42,-1
 313.447265625 -54 l 1,43,-1
 329.665039062 -40 l 1,44,-1
 295 0 l 1,45,-1
 134 0 l 1,46,-1
 102.723632812 -27 l 1,47,-1
 101.723632812 -27 l 1,48,-1
 87.6650390625 -40 l 1,49,-1
 121.170898438 -81 l 1,50,-1
 282.170898438 -81 l 1,42,-1
EndSplineSet
EndChar

StartChar: Gbreve
Encoding: 286 286 223
Width: 537
GlyphClass: 2
Flags: MW
LayerCount: 2
Fore
SplineSet
257.381835938 779 m 1,0,-1
 190.051757812 859 l 1,1,-1
 251.60546875 913 l 1,2,-1
 297.051757812 859 l 1,3,-1
 378.051757812 859 l 1,4,-1
 439.60546875 913 l 1,5,-1
 485.051757812 859 l 1,6,-1
 392.381835938 779 l 1,7,-1
 257.381835938 779 l 1,0,-1
134 0 m 1,8,-1
 21.2236328125 134 l 1,9,-1
 93.60546875 591 l 1,10,-1
 248.829101562 725 l 1,11,-1
 383.829101562 725 l 1,12,-1
 496.60546875 591 l 1,13,-1
 434.052734375 537 l 1,14,-1
 344.158203125 645 l 1,15,-1
 263.158203125 645 l 1,16,-1
 170.329101562 564 l 1,17,-1
 106.5 161 l 1,18,-1
 173.829101562 81 l 1,19,-1
 227.829101562 81 l 1,20,-1
 351.776367188 188 l 1,21,-1
 373 322 l 1,22,-1
 212 322 l 1,23,-1
 224.829101562 403 l 1,24,-1
 466.829101562 403 l 1,25,-1
 403 0 l 1,26,-1
 322 0 l 1,27,-1
 334.829101562 81 l 1,28,-1
 242 0 l 1,29,-1
 134 0 l 1,8,-1
EndSplineSet
EndChar

StartChar: gbreve
Encoding: 287 287 224
Width: 537
GlyphClass: 2
Flags: MW
LayerCount: 2
Fore
SplineSet
231.881835938 618 m 1,0,-1
 164.552734375 698 l 1,1,-1
 226.10546875 752 l 1,2,-1
 271.552734375 698 l 1,3,-1
 352.552734375 698 l 1,4,-1
 414.10546875 752 l 1,5,-1
 459.552734375 698 l 1,6,-1
 366.881835938 618 l 1,7,-1
 231.881835938 618 l 1,0,-1
81.5 -161 m 1,8,-1
 -8.552734375 -54 l 1,9,-1
 -4.2763671875 -27 l 1,10,-1
 58.2763671875 27 l 1,11,-1
 73.3349609375 40 l 1,12,-1
 16.947265625 107 l 1,13,-1
 21.2236328125 134 l 1,14,-1
 115.052734375 215 l 1,15,-1
 46.7236328125 295 l 1,16,-1
 68.10546875 430 l 1,17,-1
 223.329101562 564 l 1,18,-1
 492.329101562 564 l 1,19,-1
 479.5 483 l 1,20,-1
 398.5 483 l 1,21,-1
 466.829101562 403 l 1,22,-1
 449.723632812 295 l 1,23,-1
 294.5 161 l 1,24,-1
 159.5 161 l 1,25,-1
 128.223632812 134 l 1,26,-1
 127.223632812 134 l 1,27,-1
 113.1640625 121 l 1,28,-1
 146.829101562 81 l 1,29,-1
 334.829101562 81 l 1,30,-1
 425.723632812 -27 l 1,31,-1
 421.447265625 -54 l 1,32,-1
 296.5 -161 l 1,33,-1
 81.5 -161 l 1,8,-1
280.329101562 242 m 1,34,-1
 373 322 l 1,35,-1
 381.552734375 376 l 1,36,-1
 291.5 483 l 1,37,-1
 237.5 483 l 1,38,-1
 144.829101562 403 l 1,39,-1
 132 322 l 1,40,-1
 199.329101562 242 l 1,41,-1
 280.329101562 242 l 1,34,-1
282.170898438 -81 m 1,42,-1
 313.447265625 -54 l 1,43,-1
 329.665039062 -40 l 1,44,-1
 295 0 l 1,45,-1
 134 0 l 1,46,-1
 102.723632812 -27 l 1,47,-1
 101.723632812 -27 l 1,48,-1
 87.6650390625 -40 l 1,49,-1
 121.170898438 -81 l 1,50,-1
 282.170898438 -81 l 1,42,-1
EndSplineSet
EndChar

StartChar: Gdotaccent
Encoding: 288 288 225
Width: 537
GlyphClass: 2
Flags: MW
LayerCount: 2
Fore
SplineSet
288.658203125 806 m 1,0,-1
 301.329101562 886 l 1,1,-1
 382.329101562 886 l 1,2,-1
 369.658203125 806 l 1,3,-1
 288.658203125 806 l 1,0,-1
134 0 m 1,4,-1
 21.2236328125 134 l 1,5,-1
 93.60546875 591 l 1,6,-1
 248.829101562 725 l 1,7,-1
 383.829101562 725 l 1,8,-1
 496.60546875 591 l 1,9,-1
 434.052734375 537 l 1,10,-1
 344.158203125 645 l 1,11,-1
 263.158203125 645 l 1,12,-1
 170.329101562 564 l 1,13,-1
 106.5 161 l 1,14,-1
 173.829101562 81 l 1,15,-1
 227.829101562 81 l 1,16,-1
 351.776367188 188 l 1,17,-1
 373 322 l 1,18,-1
 212 322 l 1,19,-1
 224.829101562 403 l 1,20,-1
 466.829101562 403 l 1,21,-1
 403 0 l 1,22,-1
 322 0 l 1,23,-1
 334.829101562 81 l 1,24,-1
 242 0 l 1,25,-1
 134 0 l 1,4,-1
EndSplineSet
EndChar

StartChar: gdotaccent
Encoding: 289 289 226
Width: 537
GlyphClass: 2
Flags: MW
LayerCount: 2
Fore
SplineSet
263.158203125 645 m 1,0,-1
 275.829101562 725 l 1,1,-1
 356.829101562 725 l 1,2,-1
 344.158203125 645 l 1,3,-1
 263.158203125 645 l 1,0,-1
81.5 -161 m 1,4,-1
 -8.552734375 -54 l 1,5,-1
 -4.2763671875 -27 l 1,6,-1
 58.2763671875 27 l 1,7,-1
 73.3349609375 40 l 1,8,-1
 16.947265625 107 l 1,9,-1
 21.2236328125 134 l 1,10,-1
 115.052734375 215 l 1,11,-1
 46.7236328125 295 l 1,12,-1
 68.10546875 430 l 1,13,-1
 223.329101562 564 l 1,14,-1
 492.329101562 564 l 1,15,-1
 479.5 483 l 1,16,-1
 398.5 483 l 1,17,-1
 466.829101562 403 l 1,18,-1
 449.723632812 295 l 1,19,-1
 294.5 161 l 1,20,-1
 159.5 161 l 1,21,-1
 128.223632812 134 l 1,22,-1
 127.223632812 134 l 1,23,-1
 113.1640625 121 l 1,24,-1
 146.829101562 81 l 1,25,-1
 334.829101562 81 l 1,26,-1
 425.723632812 -27 l 1,27,-1
 421.447265625 -54 l 1,28,-1
 296.5 -161 l 1,29,-1
 81.5 -161 l 1,4,-1
280.329101562 242 m 1,30,-1
 373 322 l 1,31,-1
 381.552734375 376 l 1,32,-1
 291.5 483 l 1,33,-1
 237.5 483 l 1,34,-1
 144.829101562 403 l 1,35,-1
 132 322 l 1,36,-1
 199.329101562 242 l 1,37,-1
 280.329101562 242 l 1,30,-1
282.170898438 -81 m 1,38,-1
 313.447265625 -54 l 1,39,-1
 329.665039062 -40 l 1,40,-1
 295 0 l 1,41,-1
 134 0 l 1,42,-1
 102.723632812 -27 l 1,43,-1
 101.723632812 -27 l 1,44,-1
 87.6650390625 -40 l 1,45,-1
 121.170898438 -81 l 1,46,-1
 282.170898438 -81 l 1,38,-1
EndSplineSet
EndChar

StartChar: uni0122
Encoding: 290 290 227
Width: 537
GlyphClass: 2
Flags: MW
LayerCount: 2
Fore
SplineSet
135.5 -161 m 1,0,-1
 90.052734375 -107 l 1,1,-1
 152.447265625 -54 l 1,2,-1
 161 0 l 1,3,-1
 134 0 l 1,4,-1
 21.2236328125 134 l 1,5,-1
 93.60546875 591 l 1,6,-1
 248.829101562 725 l 1,7,-1
 383.829101562 725 l 1,8,-1
 496.60546875 591 l 1,9,-1
 434.052734375 537 l 1,10,-1
 344.158203125 645 l 1,11,-1
 263.158203125 645 l 1,12,-1
 170.329101562 564 l 1,13,-1
 106.5 161 l 1,14,-1
 173.829101562 81 l 1,15,-1
 227.829101562 81 l 1,16,-1
 351.776367188 188 l 1,17,-1
 373 322 l 1,18,-1
 212 322 l 1,19,-1
 224.829101562 403 l 1,20,-1
 466.829101562 403 l 1,21,-1
 403 0 l 1,22,-1
 322 0 l 1,23,-1
 334.829101562 81 l 1,24,-1
 242 0 l 1,25,-1
 229.170898438 -81 l 1,26,-1
 135.5 -161 l 1,0,-1
EndSplineSet
EndChar

StartChar: uni0123
Encoding: 291 291 228
Width: 537
GlyphClass: 2
Flags: MW
LayerCount: 2
Fore
SplineSet
81.5 -161 m 1,0,-1
 -8.552734375 -54 l 1,1,-1
 -4.2763671875 -27 l 1,2,-1
 58.2763671875 27 l 1,3,-1
 73.3349609375 40 l 1,4,-1
 16.947265625 107 l 1,5,-1
 21.2236328125 134 l 1,6,-1
 115.052734375 215 l 1,7,-1
 46.7236328125 295 l 1,8,-1
 68.10546875 430 l 1,9,-1
 223.329101562 564 l 1,10,-1
 250.329101562 564 l 1,11,-1
 263.158203125 645 l 1,12,-1
 356.829101562 725 l 1,13,-1
 401.276367188 671 l 1,14,-1
 339.881835938 618 l 1,15,-1
 331.329101562 564 l 1,16,-1
 492.329101562 564 l 1,17,-1
 479.5 483 l 1,18,-1
 398.5 483 l 1,19,-1
 466.829101562 403 l 1,20,-1
 449.723632812 295 l 1,21,-1
 294.5 161 l 1,22,-1
 159.5 161 l 1,23,-1
 128.223632812 134 l 1,24,-1
 127.223632812 134 l 1,25,-1
 113.1640625 121 l 1,26,-1
 146.829101562 81 l 1,27,-1
 334.829101562 81 l 1,28,-1
 425.723632812 -27 l 1,29,-1
 421.447265625 -54 l 1,30,-1
 296.5 -161 l 1,31,-1
 81.5 -161 l 1,0,-1
280.329101562 242 m 1,32,-1
 373 322 l 1,33,-1
 381.552734375 376 l 1,34,-1
 291.5 483 l 1,35,-1
 237.5 483 l 1,36,-1
 144.829101562 403 l 1,37,-1
 132 322 l 1,38,-1
 199.329101562 242 l 1,39,-1
 280.329101562 242 l 1,32,-1
282.170898438 -81 m 1,40,-1
 313.447265625 -54 l 1,41,-1
 329.665039062 -40 l 1,42,-1
 295 0 l 1,43,-1
 134 0 l 1,44,-1
 102.723632812 -27 l 1,45,-1
 101.723632812 -27 l 1,46,-1
 87.6650390625 -40 l 1,47,-1
 121.170898438 -81 l 1,48,-1
 282.170898438 -81 l 1,40,-1
EndSplineSet
EndChar

StartChar: Hcircumflex
Encoding: 292 292 229
Width: 537
GlyphClass: 2
Flags: MW
LayerCount: 2
Fore
SplineSet
257.381835938 779 m 1,0,-1
 212.934570312 833 l 1,1,-1
 336.881835938 940 l 1,2,-1
 363.881835938 940 l 1,3,-1
 453.934570312 833 l 1,4,-1
 392.381835938 779 l 1,5,-1
 346.934570312 833 l 1,6,-1
 334.993164062 846 l 1,7,-1
 257.381835938 779 l 1,0,-1
0 0 m 1,8,-1
 114.829101562 725 l 1,9,-1
 195.829101562 725 l 1,10,-1
 144.829101562 403 l 1,11,-1
 385.829101562 403 l 1,12,-1
 436.829101562 725 l 1,13,-1
 517.829101562 725 l 1,14,-1
 403 0 l 1,15,-1
 322 0 l 1,16,-1
 373 322 l 1,17,-1
 132 322 l 1,18,-1
 81 0 l 1,19,-1
 0 0 l 1,8,-1
EndSplineSet
EndChar

StartChar: hcircumflex
Encoding: 293 293 230
Width: 537
GlyphClass: 2
Flags: MW
LayerCount: 2
Fore
SplineSet
257.381835938 779 m 1,0,-1
 212.934570312 833 l 1,1,-1
 336.881835938 940 l 1,2,-1
 363.881835938 940 l 1,3,-1
 453.934570312 833 l 1,4,-1
 392.381835938 779 l 1,5,-1
 346.934570312 833 l 1,6,-1
 334.993164062 846 l 1,7,-1
 257.381835938 779 l 1,0,-1
0 0 m 1,8,-1
 114.829101562 725 l 1,9,-1
 195.829101562 725 l 1,10,-1
 157.5 483 l 1,11,-1
 250.329101562 564 l 1,12,-1
 358.329101562 564 l 1,13,-1
 471.10546875 430 l 1,14,-1
 403 0 l 1,15,-1
 322 0 l 1,16,-1
 385.829101562 403 l 1,17,-1
 318.5 483 l 1,18,-1
 264.5 483 l 1,19,-1
 140.552734375 376 l 1,20,-1
 81 0 l 1,21,-1
 0 0 l 1,8,-1
EndSplineSet
EndChar

StartChar: Hbar
Encoding: 294 294 231
Width: 537
GlyphClass: 2
Flags: MW
LayerCount: 2
Fore
SplineSet
27 0 m 1,0,-1
 107.776367188 510 l 1,1,-1
 53.7763671875 510 l 1,2,-1
 66.60546875 591 l 1,3,-1
 120.60546875 591 l 1,4,-1
 141.829101562 725 l 1,5,-1
 221.829101562 725 l 1,6,-1
 200.60546875 591 l 1,7,-1
 388.60546875 591 l 1,8,-1
 409.829101562 725 l 1,9,-1
 490.829101562 725 l 1,10,-1
 469.60546875 591 l 1,11,-1
 523.60546875 591 l 1,12,-1
 510.776367188 510 l 1,13,-1
 456.776367188 510 l 1,14,-1
 376 0 l 1,15,-1
 295 0 l 1,16,-1
 346 322 l 1,17,-1
 158 322 l 1,18,-1
 107 0 l 1,19,-1
 27 0 l 1,0,-1
358.829101562 403 m 1,20,-1
 375.776367188 510 l 1,21,-1
 187.776367188 510 l 1,22,-1
 170.829101562 403 l 1,23,-1
 358.829101562 403 l 1,20,-1
EndSplineSet
EndChar

StartChar: hbar
Encoding: 295 295 232
Width: 537
GlyphClass: 2
Flags: MW
LayerCount: 2
Fore
SplineSet
27 0 m 1,0,-1
 124.881835938 618 l 1,1,-1
 70.8818359375 618 l 1,2,-1
 83.552734375 698 l 1,3,-1
 137.552734375 698 l 1,4,-1
 141.829101562 725 l 1,5,-1
 221.829101562 725 l 1,6,-1
 217.552734375 698 l 1,7,-1
 459.552734375 698 l 1,8,-1
 446.881835938 618 l 1,9,-1
 204.881835938 618 l 1,10,-1
 183.5 483 l 1,11,-1
 277.329101562 564 l 1,12,-1
 358.329101562 564 l 1,13,-1
 471.10546875 430 l 1,14,-1
 403 0 l 1,15,-1
 322 0 l 1,16,-1
 385.829101562 403 l 1,17,-1
 318.5 483 l 1,18,-1
 291.5 483 l 1,19,-1
 166.552734375 376 l 1,20,-1
 107 0 l 1,21,-1
 27 0 l 1,0,-1
EndSplineSet
EndChar

StartChar: Itilde
Encoding: 296 296 233
Width: 537
GlyphClass: 2
Flags: MW
LayerCount: 2
Fore
SplineSet
204.381835938 779 m 1,0,-1
 158.934570312 833 l 1,1,-1
 251.60546875 913 l 1,2,-1
 332.60546875 913 l 1,3,-1
 378.051757812 859 l 1,4,-1
 405.051757812 859 l 1,5,-1
 466.60546875 913 l 1,6,-1
 512.051757812 859 l 1,7,-1
 418.381835938 779 l 1,8,-1
 338.381835938 779 l 1,9,-1
 292.934570312 833 l 1,10,-1
 265.934570312 833 l 1,11,-1
 204.381835938 779 l 1,0,-1
81 0 m 1,12,-1
 93.8291015625 81 l 1,13,-1
 173.829101562 81 l 1,14,-1
 263.158203125 645 l 1,15,-1
 183.158203125 645 l 1,16,-1
 195.829101562 725 l 1,17,-1
 436.829101562 725 l 1,18,-1
 424.158203125 645 l 1,19,-1
 344.158203125 645 l 1,20,-1
 254.829101562 81 l 1,21,-1
 334.829101562 81 l 1,22,-1
 322 0 l 1,23,-1
 81 0 l 1,12,-1
EndSplineSet
EndChar

StartChar: itilde
Encoding: 297 297 234
Width: 537
GlyphClass: 2
Flags: MW
LayerCount: 2
Fore
SplineSet
178.881835938 618 m 1,0,-1
 133.276367188 671 l 1,1,-1
 226.10546875 752 l 1,2,-1
 307.10546875 752 l 1,3,-1
 352.552734375 698 l 1,4,-1
 379.552734375 698 l 1,5,-1
 441.10546875 752 l 1,6,-1
 486.552734375 698 l 1,7,-1
 392.881835938 618 l 1,8,-1
 312.881835938 618 l 1,9,-1
 267.276367188 671 l 1,10,-1
 240.276367188 671 l 1,11,-1
 178.881835938 618 l 1,0,-1
81 0 m 1,12,-1
 93.8291015625 81 l 1,13,-1
 173.829101562 81 l 1,14,-1
 237.5 483 l 1,15,-1
 157.5 483 l 1,16,-1
 170.329101562 564 l 1,17,-1
 331.329101562 564 l 1,18,-1
 254.829101562 81 l 1,19,-1
 334.829101562 81 l 1,20,-1
 322 0 l 1,21,-1
 81 0 l 1,12,-1
EndSplineSet
EndChar

StartChar: Imacron
Encoding: 298 298 235
Width: 537
GlyphClass: 2
Flags: MW
LayerCount: 2
Fore
SplineSet
181.658203125 806 m 1,0,-1
 194.329101562 886 l 1,1,-1
 489.329101562 886 l 1,2,-1
 476.658203125 806 l 1,3,-1
 181.658203125 806 l 1,0,-1
81 0 m 1,4,-1
 93.8291015625 81 l 1,5,-1
 173.829101562 81 l 1,6,-1
 263.158203125 645 l 1,7,-1
 183.158203125 645 l 1,8,-1
 195.829101562 725 l 1,9,-1
 436.829101562 725 l 1,10,-1
 424.158203125 645 l 1,11,-1
 344.158203125 645 l 1,12,-1
 254.829101562 81 l 1,13,-1
 334.829101562 81 l 1,14,-1
 322 0 l 1,15,-1
 81 0 l 1,4,-1
EndSplineSet
EndChar

StartChar: imacron
Encoding: 299 299 236
Width: 537
GlyphClass: 2
Flags: MW
LayerCount: 2
Fore
SplineSet
156.158203125 645 m 1,0,-1
 168.829101562 725 l 1,1,-1
 463.829101562 725 l 1,2,-1
 451.158203125 645 l 1,3,-1
 156.158203125 645 l 1,0,-1
81 0 m 1,4,-1
 93.8291015625 81 l 1,5,-1
 173.829101562 81 l 1,6,-1
 237.5 483 l 1,7,-1
 157.5 483 l 1,8,-1
 170.329101562 564 l 1,9,-1
 331.329101562 564 l 1,10,-1
 254.829101562 81 l 1,11,-1
 334.829101562 81 l 1,12,-1
 322 0 l 1,13,-1
 81 0 l 1,4,-1
EndSplineSet
EndChar

StartChar: Ibreve
Encoding: 300 300 237
Width: 537
GlyphClass: 2
Flags: MW
LayerCount: 2
Fore
SplineSet
257.381835938 779 m 1,0,-1
 190.051757812 859 l 1,1,-1
 251.60546875 913 l 1,2,-1
 297.051757812 859 l 1,3,-1
 378.051757812 859 l 1,4,-1
 439.60546875 913 l 1,5,-1
 485.051757812 859 l 1,6,-1
 392.381835938 779 l 1,7,-1
 257.381835938 779 l 1,0,-1
81 0 m 1,8,-1
 93.8291015625 81 l 1,9,-1
 173.829101562 81 l 1,10,-1
 263.158203125 645 l 1,11,-1
 183.158203125 645 l 1,12,-1
 195.829101562 725 l 1,13,-1
 436.829101562 725 l 1,14,-1
 424.158203125 645 l 1,15,-1
 344.158203125 645 l 1,16,-1
 254.829101562 81 l 1,17,-1
 334.829101562 81 l 1,18,-1
 322 0 l 1,19,-1
 81 0 l 1,8,-1
EndSplineSet
EndChar

StartChar: ibreve
Encoding: 301 301 238
Width: 537
GlyphClass: 2
Flags: MW
LayerCount: 2
Fore
SplineSet
231.881835938 618 m 1,0,-1
 164.552734375 698 l 1,1,-1
 226.10546875 752 l 1,2,-1
 271.552734375 698 l 1,3,-1
 352.552734375 698 l 1,4,-1
 414.10546875 752 l 1,5,-1
 459.552734375 698 l 1,6,-1
 366.881835938 618 l 1,7,-1
 231.881835938 618 l 1,0,-1
81 0 m 1,8,-1
 93.8291015625 81 l 1,9,-1
 173.829101562 81 l 1,10,-1
 237.5 483 l 1,11,-1
 157.5 483 l 1,12,-1
 170.329101562 564 l 1,13,-1
 331.329101562 564 l 1,14,-1
 254.829101562 81 l 1,15,-1
 334.829101562 81 l 1,16,-1
 322 0 l 1,17,-1
 81 0 l 1,8,-1
EndSplineSet
EndChar

StartChar: Iogonek
Encoding: 302 302 239
Width: 537
GlyphClass: 2
Flags: MW
LayerCount: 2
Fore
SplineSet
243.5 -161 m 1,0,-1
 175.170898438 -81 l 1,1,-1
 179.447265625 -54 l 1,2,-1
 215 0 l 1,3,-1
 81 0 l 1,4,-1
 93.8291015625 81 l 1,5,-1
 173.829101562 81 l 1,6,-1
 263.158203125 645 l 1,7,-1
 183.158203125 645 l 1,8,-1
 195.829101562 725 l 1,9,-1
 436.829101562 725 l 1,10,-1
 424.158203125 645 l 1,11,-1
 344.158203125 645 l 1,12,-1
 254.829101562 81 l 1,13,-1
 334.829101562 81 l 1,14,-1
 322 0 l 1,15,-1
 295 0 l 1,16,-1
 260.447265625 -54 l 1,17,-1
 305.052734375 -107 l 1,18,-1
 243.5 -161 l 1,0,-1
EndSplineSet
EndChar

StartChar: iogonek
Encoding: 303 303 240
Width: 537
GlyphClass: 2
Flags: MW
LayerCount: 2
Fore
SplineSet
263.158203125 645 m 1,0,-1
 275.829101562 725 l 1,1,-1
 356.829101562 725 l 1,2,-1
 344.158203125 645 l 1,3,-1
 263.158203125 645 l 1,0,-1
243.5 -161 m 1,4,-1
 175.170898438 -81 l 1,5,-1
 179.447265625 -54 l 1,6,-1
 215 0 l 1,7,-1
 81 0 l 1,8,-1
 93.8291015625 81 l 1,9,-1
 173.829101562 81 l 1,10,-1
 237.5 483 l 1,11,-1
 157.5 483 l 1,12,-1
 170.329101562 564 l 1,13,-1
 331.329101562 564 l 1,14,-1
 254.829101562 81 l 1,15,-1
 334.829101562 81 l 1,16,-1
 322 0 l 1,17,-1
 295 0 l 1,18,-1
 260.447265625 -54 l 1,19,-1
 305.052734375 -107 l 1,20,-1
 243.5 -161 l 1,4,-1
EndSplineSet
EndChar

StartChar: Idotaccent
Encoding: 304 304 241
Width: 537
GlyphClass: 2
Flags: MW
LayerCount: 2
Fore
SplineSet
288.658203125 806 m 1,0,-1
 301.329101562 886 l 1,1,-1
 382.329101562 886 l 1,2,-1
 369.658203125 806 l 1,3,-1
 288.658203125 806 l 1,0,-1
81 0 m 1,4,-1
 93.8291015625 81 l 1,5,-1
 173.829101562 81 l 1,6,-1
 263.158203125 645 l 1,7,-1
 183.158203125 645 l 1,8,-1
 195.829101562 725 l 1,9,-1
 436.829101562 725 l 1,10,-1
 424.158203125 645 l 1,11,-1
 344.158203125 645 l 1,12,-1
 254.829101562 81 l 1,13,-1
 334.829101562 81 l 1,14,-1
 322 0 l 1,15,-1
 81 0 l 1,4,-1
EndSplineSet
EndChar

StartChar: dotlessi
Encoding: 305 305 242
Width: 537
GlyphClass: 2
Flags: MW
LayerCount: 2
Fore
SplineSet
81 0 m 1,0,-1
 93.8291015625 81 l 1,1,-1
 173.829101562 81 l 1,2,-1
 237.5 483 l 1,3,-1
 157.5 483 l 1,4,-1
 170.329101562 564 l 1,5,-1
 331.329101562 564 l 1,6,-1
 254.829101562 81 l 1,7,-1
 334.829101562 81 l 1,8,-1
 322 0 l 1,9,-1
 81 0 l 1,0,-1
EndSplineSet
EndChar

StartChar: IJ
Encoding: 306 306 243
Width: 537
GlyphClass: 2
Flags: MW
LayerCount: 2
Fore
SplineSet
161 0 m 1,0,-1
 48.2236328125 134 l 1,1,-1
 110.776367188 188 l 1,2,-1
 200.829101562 81 l 1,3,-1
 254.829101562 81 l 1,4,-1
 347.5 161 l 1,5,-1
 436.829101562 725 l 1,6,-1
 517.829101562 725 l 1,7,-1
 424.223632812 134 l 1,8,-1
 269 0 l 1,9,-1
 161 0 l 1,0,-1
38.3291015625 242 m 1,10,-1
 51 322 l 1,11,-1
 105 322 l 1,12,-1
 156.158203125 645 l 1,13,-1
 102.158203125 645 l 1,14,-1
 114.829101562 725 l 1,15,-1
 302.829101562 725 l 1,16,-1
 290.158203125 645 l 1,17,-1
 236.158203125 645 l 1,18,-1
 185 322 l 1,19,-1
 239 322 l 1,20,-1
 226.329101562 242 l 1,21,-1
 38.3291015625 242 l 1,10,-1
EndSplineSet
EndChar

StartChar: ij
Encoding: 307 307 244
Width: 537
GlyphClass: 2
Flags: MW
LayerCount: 2
Fore
SplineSet
424.158203125 645 m 1,0,-1
 436.829101562 725 l 1,1,-1
 517.829101562 725 l 1,2,-1
 505.158203125 645 l 1,3,-1
 424.158203125 645 l 1,0,-1
183.158203125 645 m 1,4,-1
 195.829101562 725 l 1,5,-1
 275.829101562 725 l 1,6,-1
 263.158203125 645 l 1,7,-1
 183.158203125 645 l 1,4,-1
162.5 -161 m 1,8,-1
 72.447265625 -54 l 1,9,-1
 134 0 l 1,10,-1
 202.170898438 -81 l 1,11,-1
 256.170898438 -81 l 1,12,-1
 317.723632812 -27 l 1,13,-1
 398.5 483 l 1,14,-1
 318.5 483 l 1,15,-1
 331.329101562 564 l 1,16,-1
 492.329101562 564 l 1,17,-1
 394.447265625 -54 l 1,18,-1
 269.5 -161 l 1,19,-1
 162.5 -161 l 1,8,-1
8.552734375 54 m 1,20,-1
 21.2236328125 134 l 1,21,-1
 102.223632812 134 l 1,22,-1
 157.5 483 l 1,23,-1
 76.5 483 l 1,24,-1
 89.3291015625 564 l 1,25,-1
 250.329101562 564 l 1,26,-1
 182.223632812 134 l 1,27,-1
 263.223632812 134 l 1,28,-1
 250.552734375 54 l 1,29,-1
 8.552734375 54 l 1,20,-1
EndSplineSet
EndChar

StartChar: Jcircumflex
Encoding: 308 308 245
Width: 537
GlyphClass: 2
Flags: MW
LayerCount: 2
Fore
SplineSet
257.381835938 779 m 1,0,-1
 212.934570312 833 l 1,1,-1
 336.881835938 940 l 1,2,-1
 363.881835938 940 l 1,3,-1
 453.934570312 833 l 1,4,-1
 392.381835938 779 l 1,5,-1
 346.934570312 833 l 1,6,-1
 334.993164062 846 l 1,7,-1
 257.381835938 779 l 1,0,-1
134 0 m 1,8,-1
 21.2236328125 134 l 1,9,-1
 83.7763671875 188 l 1,10,-1
 173.829101562 81 l 1,11,-1
 254.829101562 81 l 1,12,-1
 347.5 161 l 1,13,-1
 436.829101562 725 l 1,14,-1
 517.829101562 725 l 1,15,-1
 424.223632812 134 l 1,16,-1
 269 0 l 1,17,-1
 134 0 l 1,8,-1
EndSplineSet
EndChar

StartChar: jcircumflex
Encoding: 309 309 246
Width: 537
GlyphClass: 2
Flags: MW
LayerCount: 2
Fore
SplineSet
312.881835938 618 m 1,0,-1
 267.276367188 671 l 1,1,-1
 392.381835938 779 l 1,2,-1
 418.381835938 779 l 1,3,-1
 509.276367188 671 l 1,4,-1
 446.881835938 618 l 1,5,-1
 401.276367188 671 l 1,6,-1
 390.493164062 685 l 1,7,-1
 312.881835938 618 l 1,0,-1
81.5 -161 m 1,8,-1
 -8.552734375 -54 l 1,9,-1
 54 0 l 1,10,-1
 121.170898438 -81 l 1,11,-1
 175.170898438 -81 l 1,12,-1
 237.723632812 -27 l 1,13,-1
 318.5 483 l 1,14,-1
 237.5 483 l 1,15,-1
 250.329101562 564 l 1,16,-1
 411.329101562 564 l 1,17,-1
 313.447265625 -54 l 1,18,-1
 189.5 -161 l 1,19,-1
 81.5 -161 l 1,8,-1
EndSplineSet
EndChar

StartChar: uni0136
Encoding: 310 310 247
Width: 537
GlyphClass: 2
Flags: MW
LayerCount: 2
Fore
SplineSet
0 0 m 1,0,-1
 114.829101562 725 l 1,1,-1
 195.829101562 725 l 1,2,-1
 144.829101562 403 l 1,3,-1
 238.829101562 403 l 1,4,-1
 450.829101562 725 l 1,5,-1
 463.829101562 725 l 1,6,-1
 513.552734375 698 l 1,7,-1
 292.493164062 363 l 1,8,-1
 407.276367188 27 l 1,9,-1
 349 0 l 1,10,-1
 336 0 l 1,11,-1
 226 322 l 1,12,-1
 132 322 l 1,13,-1
 81 0 l 1,14,-1
 0 0 l 1,0,-1
135.5 -161 m 1,15,-1
 90.052734375 -107 l 1,16,-1
 152.447265625 -54 l 1,17,-1
 169.552734375 54 l 1,18,-1
 250.552734375 54 l 1,19,-1
 229.170898438 -81 l 1,20,-1
 135.5 -161 l 1,15,-1
EndSplineSet
EndChar

StartChar: uni0137
Encoding: 311 311 248
Width: 537
GlyphClass: 2
Flags: MW
LayerCount: 2
Fore
SplineSet
0 0 m 1,0,-1
 114.829101562 725 l 1,1,-1
 195.829101562 725 l 1,2,-1
 132 322 l 1,3,-1
 266 322 l 1,4,-1
 425.329101562 564 l 1,5,-1
 438.329101562 564 l 1,6,-1
 488.052734375 537 l 1,7,-1
 319.6640625 282 l 1,8,-1
 407.276367188 27 l 1,9,-1
 349 0 l 1,10,-1
 336 0 l 1,11,-1
 253.329101562 242 l 1,12,-1
 119.329101562 242 l 1,13,-1
 81 0 l 1,14,-1
 0 0 l 1,0,-1
135.5 -161 m 1,15,-1
 90.052734375 -107 l 1,16,-1
 152.447265625 -54 l 1,17,-1
 169.552734375 54 l 1,18,-1
 250.552734375 54 l 1,19,-1
 229.170898438 -81 l 1,20,-1
 135.5 -161 l 1,15,-1
EndSplineSet
EndChar

StartChar: kgreenlandic
Encoding: 312 312 249
Width: 537
GlyphClass: 2
Flags: MW
LayerCount: 2
Fore
SplineSet
0 0 m 1,0,-1
 89.3291015625 564 l 1,1,-1
 170.329101562 564 l 1,2,-1
 132 322 l 1,3,-1
 266 322 l 1,4,-1
 425.329101562 564 l 1,5,-1
 438.329101562 564 l 1,6,-1
 488.052734375 537 l 1,7,-1
 319.6640625 282 l 1,8,-1
 407.276367188 27 l 1,9,-1
 349 0 l 1,10,-1
 336 0 l 1,11,-1
 253.329101562 242 l 1,12,-1
 119.329101562 242 l 1,13,-1
 81 0 l 1,14,-1
 0 0 l 1,0,-1
EndSplineSet
EndChar

StartChar: Lacute
Encoding: 313 313 250
Width: 537
GlyphClass: 2
Flags: MW
LayerCount: 2
Fore
SplineSet
311.381835938 779 m 1,0,-1
 265.934570312 833 l 1,1,-1
 390.881835938 940 l 1,2,-1
 435.329101562 886 l 1,3,-1
 311.381835938 779 l 1,0,-1
0 0 m 1,4,-1
 114.829101562 725 l 1,5,-1
 195.829101562 725 l 1,6,-1
 93.8291015625 81 l 1,7,-1
 415.829101562 81 l 1,8,-1
 403 0 l 1,9,-1
 0 0 l 1,4,-1
EndSplineSet
EndChar

StartChar: lacute
Encoding: 314 314 251
Width: 537
GlyphClass: 2
Flags: MW
LayerCount: 2
Fore
SplineSet
311.381835938 779 m 1,0,-1
 265.934570312 833 l 1,1,-1
 390.881835938 940 l 1,2,-1
 435.329101562 886 l 1,3,-1
 311.381835938 779 l 1,0,-1
81 0 m 1,4,-1
 93.8291015625 81 l 1,5,-1
 173.829101562 81 l 1,6,-1
 263.158203125 645 l 1,7,-1
 183.158203125 645 l 1,8,-1
 195.829101562 725 l 1,9,-1
 356.829101562 725 l 1,10,-1
 254.829101562 81 l 1,11,-1
 334.829101562 81 l 1,12,-1
 322 0 l 1,13,-1
 81 0 l 1,4,-1
EndSplineSet
EndChar

StartChar: uni013B
Encoding: 315 315 252
Width: 537
GlyphClass: 2
Flags: MW
LayerCount: 2
Fore
SplineSet
135.5 -161 m 1,0,-1
 90.052734375 -107 l 1,1,-1
 152.447265625 -54 l 1,2,-1
 161 0 l 1,3,-1
 0 0 l 1,4,-1
 114.829101562 725 l 1,5,-1
 195.829101562 725 l 1,6,-1
 93.8291015625 81 l 1,7,-1
 415.829101562 81 l 1,8,-1
 403 0 l 1,9,-1
 242 0 l 1,10,-1
 229.170898438 -81 l 1,11,-1
 135.5 -161 l 1,0,-1
EndSplineSet
EndChar

StartChar: uni013C
Encoding: 316 316 253
Width: 537
GlyphClass: 2
Flags: MW
LayerCount: 2
Fore
SplineSet
135.5 -161 m 1,0,-1
 90.052734375 -107 l 1,1,-1
 152.447265625 -54 l 1,2,-1
 161 0 l 1,3,-1
 81 0 l 1,4,-1
 93.8291015625 81 l 1,5,-1
 173.829101562 81 l 1,6,-1
 263.158203125 645 l 1,7,-1
 183.158203125 645 l 1,8,-1
 195.829101562 725 l 1,9,-1
 356.829101562 725 l 1,10,-1
 254.829101562 81 l 1,11,-1
 334.829101562 81 l 1,12,-1
 322 0 l 1,13,-1
 242 0 l 1,14,-1
 229.170898438 -81 l 1,15,-1
 135.5 -161 l 1,0,-1
EndSplineSet
EndChar

StartChar: Lcaron
Encoding: 317 317 254
Width: 537
GlyphClass: 2
Flags: MW
LayerCount: 2
Fore
SplineSet
363.10546875 430 m 1,0,-1
 318.5 483 l 1,1,-1
 411.329101562 564 l 1,2,-1
 415.60546875 591 l 1,3,-1
 362.60546875 591 l 1,4,-1
 383.829101562 725 l 1,5,-1
 517.829101562 725 l 1,6,-1
 488.052734375 537 l 1,7,-1
 363.10546875 430 l 1,0,-1
0 0 m 1,8,-1
 114.829101562 725 l 1,9,-1
 195.829101562 725 l 1,10,-1
 93.8291015625 81 l 1,11,-1
 415.829101562 81 l 1,12,-1
 403 0 l 1,13,-1
 0 0 l 1,8,-1
EndSplineSet
EndChar

StartChar: lcaron
Encoding: 318 318 255
Width: 537
GlyphClass: 2
Flags: MW
LayerCount: 2
Fore
SplineSet
363.10546875 430 m 1,0,-1
 318.5 483 l 1,1,-1
 411.329101562 564 l 1,2,-1
 415.60546875 591 l 1,3,-1
 362.60546875 591 l 1,4,-1
 383.829101562 725 l 1,5,-1
 517.829101562 725 l 1,6,-1
 488.052734375 537 l 1,7,-1
 363.10546875 430 l 1,0,-1
0 0 m 1,8,-1
 12.8291015625 81 l 1,9,-1
 93.8291015625 81 l 1,10,-1
 183.158203125 645 l 1,11,-1
 102.158203125 645 l 1,12,-1
 114.829101562 725 l 1,13,-1
 275.829101562 725 l 1,14,-1
 173.829101562 81 l 1,15,-1
 254.829101562 81 l 1,16,-1
 242 0 l 1,17,-1
 0 0 l 1,8,-1
EndSplineSet
EndChar

StartChar: Ldot
Encoding: 319 319 256
Width: 537
GlyphClass: 2
Flags: MW
LayerCount: 2
Fore
SplineSet
0 0 m 1,0,-1
 114.829101562 725 l 1,1,-1
 195.829101562 725 l 1,2,-1
 93.8291015625 81 l 1,3,-1
 415.829101562 81 l 1,4,-1
 403 0 l 1,5,-1
 0 0 l 1,0,-1
293 322 m 1,6,-1
 305.829101562 403 l 1,7,-1
 385.829101562 403 l 1,8,-1
 373 322 l 1,9,-1
 293 322 l 1,6,-1
EndSplineSet
EndChar

StartChar: ldot
Encoding: 320 320 257
Width: 537
GlyphClass: 2
Flags: MW
LayerCount: 2
Fore
SplineSet
54 0 m 1,0,-1
 66.8291015625 81 l 1,1,-1
 146.829101562 81 l 1,2,-1
 236.158203125 645 l 1,3,-1
 156.158203125 645 l 1,4,-1
 168.829101562 725 l 1,5,-1
 329.829101562 725 l 1,6,-1
 227.829101562 81 l 1,7,-1
 307.829101562 81 l 1,8,-1
 295 0 l 1,9,-1
 54 0 l 1,0,-1
373 322 m 1,10,-1
 385.829101562 403 l 1,11,-1
 466.829101562 403 l 1,12,-1
 454 322 l 1,13,-1
 373 322 l 1,10,-1
EndSplineSet
EndChar

StartChar: Lslash
Encoding: 321 321 258
Width: 537
GlyphClass: 2
Flags: MW
LayerCount: 2
Fore
SplineSet
54 0 m 1,0,-1
 102.940429688 309 l 1,1,-1
 15.60546875 269 l 1,2,-1
 -3 322 l 1,3,-1
 -0.783203125 336 l 1,4,-1
 115.611328125 389 l 1,5,-1
 168.829101562 725 l 1,6,-1
 248.829101562 725 l 1,7,-1
 202.10546875 430 l 1,8,-1
 318.5 483 l 1,9,-1
 337.10546875 430 l 1,10,-1
 334.887695312 416 l 1,11,-1
 189.276367188 349 l 1,12,-1
 146.829101562 81 l 1,13,-1
 415.829101562 81 l 1,14,-1
 403 0 l 1,15,-1
 54 0 l 1,0,-1
EndSplineSet
EndChar

StartChar: lslash
Encoding: 322 322 259
Width: 537
GlyphClass: 2
Flags: MW
LayerCount: 2
Fore
SplineSet
81 0 m 1,0,-1
 93.8291015625 81 l 1,1,-1
 173.829101562 81 l 1,2,-1
 214.216796875 336 l 1,3,-1
 127.723632812 295 l 1,4,-1
 109.276367188 349 l 1,5,-1
 111.493164062 363 l 1,6,-1
 226.887695312 416 l 1,7,-1
 263.158203125 645 l 1,8,-1
 183.158203125 645 l 1,9,-1
 195.829101562 725 l 1,10,-1
 356.829101562 725 l 1,11,-1
 314.381835938 457 l 1,12,-1
 429.776367188 510 l 1,13,-1
 448.381835938 457 l 1,14,-1
 446.1640625 443 l 1,15,-1
 301.552734375 376 l 1,16,-1
 254.829101562 81 l 1,17,-1
 334.829101562 81 l 1,18,-1
 322 0 l 1,19,-1
 81 0 l 1,0,-1
EndSplineSet
EndChar

StartChar: Nacute
Encoding: 323 323 260
Width: 537
GlyphClass: 2
Flags: MW
LayerCount: 2
Fore
SplineSet
311.381835938 779 m 1,0,-1
 265.934570312 833 l 1,1,-1
 390.881835938 940 l 1,2,-1
 435.329101562 886 l 1,3,-1
 311.381835938 779 l 1,0,-1
0 0 m 1,4,-1
 114.829101562 725 l 1,5,-1
 181.829101562 725 l 1,6,-1
 356.052734375 215 l 1,7,-1
 436.829101562 725 l 1,8,-1
 517.829101562 725 l 1,9,-1
 403 0 l 1,10,-1
 349 0 l 1,11,-1
 166.052734375 537 l 1,12,-1
 81 0 l 1,13,-1
 0 0 l 1,4,-1
EndSplineSet
EndChar

StartChar: nacute
Encoding: 324 324 261
Width: 537
GlyphClass: 2
Flags: MW
LayerCount: 2
Fore
SplineSet
285.881835938 618 m 1,0,-1
 240.276367188 671 l 1,1,-1
 365.381835938 779 l 1,2,-1
 409.829101562 725 l 1,3,-1
 285.881835938 618 l 1,0,-1
0 0 m 1,4,-1
 89.3291015625 564 l 1,5,-1
 170.329101562 564 l 1,6,-1
 157.5 483 l 1,7,-1
 250.329101562 564 l 1,8,-1
 358.329101562 564 l 1,9,-1
 471.10546875 430 l 1,10,-1
 403 0 l 1,11,-1
 322 0 l 1,12,-1
 385.829101562 403 l 1,13,-1
 318.5 483 l 1,14,-1
 264.5 483 l 1,15,-1
 140.552734375 376 l 1,16,-1
 81 0 l 1,17,-1
 0 0 l 1,4,-1
EndSplineSet
EndChar

StartChar: uni0145
Encoding: 325 325 262
Width: 537
GlyphClass: 2
Flags: MW
LayerCount: 2
Fore
SplineSet
0 0 m 1,0,-1
 114.829101562 725 l 1,1,-1
 181.829101562 725 l 1,2,-1
 356.052734375 215 l 1,3,-1
 436.829101562 725 l 1,4,-1
 517.829101562 725 l 1,5,-1
 403 0 l 1,6,-1
 349 0 l 1,7,-1
 166.052734375 537 l 1,8,-1
 81 0 l 1,9,-1
 0 0 l 1,0,-1
135.5 -161 m 1,10,-1
 90.052734375 -107 l 1,11,-1
 152.447265625 -54 l 1,12,-1
 169.552734375 54 l 1,13,-1
 250.552734375 54 l 1,14,-1
 229.170898438 -81 l 1,15,-1
 135.5 -161 l 1,10,-1
EndSplineSet
EndChar

StartChar: uni0146
Encoding: 326 326 263
Width: 537
GlyphClass: 2
Flags: MW
LayerCount: 2
Fore
SplineSet
0 0 m 1,0,-1
 89.3291015625 564 l 1,1,-1
 170.329101562 564 l 1,2,-1
 157.5 483 l 1,3,-1
 250.329101562 564 l 1,4,-1
 358.329101562 564 l 1,5,-1
 471.10546875 430 l 1,6,-1
 403 0 l 1,7,-1
 322 0 l 1,8,-1
 385.829101562 403 l 1,9,-1
 318.5 483 l 1,10,-1
 264.5 483 l 1,11,-1
 140.552734375 376 l 1,12,-1
 81 0 l 1,13,-1
 0 0 l 1,0,-1
135.5 -161 m 1,14,-1
 90.052734375 -107 l 1,15,-1
 152.447265625 -54 l 1,16,-1
 169.552734375 54 l 1,17,-1
 250.552734375 54 l 1,18,-1
 229.170898438 -81 l 1,19,-1
 135.5 -161 l 1,14,-1
EndSplineSet
EndChar

StartChar: Ncaron
Encoding: 327 327 264
Width: 537
GlyphClass: 2
Flags: MW
LayerCount: 2
Fore
SplineSet
311.381835938 779 m 1,0,-1
 221.329101562 886 l 1,1,-1
 282.881835938 940 l 1,2,-1
 328.329101562 886 l 1,3,-1
 328.169921875 885 l 1,4,-1
 339.26953125 873 l 1,5,-1
 417.881835938 940 l 1,6,-1
 462.329101562 886 l 1,7,-1
 338.381835938 779 l 1,8,-1
 311.381835938 779 l 1,0,-1
0 0 m 1,9,-1
 114.829101562 725 l 1,10,-1
 181.829101562 725 l 1,11,-1
 356.052734375 215 l 1,12,-1
 436.829101562 725 l 1,13,-1
 517.829101562 725 l 1,14,-1
 403 0 l 1,15,-1
 349 0 l 1,16,-1
 166.052734375 537 l 1,17,-1
 81 0 l 1,18,-1
 0 0 l 1,9,-1
EndSplineSet
EndChar

StartChar: ncaron
Encoding: 328 328 265
Width: 537
GlyphClass: 2
Flags: MW
LayerCount: 2
Fore
SplineSet
285.881835938 618 m 1,0,-1
 195.829101562 725 l 1,1,-1
 257.381835938 779 l 1,2,-1
 302.829101562 725 l 1,3,-1
 302.669921875 724 l 1,4,-1
 313.76953125 712 l 1,5,-1
 392.381835938 779 l 1,6,-1
 436.829101562 725 l 1,7,-1
 312.881835938 618 l 1,8,-1
 285.881835938 618 l 1,0,-1
0 0 m 1,9,-1
 89.3291015625 564 l 1,10,-1
 170.329101562 564 l 1,11,-1
 157.5 483 l 1,12,-1
 250.329101562 564 l 1,13,-1
 358.329101562 564 l 1,14,-1
 471.10546875 430 l 1,15,-1
 403 0 l 1,16,-1
 322 0 l 1,17,-1
 385.829101562 403 l 1,18,-1
 318.5 483 l 1,19,-1
 264.5 483 l 1,20,-1
 140.552734375 376 l 1,21,-1
 81 0 l 1,22,-1
 0 0 l 1,9,-1
EndSplineSet
EndChar

StartChar: napostrophe
Encoding: 329 329 266
Width: 537
GlyphClass: 2
Flags: MW
LayerCount: 2
Fore
SplineSet
126.381835938 457 m 1,0,-1
 80.7763671875 510 l 1,1,-1
 143.329101562 564 l 1,2,-1
 147.60546875 591 l 1,3,-1
 93.60546875 591 l 1,4,-1
 114.829101562 725 l 1,5,-1
 248.829101562 725 l 1,6,-1
 219.052734375 537 l 1,7,-1
 126.381835938 457 l 1,0,-1
161 0 m 1,8,-1
 250.329101562 564 l 1,9,-1
 331.329101562 564 l 1,10,-1
 322.776367188 510 l 1,11,-1
 384.329101562 564 l 1,12,-1
 411.329101562 564 l 1,13,-1
 479.5 483 l 1,14,-1
 403 0 l 1,15,-1
 322 0 l 1,16,-1
 394.381835938 457 l 1,17,-1
 383.440429688 470 l 1,18,-1
 305.829101562 403 l 1,19,-1
 242 0 l 1,20,-1
 161 0 l 1,8,-1
EndSplineSet
EndChar

StartChar: Eng
Encoding: 330 330 267
Width: 537
GlyphClass: 2
Flags: MW
LayerCount: 2
Fore
SplineSet
243.5 -161 m 1,0,-1
 198.052734375 -107 l 1,1,-1
 322 0 l 1,2,-1
 330.552734375 54 l 1,3,-1
 166.052734375 537 l 1,4,-1
 81 0 l 1,5,-1
 0 0 l 1,6,-1
 114.829101562 725 l 1,7,-1
 181.829101562 725 l 1,8,-1
 356.052734375 215 l 1,9,-1
 436.829101562 725 l 1,10,-1
 517.829101562 725 l 1,11,-1
 398.723632812 -27 l 1,12,-1
 243.5 -161 l 1,0,-1
EndSplineSet
EndChar

StartChar: eng
Encoding: 331 331 268
Width: 537
GlyphClass: 2
Flags: MW
LayerCount: 2
Fore
SplineSet
243.5 -161 m 1,0,-1
 198.052734375 -107 l 1,1,-1
 322 0 l 1,2,-1
 385.829101562 403 l 1,3,-1
 318.5 483 l 1,4,-1
 264.5 483 l 1,5,-1
 140.552734375 376 l 1,6,-1
 81 0 l 1,7,-1
 0 0 l 1,8,-1
 89.3291015625 564 l 1,9,-1
 170.329101562 564 l 1,10,-1
 157.5 483 l 1,11,-1
 250.329101562 564 l 1,12,-1
 358.329101562 564 l 1,13,-1
 471.10546875 430 l 1,14,-1
 398.723632812 -27 l 1,15,-1
 243.5 -161 l 1,0,-1
EndSplineSet
EndChar

StartChar: Omacron
Encoding: 332 332 269
Width: 537
GlyphClass: 2
Flags: MW
LayerCount: 2
Fore
SplineSet
181.658203125 806 m 1,0,-1
 194.329101562 886 l 1,1,-1
 489.329101562 886 l 1,2,-1
 476.658203125 806 l 1,3,-1
 181.658203125 806 l 1,0,-1
134 0 m 1,4,-1
 21.2236328125 134 l 1,5,-1
 93.60546875 591 l 1,6,-1
 248.829101562 725 l 1,7,-1
 383.829101562 725 l 1,8,-1
 496.60546875 591 l 1,9,-1
 424.223632812 134 l 1,10,-1
 269 0 l 1,11,-1
 134 0 l 1,4,-1
254.829101562 81 m 1,12,-1
 347.5 161 l 1,13,-1
 411.329101562 564 l 1,14,-1
 344.158203125 645 l 1,15,-1
 263.158203125 645 l 1,16,-1
 170.329101562 564 l 1,17,-1
 106.5 161 l 1,18,-1
 173.829101562 81 l 1,19,-1
 254.829101562 81 l 1,12,-1
EndSplineSet
EndChar

StartChar: omacron
Encoding: 333 333 270
Width: 537
GlyphClass: 2
Flags: MW
LayerCount: 2
Fore
SplineSet
156.158203125 645 m 1,0,-1
 168.829101562 725 l 1,1,-1
 463.829101562 725 l 1,2,-1
 451.158203125 645 l 1,3,-1
 156.158203125 645 l 1,0,-1
134 0 m 1,4,-1
 21.2236328125 134 l 1,5,-1
 68.10546875 430 l 1,6,-1
 223.329101562 564 l 1,7,-1
 358.329101562 564 l 1,8,-1
 471.10546875 430 l 1,9,-1
 424.223632812 134 l 1,10,-1
 269 0 l 1,11,-1
 134 0 l 1,4,-1
254.829101562 81 m 1,12,-1
 347.5 161 l 1,13,-1
 385.829101562 403 l 1,14,-1
 318.5 483 l 1,15,-1
 237.5 483 l 1,16,-1
 144.829101562 403 l 1,17,-1
 106.5 161 l 1,18,-1
 173.829101562 81 l 1,19,-1
 254.829101562 81 l 1,12,-1
EndSplineSet
EndChar

StartChar: Obreve
Encoding: 334 334 271
Width: 537
GlyphClass: 2
Flags: MW
LayerCount: 2
Fore
SplineSet
257.381835938 779 m 1,0,-1
 190.051757812 859 l 1,1,-1
 251.60546875 913 l 1,2,-1
 297.051757812 859 l 1,3,-1
 378.051757812 859 l 1,4,-1
 439.60546875 913 l 1,5,-1
 485.051757812 859 l 1,6,-1
 392.381835938 779 l 1,7,-1
 257.381835938 779 l 1,0,-1
134 0 m 1,8,-1
 21.2236328125 134 l 1,9,-1
 93.60546875 591 l 1,10,-1
 248.829101562 725 l 1,11,-1
 383.829101562 725 l 1,12,-1
 496.60546875 591 l 1,13,-1
 424.223632812 134 l 1,14,-1
 269 0 l 1,15,-1
 134 0 l 1,8,-1
254.829101562 81 m 1,16,-1
 347.5 161 l 1,17,-1
 411.329101562 564 l 1,18,-1
 344.158203125 645 l 1,19,-1
 263.158203125 645 l 1,20,-1
 170.329101562 564 l 1,21,-1
 106.5 161 l 1,22,-1
 173.829101562 81 l 1,23,-1
 254.829101562 81 l 1,16,-1
EndSplineSet
EndChar

StartChar: obreve
Encoding: 335 335 272
Width: 537
GlyphClass: 2
Flags: MW
LayerCount: 2
Fore
SplineSet
231.881835938 618 m 1,0,-1
 164.552734375 698 l 1,1,-1
 226.10546875 752 l 1,2,-1
 271.552734375 698 l 1,3,-1
 352.552734375 698 l 1,4,-1
 414.10546875 752 l 1,5,-1
 459.552734375 698 l 1,6,-1
 366.881835938 618 l 1,7,-1
 231.881835938 618 l 1,0,-1
134 0 m 1,8,-1
 21.2236328125 134 l 1,9,-1
 68.10546875 430 l 1,10,-1
 223.329101562 564 l 1,11,-1
 358.329101562 564 l 1,12,-1
 471.10546875 430 l 1,13,-1
 424.223632812 134 l 1,14,-1
 269 0 l 1,15,-1
 134 0 l 1,8,-1
254.829101562 81 m 1,16,-1
 347.5 161 l 1,17,-1
 385.829101562 403 l 1,18,-1
 318.5 483 l 1,19,-1
 237.5 483 l 1,20,-1
 144.829101562 403 l 1,21,-1
 106.5 161 l 1,22,-1
 173.829101562 81 l 1,23,-1
 254.829101562 81 l 1,16,-1
EndSplineSet
EndChar

StartChar: Ohungarumlaut
Encoding: 336 336 273
Width: 537
GlyphClass: 2
Flags: MW
LayerCount: 2
Fore
SplineSet
392.381835938 779 m 1,0,-1
 346.934570312 833 l 1,1,-1
 470.881835938 940 l 1,2,-1
 516.329101562 886 l 1,3,-1
 392.381835938 779 l 1,0,-1
230.381835938 779 m 1,4,-1
 185.934570312 833 l 1,5,-1
 309.881835938 940 l 1,6,-1
 355.329101562 886 l 1,7,-1
 230.381835938 779 l 1,4,-1
134 0 m 1,8,-1
 21.2236328125 134 l 1,9,-1
 93.60546875 591 l 1,10,-1
 248.829101562 725 l 1,11,-1
 383.829101562 725 l 1,12,-1
 496.60546875 591 l 1,13,-1
 424.223632812 134 l 1,14,-1
 269 0 l 1,15,-1
 134 0 l 1,8,-1
254.829101562 81 m 1,16,-1
 347.5 161 l 1,17,-1
 411.329101562 564 l 1,18,-1
 344.158203125 645 l 1,19,-1
 263.158203125 645 l 1,20,-1
 170.329101562 564 l 1,21,-1
 106.5 161 l 1,22,-1
 173.829101562 81 l 1,23,-1
 254.829101562 81 l 1,16,-1
EndSplineSet
EndChar

StartChar: ohungarumlaut
Encoding: 337 337 274
Width: 537
GlyphClass: 2
Flags: MW
LayerCount: 2
Fore
SplineSet
366.881835938 618 m 1,0,-1
 321.276367188 671 l 1,1,-1
 445.381835938 779 l 1,2,-1
 490.829101562 725 l 1,3,-1
 366.881835938 618 l 1,0,-1
204.881835938 618 m 1,4,-1
 160.276367188 671 l 1,5,-1
 284.381835938 779 l 1,6,-1
 329.829101562 725 l 1,7,-1
 204.881835938 618 l 1,4,-1
134 0 m 1,8,-1
 21.2236328125 134 l 1,9,-1
 68.10546875 430 l 1,10,-1
 223.329101562 564 l 1,11,-1
 358.329101562 564 l 1,12,-1
 471.10546875 430 l 1,13,-1
 424.223632812 134 l 1,14,-1
 269 0 l 1,15,-1
 134 0 l 1,8,-1
254.829101562 81 m 1,16,-1
 347.5 161 l 1,17,-1
 385.829101562 403 l 1,18,-1
 318.5 483 l 1,19,-1
 237.5 483 l 1,20,-1
 144.829101562 403 l 1,21,-1
 106.5 161 l 1,22,-1
 173.829101562 81 l 1,23,-1
 254.829101562 81 l 1,16,-1
EndSplineSet
EndChar

StartChar: OE
Encoding: 338 338 275
Width: 537
GlyphClass: 2
Flags: MW
LayerCount: 2
Fore
SplineSet
107 0 m 1,0,-1
 16.947265625 107 l 1,1,-1
 97.8818359375 618 l 1,2,-1
 221.829101562 725 l 1,3,-1
 248.829101562 725 l 1,4,-1
 294.276367188 671 l 1,5,-1
 302.829101562 725 l 1,6,-1
 517.829101562 725 l 1,7,-1
 505.158203125 645 l 1,8,-1
 371.158203125 645 l 1,9,-1
 332.829101562 403 l 1,10,-1
 412.829101562 403 l 1,11,-1
 400 322 l 1,12,-1
 320 322 l 1,13,-1
 281.829101562 81 l 1,14,-1
 415.829101562 81 l 1,15,-1
 403 0 l 1,16,-1
 188 0 l 1,17,-1
 196.552734375 54 l 1,18,-1
 134 0 l 1,19,-1
 107 0 l 1,0,-1
135.887695312 94 m 1,20,-1
 213.5 161 l 1,21,-1
 277.329101562 564 l 1,22,-1
 231.881835938 618 l 1,23,-1
 220.940429688 631 l 1,24,-1
 174.60546875 591 l 1,25,-1
 102.223632812 134 l 1,26,-1
 123.947265625 107 l 1,27,-1
 123.7890625 106 l 1,28,-1
 135.887695312 94 l 1,20,-1
EndSplineSet
EndChar

StartChar: oe
Encoding: 339 339 276
Width: 537
GlyphClass: 2
Flags: MW
LayerCount: 2
Fore
SplineSet
107 0 m 1,0,-1
 16.947265625 107 l 1,1,-1
 72.3818359375 457 l 1,2,-1
 196.329101562 564 l 1,3,-1
 223.329101562 564 l 1,4,-1
 268.776367188 510 l 1,5,-1
 268.618164062 509 l 1,6,-1
 279.716796875 497 l 1,7,-1
 358.329101562 564 l 1,8,-1
 384.329101562 564 l 1,9,-1
 475.381835938 457 l 1,10,-1
 445.60546875 269 l 1,11,-1
 284.60546875 269 l 1,12,-1
 263.223632812 134 l 1,13,-1
 285.947265625 107 l 1,14,-1
 285.7890625 106 l 1,15,-1
 296.887695312 94 l 1,16,-1
 374.5 161 l 1,17,-1
 419.947265625 107 l 1,18,-1
 295 0 l 1,19,-1
 269 0 l 1,20,-1
 223.552734375 54 l 1,21,-1
 211.611328125 67 l 1,22,-1
 134 0 l 1,23,-1
 107 0 l 1,0,-1
377.276367188 349 m 1,24,-1
 390.10546875 430 l 1,25,-1
 367.381835938 457 l 1,26,-1
 356.440429688 470 l 1,27,-1
 310.10546875 430 l 1,28,-1
 297.276367188 349 l 1,29,-1
 377.276367188 349 l 1,24,-1
135.887695312 94 m 1,30,-1
 182.223632812 134 l 1,31,-1
 229.10546875 430 l 1,32,-1
 206.381835938 457 l 1,33,-1
 195.440429688 470 l 1,34,-1
 149.10546875 430 l 1,35,-1
 102.223632812 134 l 1,36,-1
 123.947265625 107 l 1,37,-1
 123.7890625 106 l 1,38,-1
 135.887695312 94 l 1,30,-1
EndSplineSet
EndChar

StartChar: Racute
Encoding: 340 340 277
Width: 537
GlyphClass: 2
Flags: MW
LayerCount: 2
Fore
SplineSet
311.381835938 779 m 1,0,-1
 265.934570312 833 l 1,1,-1
 390.881835938 940 l 1,2,-1
 435.329101562 886 l 1,3,-1
 311.381835938 779 l 1,0,-1
0 0 m 1,4,-1
 114.829101562 725 l 1,5,-1
 383.829101562 725 l 1,6,-1
 496.60546875 591 l 1,7,-1
 475.381835938 457 l 1,8,-1
 320 322 l 1,9,-1
 306 322 l 1,10,-1
 407.276367188 27 l 1,11,-1
 349 0 l 1,12,-1
 336 0 l 1,13,-1
 226 322 l 1,14,-1
 132 322 l 1,15,-1
 81 0 l 1,16,-1
 0 0 l 1,4,-1
305.829101562 403 m 1,17,-1
 398.5 483 l 1,18,-1
 411.329101562 564 l 1,19,-1
 344.158203125 645 l 1,20,-1
 183.158203125 645 l 1,21,-1
 144.829101562 403 l 1,22,-1
 305.829101562 403 l 1,17,-1
EndSplineSet
EndChar

StartChar: racute
Encoding: 341 341 278
Width: 537
GlyphClass: 2
Flags: MW
LayerCount: 2
Fore
SplineSet
285.881835938 618 m 1,0,-1
 240.276367188 671 l 1,1,-1
 365.381835938 779 l 1,2,-1
 409.829101562 725 l 1,3,-1
 285.881835938 618 l 1,0,-1
0 0 m 1,4,-1
 89.3291015625 564 l 1,5,-1
 170.329101562 564 l 1,6,-1
 157.5 483 l 1,7,-1
 250.329101562 564 l 1,8,-1
 358.329101562 564 l 1,9,-1
 471.10546875 430 l 1,10,-1
 408.552734375 376 l 1,11,-1
 318.5 483 l 1,12,-1
 264.5 483 l 1,13,-1
 140.552734375 376 l 1,14,-1
 81 0 l 1,15,-1
 0 0 l 1,4,-1
EndSplineSet
EndChar

StartChar: uni0156
Encoding: 342 342 279
Width: 537
GlyphClass: 2
Flags: MW
LayerCount: 2
Fore
SplineSet
0 0 m 1,0,-1
 114.829101562 725 l 1,1,-1
 383.829101562 725 l 1,2,-1
 496.60546875 591 l 1,3,-1
 475.381835938 457 l 1,4,-1
 320 322 l 1,5,-1
 306 322 l 1,6,-1
 407.276367188 27 l 1,7,-1
 349 0 l 1,8,-1
 336 0 l 1,9,-1
 226 322 l 1,10,-1
 132 322 l 1,11,-1
 81 0 l 1,12,-1
 0 0 l 1,0,-1
305.829101562 403 m 1,13,-1
 398.5 483 l 1,14,-1
 411.329101562 564 l 1,15,-1
 344.158203125 645 l 1,16,-1
 183.158203125 645 l 1,17,-1
 144.829101562 403 l 1,18,-1
 305.829101562 403 l 1,13,-1
135.5 -161 m 1,19,-1
 90.052734375 -107 l 1,20,-1
 152.447265625 -54 l 1,21,-1
 169.552734375 54 l 1,22,-1
 250.552734375 54 l 1,23,-1
 229.170898438 -81 l 1,24,-1
 135.5 -161 l 1,19,-1
EndSplineSet
EndChar

StartChar: uni0157
Encoding: 343 343 280
Width: 537
GlyphClass: 2
Flags: MW
LayerCount: 2
Fore
SplineSet
28.5 -161 m 1,0,-1
 -16.947265625 -107 l 1,1,-1
 45.447265625 -54 l 1,2,-1
 54 0 l 1,3,-1
 0 0 l 1,4,-1
 89.3291015625 564 l 1,5,-1
 170.329101562 564 l 1,6,-1
 157.5 483 l 1,7,-1
 250.329101562 564 l 1,8,-1
 358.329101562 564 l 1,9,-1
 471.10546875 430 l 1,10,-1
 408.552734375 376 l 1,11,-1
 318.5 483 l 1,12,-1
 264.5 483 l 1,13,-1
 140.552734375 376 l 1,14,-1
 89.552734375 54 l 1,15,-1
 142.552734375 54 l 1,16,-1
 121.170898438 -81 l 1,17,-1
 28.5 -161 l 1,0,-1
EndSplineSet
EndChar

StartChar: Rcaron
Encoding: 344 344 281
Width: 537
GlyphClass: 2
Flags: MW
LayerCount: 2
Fore
SplineSet
311.381835938 779 m 1,0,-1
 221.329101562 886 l 1,1,-1
 282.881835938 940 l 1,2,-1
 328.329101562 886 l 1,3,-1
 328.169921875 885 l 1,4,-1
 339.26953125 873 l 1,5,-1
 417.881835938 940 l 1,6,-1
 462.329101562 886 l 1,7,-1
 338.381835938 779 l 1,8,-1
 311.381835938 779 l 1,0,-1
0 0 m 1,9,-1
 114.829101562 725 l 1,10,-1
 383.829101562 725 l 1,11,-1
 496.60546875 591 l 1,12,-1
 475.381835938 457 l 1,13,-1
 320 322 l 1,14,-1
 306 322 l 1,15,-1
 407.276367188 27 l 1,16,-1
 349 0 l 1,17,-1
 336 0 l 1,18,-1
 226 322 l 1,19,-1
 132 322 l 1,20,-1
 81 0 l 1,21,-1
 0 0 l 1,9,-1
305.829101562 403 m 1,22,-1
 398.5 483 l 1,23,-1
 411.329101562 564 l 1,24,-1
 344.158203125 645 l 1,25,-1
 183.158203125 645 l 1,26,-1
 144.829101562 403 l 1,27,-1
 305.829101562 403 l 1,22,-1
EndSplineSet
EndChar

StartChar: rcaron
Encoding: 345 345 282
Width: 537
GlyphClass: 2
Flags: MW
LayerCount: 2
Fore
SplineSet
285.881835938 618 m 1,0,-1
 195.829101562 725 l 1,1,-1
 257.381835938 779 l 1,2,-1
 302.829101562 725 l 1,3,-1
 302.669921875 724 l 1,4,-1
 313.76953125 712 l 1,5,-1
 392.381835938 779 l 1,6,-1
 436.829101562 725 l 1,7,-1
 312.881835938 618 l 1,8,-1
 285.881835938 618 l 1,0,-1
0 0 m 1,9,-1
 89.3291015625 564 l 1,10,-1
 170.329101562 564 l 1,11,-1
 157.5 483 l 1,12,-1
 250.329101562 564 l 1,13,-1
 358.329101562 564 l 1,14,-1
 471.10546875 430 l 1,15,-1
 408.552734375 376 l 1,16,-1
 318.5 483 l 1,17,-1
 264.5 483 l 1,18,-1
 140.552734375 376 l 1,19,-1
 81 0 l 1,20,-1
 0 0 l 1,9,-1
EndSplineSet
EndChar

StartChar: Sacute
Encoding: 346 346 283
Width: 537
GlyphClass: 2
Flags: MW
LayerCount: 2
Fore
SplineSet
311.381835938 779 m 1,0,-1
 265.934570312 833 l 1,1,-1
 390.881835938 940 l 1,2,-1
 435.329101562 886 l 1,3,-1
 311.381835938 779 l 1,0,-1
134 0 m 1,4,-1
 21.2236328125 134 l 1,5,-1
 83.7763671875 188 l 1,6,-1
 173.829101562 81 l 1,7,-1
 254.829101562 81 l 1,8,-1
 347.5 161 l 1,9,-1
 360.329101562 242 l 1,10,-1
 293 322 l 1,11,-1
 185 322 l 1,12,-1
 72.3818359375 457 l 1,13,-1
 93.60546875 591 l 1,14,-1
 248.829101562 725 l 1,15,-1
 383.829101562 725 l 1,16,-1
 496.60546875 591 l 1,17,-1
 434.052734375 537 l 1,18,-1
 344.158203125 645 l 1,19,-1
 263.158203125 645 l 1,20,-1
 170.329101562 564 l 1,21,-1
 157.5 483 l 1,22,-1
 224.829101562 403 l 1,23,-1
 332.829101562 403 l 1,24,-1
 445.60546875 269 l 1,25,-1
 424.223632812 134 l 1,26,-1
 269 0 l 1,27,-1
 134 0 l 1,4,-1
EndSplineSet
EndChar

StartChar: sacute
Encoding: 347 347 284
Width: 537
GlyphClass: 2
Flags: MW
LayerCount: 2
Fore
SplineSet
285.881835938 618 m 1,0,-1
 240.276367188 671 l 1,1,-1
 365.381835938 779 l 1,2,-1
 409.829101562 725 l 1,3,-1
 285.881835938 618 l 1,0,-1
134 0 m 1,4,-1
 21.2236328125 134 l 1,5,-1
 83.7763671875 188 l 1,6,-1
 173.829101562 81 l 1,7,-1
 254.829101562 81 l 1,8,-1
 347.5 161 l 1,9,-1
 280.329101562 242 l 1,10,-1
 172.329101562 242 l 1,11,-1
 59.552734375 376 l 1,12,-1
 68.10546875 430 l 1,13,-1
 223.329101562 564 l 1,14,-1
 358.329101562 564 l 1,15,-1
 471.10546875 430 l 1,16,-1
 408.552734375 376 l 1,17,-1
 318.5 483 l 1,18,-1
 237.5 483 l 1,19,-1
 144.829101562 403 l 1,20,-1
 212 322 l 1,21,-1
 320 322 l 1,22,-1
 432.776367188 188 l 1,23,-1
 424.223632812 134 l 1,24,-1
 269 0 l 1,25,-1
 134 0 l 1,4,-1
EndSplineSet
EndChar

StartChar: Scircumflex
Encoding: 348 348 285
Width: 537
GlyphClass: 2
Flags: MW
LayerCount: 2
Fore
SplineSet
257.381835938 779 m 1,0,-1
 212.934570312 833 l 1,1,-1
 336.881835938 940 l 1,2,-1
 363.881835938 940 l 1,3,-1
 453.934570312 833 l 1,4,-1
 392.381835938 779 l 1,5,-1
 346.934570312 833 l 1,6,-1
 334.993164062 846 l 1,7,-1
 257.381835938 779 l 1,0,-1
134 0 m 1,8,-1
 21.2236328125 134 l 1,9,-1
 83.7763671875 188 l 1,10,-1
 173.829101562 81 l 1,11,-1
 254.829101562 81 l 1,12,-1
 347.5 161 l 1,13,-1
 360.329101562 242 l 1,14,-1
 293 322 l 1,15,-1
 185 322 l 1,16,-1
 72.3818359375 457 l 1,17,-1
 93.60546875 591 l 1,18,-1
 248.829101562 725 l 1,19,-1
 383.829101562 725 l 1,20,-1
 496.60546875 591 l 1,21,-1
 434.052734375 537 l 1,22,-1
 344.158203125 645 l 1,23,-1
 263.158203125 645 l 1,24,-1
 170.329101562 564 l 1,25,-1
 157.5 483 l 1,26,-1
 224.829101562 403 l 1,27,-1
 332.829101562 403 l 1,28,-1
 445.60546875 269 l 1,29,-1
 424.223632812 134 l 1,30,-1
 269 0 l 1,31,-1
 134 0 l 1,8,-1
EndSplineSet
EndChar

StartChar: scircumflex
Encoding: 349 349 286
Width: 537
GlyphClass: 2
Flags: MW
LayerCount: 2
Fore
SplineSet
231.881835938 618 m 1,0,-1
 187.276367188 671 l 1,1,-1
 311.381835938 779 l 1,2,-1
 338.381835938 779 l 1,3,-1
 428.276367188 671 l 1,4,-1
 366.881835938 618 l 1,5,-1
 321.276367188 671 l 1,6,-1
 309.493164062 685 l 1,7,-1
 231.881835938 618 l 1,0,-1
134 0 m 1,8,-1
 21.2236328125 134 l 1,9,-1
 83.7763671875 188 l 1,10,-1
 173.829101562 81 l 1,11,-1
 254.829101562 81 l 1,12,-1
 347.5 161 l 1,13,-1
 280.329101562 242 l 1,14,-1
 172.329101562 242 l 1,15,-1
 59.552734375 376 l 1,16,-1
 68.10546875 430 l 1,17,-1
 223.329101562 564 l 1,18,-1
 358.329101562 564 l 1,19,-1
 471.10546875 430 l 1,20,-1
 408.552734375 376 l 1,21,-1
 318.5 483 l 1,22,-1
 237.5 483 l 1,23,-1
 144.829101562 403 l 1,24,-1
 212 322 l 1,25,-1
 320 322 l 1,26,-1
 432.776367188 188 l 1,27,-1
 424.223632812 134 l 1,28,-1
 269 0 l 1,29,-1
 134 0 l 1,8,-1
EndSplineSet
EndChar

StartChar: Scedilla
Encoding: 350 350 287
Width: 537
GlyphClass: 2
Flags: MW
LayerCount: 2
Fore
SplineSet
135.5 -161 m 1,0,-1
 90.052734375 -107 l 1,1,-1
 152.447265625 -54 l 1,2,-1
 161 0 l 1,3,-1
 134 0 l 1,4,-1
 21.2236328125 134 l 1,5,-1
 83.7763671875 188 l 1,6,-1
 173.829101562 81 l 1,7,-1
 254.829101562 81 l 1,8,-1
 347.5 161 l 1,9,-1
 360.329101562 242 l 1,10,-1
 293 322 l 1,11,-1
 185 322 l 1,12,-1
 72.3818359375 457 l 1,13,-1
 93.60546875 591 l 1,14,-1
 248.829101562 725 l 1,15,-1
 383.829101562 725 l 1,16,-1
 496.60546875 591 l 1,17,-1
 434.052734375 537 l 1,18,-1
 344.158203125 645 l 1,19,-1
 263.158203125 645 l 1,20,-1
 170.329101562 564 l 1,21,-1
 157.5 483 l 1,22,-1
 224.829101562 403 l 1,23,-1
 332.829101562 403 l 1,24,-1
 445.60546875 269 l 1,25,-1
 424.223632812 134 l 1,26,-1
 269 0 l 1,27,-1
 242 0 l 1,28,-1
 229.170898438 -81 l 1,29,-1
 135.5 -161 l 1,0,-1
EndSplineSet
EndChar

StartChar: scedilla
Encoding: 351 351 288
Width: 537
GlyphClass: 2
Flags: MW
LayerCount: 2
Fore
SplineSet
135.5 -161 m 1,0,-1
 90.052734375 -107 l 1,1,-1
 152.447265625 -54 l 1,2,-1
 161 0 l 1,3,-1
 134 0 l 1,4,-1
 21.2236328125 134 l 1,5,-1
 83.7763671875 188 l 1,6,-1
 173.829101562 81 l 1,7,-1
 254.829101562 81 l 1,8,-1
 347.5 161 l 1,9,-1
 280.329101562 242 l 1,10,-1
 172.329101562 242 l 1,11,-1
 59.552734375 376 l 1,12,-1
 68.10546875 430 l 1,13,-1
 223.329101562 564 l 1,14,-1
 358.329101562 564 l 1,15,-1
 471.10546875 430 l 1,16,-1
 408.552734375 376 l 1,17,-1
 318.5 483 l 1,18,-1
 237.5 483 l 1,19,-1
 144.829101562 403 l 1,20,-1
 212 322 l 1,21,-1
 320 322 l 1,22,-1
 432.776367188 188 l 1,23,-1
 424.223632812 134 l 1,24,-1
 269 0 l 1,25,-1
 242 0 l 1,26,-1
 229.170898438 -81 l 1,27,-1
 135.5 -161 l 1,0,-1
EndSplineSet
EndChar

StartChar: Scaron
Encoding: 352 352 289
Width: 537
GlyphClass: 2
Flags: MW
LayerCount: 2
Fore
SplineSet
311.381835938 779 m 1,0,-1
 221.329101562 886 l 1,1,-1
 282.881835938 940 l 1,2,-1
 328.329101562 886 l 1,3,-1
 328.169921875 885 l 1,4,-1
 339.26953125 873 l 1,5,-1
 417.881835938 940 l 1,6,-1
 462.329101562 886 l 1,7,-1
 338.381835938 779 l 1,8,-1
 311.381835938 779 l 1,0,-1
134 0 m 1,9,-1
 21.2236328125 134 l 1,10,-1
 83.7763671875 188 l 1,11,-1
 173.829101562 81 l 1,12,-1
 254.829101562 81 l 1,13,-1
 347.5 161 l 1,14,-1
 360.329101562 242 l 1,15,-1
 293 322 l 1,16,-1
 185 322 l 1,17,-1
 72.3818359375 457 l 1,18,-1
 93.60546875 591 l 1,19,-1
 248.829101562 725 l 1,20,-1
 383.829101562 725 l 1,21,-1
 496.60546875 591 l 1,22,-1
 434.052734375 537 l 1,23,-1
 344.158203125 645 l 1,24,-1
 263.158203125 645 l 1,25,-1
 170.329101562 564 l 1,26,-1
 157.5 483 l 1,27,-1
 224.829101562 403 l 1,28,-1
 332.829101562 403 l 1,29,-1
 445.60546875 269 l 1,30,-1
 424.223632812 134 l 1,31,-1
 269 0 l 1,32,-1
 134 0 l 1,9,-1
EndSplineSet
EndChar

StartChar: scaron
Encoding: 353 353 290
Width: 537
GlyphClass: 2
Flags: MW
LayerCount: 2
Fore
SplineSet
285.881835938 618 m 1,0,-1
 195.829101562 725 l 1,1,-1
 257.381835938 779 l 1,2,-1
 302.829101562 725 l 1,3,-1
 302.669921875 724 l 1,4,-1
 313.76953125 712 l 1,5,-1
 392.381835938 779 l 1,6,-1
 436.829101562 725 l 1,7,-1
 312.881835938 618 l 1,8,-1
 285.881835938 618 l 1,0,-1
134 0 m 1,9,-1
 21.2236328125 134 l 1,10,-1
 83.7763671875 188 l 1,11,-1
 173.829101562 81 l 1,12,-1
 254.829101562 81 l 1,13,-1
 347.5 161 l 1,14,-1
 280.329101562 242 l 1,15,-1
 172.329101562 242 l 1,16,-1
 59.552734375 376 l 1,17,-1
 68.10546875 430 l 1,18,-1
 223.329101562 564 l 1,19,-1
 358.329101562 564 l 1,20,-1
 471.10546875 430 l 1,21,-1
 408.552734375 376 l 1,22,-1
 318.5 483 l 1,23,-1
 237.5 483 l 1,24,-1
 144.829101562 403 l 1,25,-1
 212 322 l 1,26,-1
 320 322 l 1,27,-1
 432.776367188 188 l 1,28,-1
 424.223632812 134 l 1,29,-1
 269 0 l 1,30,-1
 134 0 l 1,9,-1
EndSplineSet
EndChar

StartChar: uni0162
Encoding: 354 354 291
Width: 537
GlyphClass: 2
Flags: MW
LayerCount: 2
Fore
SplineSet
189.5 -161 m 1,0,-1
 144.052734375 -107 l 1,1,-1
 206.447265625 -54 l 1,2,-1
 215 0 l 1,3,-1
 161 0 l 1,4,-1
 263.158203125 645 l 1,5,-1
 102.158203125 645 l 1,6,-1
 114.829101562 725 l 1,7,-1
 517.829101562 725 l 1,8,-1
 505.158203125 645 l 1,9,-1
 344.158203125 645 l 1,10,-1
 250.552734375 54 l 1,11,-1
 303.552734375 54 l 1,12,-1
 282.170898438 -81 l 1,13,-1
 189.5 -161 l 1,0,-1
EndSplineSet
EndChar

StartChar: uni0163
Encoding: 355 355 292
Width: 537
GlyphClass: 2
Flags: MW
LayerCount: 2
Fore
SplineSet
162.5 -161 m 1,0,-1
 117.052734375 -107 l 1,1,-1
 179.447265625 -54 l 1,2,-1
 188 0 l 1,3,-1
 97.947265625 107 l 1,4,-1
 157.5 483 l 1,5,-1
 76.5 483 l 1,6,-1
 89.3291015625 564 l 1,7,-1
 170.329101562 564 l 1,8,-1
 183.158203125 645 l 1,9,-1
 263.158203125 645 l 1,10,-1
 250.329101562 564 l 1,11,-1
 411.329101562 564 l 1,12,-1
 398.5 483 l 1,13,-1
 237.5 483 l 1,14,-1
 182.223632812 134 l 1,15,-1
 227.829101562 81 l 1,16,-1
 254.829101562 81 l 1,17,-1
 347.5 161 l 1,18,-1
 392.947265625 107 l 1,19,-1
 269 0 l 1,20,-1
 256.170898438 -81 l 1,21,-1
 162.5 -161 l 1,0,-1
EndSplineSet
EndChar

StartChar: Tcaron
Encoding: 356 356 293
Width: 537
GlyphClass: 2
Flags: MW
LayerCount: 2
Fore
SplineSet
311.381835938 779 m 1,0,-1
 221.329101562 886 l 1,1,-1
 282.881835938 940 l 1,2,-1
 328.329101562 886 l 1,3,-1
 328.169921875 885 l 1,4,-1
 339.26953125 873 l 1,5,-1
 417.881835938 940 l 1,6,-1
 462.329101562 886 l 1,7,-1
 338.381835938 779 l 1,8,-1
 311.381835938 779 l 1,0,-1
161 0 m 1,9,-1
 263.158203125 645 l 1,10,-1
 102.158203125 645 l 1,11,-1
 114.829101562 725 l 1,12,-1
 517.829101562 725 l 1,13,-1
 505.158203125 645 l 1,14,-1
 344.158203125 645 l 1,15,-1
 242 0 l 1,16,-1
 161 0 l 1,9,-1
EndSplineSet
EndChar

StartChar: tcaron
Encoding: 357 357 294
Width: 537
GlyphClass: 2
Flags: MW
LayerCount: 2
Fore
SplineSet
394.381835938 457 m 1,0,-1
 349.776367188 510 l 1,1,-1
 411.329101562 564 l 1,2,-1
 415.60546875 591 l 1,3,-1
 362.60546875 591 l 1,4,-1
 383.829101562 725 l 1,5,-1
 517.829101562 725 l 1,6,-1
 488.052734375 537 l 1,7,-1
 394.381835938 457 l 1,0,-1
188 0 m 1,8,-1
 97.947265625 107 l 1,9,-1
 157.5 483 l 1,10,-1
 76.5 483 l 1,11,-1
 89.3291015625 564 l 1,12,-1
 170.329101562 564 l 1,13,-1
 183.158203125 645 l 1,14,-1
 263.158203125 645 l 1,15,-1
 250.329101562 564 l 1,16,-1
 331.329101562 564 l 1,17,-1
 318.5 483 l 1,18,-1
 237.5 483 l 1,19,-1
 182.223632812 134 l 1,20,-1
 227.829101562 81 l 1,21,-1
 254.829101562 81 l 1,22,-1
 347.5 161 l 1,23,-1
 392.947265625 107 l 1,24,-1
 269 0 l 1,25,-1
 188 0 l 1,8,-1
EndSplineSet
EndChar

